SplineFontDB: 1.0
FontName: Garuda-Oblique
FullName: Garuda Oblique
FamilyName: Garuda
Weight: Book
Copyright: Generated by NECTEC for Public Domain\n\nModified by TLWG
Version: 1.1 :  May 12, 2003
ItalicAngle: -12
UnderlinePosition: -27
UnderlineWidth: 10
Ascent: 840
Descent: 160
NeedsXUIDChange: 1
FSType: 0
PfmFamily: 33
TTFWeight: 400
TTFWidth: 5
Panose: 2 11 6 4 2 2 2 2 2 4
LineGap: 0
VLineGap: 0
ScriptLang: 2
 1 latn 1 dflt 
 1 thai 1 dflt 
LangName: 1033 "" "" "" "Garuda Oblique" "" "Version 2.0 :  Dec 10, 2003" 
Encoding: compacted
OldEncoding: iso8859_1
UnicodeInterp: none
DisplaySize: -72
AntiAlias: 1
FitToEm: 1
WinInfo: 184 8 9
BeginPrivate: 3
BlueValues 31 [-17 0 693 709 788 792 957 974]
OtherBlues 11 [-281 -266]
ForceBold 5 false
EndPrivate
TeXData: 1 10485760 0 232783 116391 77594 354419 1048576 77594 783286 444596 497025 792723 393216 433062 380633 303038 157286 324010 404750 52429 2506097 1059062 262144
BeginChars: 378 344
StartChar: .notdef
Encoding: 0 -1 0
OldEncoding: 0
Width: 500
VWidth: 2048
Flags: HW
HStem: 0 62<125 375> 778 62<125 375>
VStem: 62 62<62 778> 375 62<62 778>
Fore
62 0 m 1
 241 840 l 1
 617 840 l 1
 438 0 l 1
 62 0 l 1
138 62 m 1
 388 62 l 1
 540 778 l 1
 290 778 l 1
 138 62 l 1
EndSplineSet
MinimumDistance: x2,-1 
EndChar
StartChar: exclam
Encoding: 33 33 2
OldEncoding: 33
Width: 181
VWidth: 2048
Flags: HW
HStem: 0 65<59 125> 458 10G<56 127>
VStem: 56 71<363 467>
Fore
99 116 m 1
 133 364 l 1
 155 467 l 1
 226 467 l 1
 204 364 l 1
 136 116 l 1
 99 116 l 1
59 0 m 1
 73 65 l 1
 139 65 l 1
 125 0 l 1
 59 0 l 1
EndSplineSet
MinimumDistance: x3,-1 
EndChar
StartChar: quotedbl
Encoding: 34 34 3
OldEncoding: 34
Width: 231
VWidth: 2048
Flags: HW
HStem: 458 10G<30 95 136 201>
VStem: 30 65<390 467> 136 65<390 467>
Fore
110 302 m 1
 113 391 l 1
 129 467 l 1
 194 467 l 1
 178 391 l 1
 145 302 l 1
 110 302 l 1
215 302 m 1
 219 391 l 1
 235 467 l 1
 300 467 l 1
 284 391 l 1
 250 302 l 1
 215 302 l 1
EndSplineSet
MinimumDistance: x9,-1 
EndChar
StartChar: numbersign
Encoding: 35 35 4
OldEncoding: 35
Width: 363
VWidth: 2048
Flags: HW
HStem: -8 10G<33 81 181 229> 128 47<7 61 118 208 266 355> 291 47<7 93 151 242 300 355> 465 10G<131 179 279 327>
DStem: 124 262 222 262 67 -16 165 -16 192 596 290 596 144 359 242 359 268 973 366 973 212 693 309 693 427 262 526 262 371 -16 469 -16 495 596 594 596 447 359 545 359 572 973 670 973 515 693 614 693
Fore
31 -8 m 1
 88 128 l 1
 34 128 l 1
 44 175 l 1
 107 175 l 1
 156 291 l 1
 69 291 l 1
 79 338 l 1
 176 338 l 1
 232 475 l 1
 280 475 l 1
 223 338 l 1
 323 338 l 1
 380 475 l 1
 428 475 l 1
 372 338 l 1
 427 338 l 1
 417 291 l 1
 352 291 l 1
 303 175 l 1
 392 175 l 1
 382 128 l 1
 284 128 l 1
 227 -8 l 1
 179 -8 l 1
 235 128 l 1
 135 128 l 1
 79 -8 l 1
 31 -8 l 1
155 175 m 1
 255 175 l 1
 304 291 l 1
 204 291 l 1
 155 175 l 1
EndSplineSet
MinimumDistance: x14,-1 
EndChar
StartChar: dollar
Encoding: 36 36 5
OldEncoding: 36
Width: 363
VWidth: 2048
Flags: HW
VStem: 33 57<352 363> 163 34<-67 -10 39 213 276 435 482 510> 273 59<120 136>
Fore
149 -67 m 1
 161 -10 l 1
 86 -0 49 37 49 101 c 0
 49 110 50 120 51 130 c 1
 111 141 l 1
 110 135 110 129 110 123 c 0
 110 72 130 44 171 39 c 1
 210 221 l 1
 140 237 105 271 105 323 c 0
 105 332 106 342 108 353 c 0
 116 391 135 422 164 445 c 0
 191 466 225 479 266 483 c 1
 271 510 l 1
 304 510 l 1
 299 483 l 1
 366 476 399 442 399 381 c 0
 399 377 399 373 399 368 c 1
 338 359 l 1
 338 361 338 364 338 366 c 0
 338 405 322 427 288 435 c 1
 253 269 l 1
 327 253 365 218 365 164 c 0
 365 154 363 144 361 133 c 0
 353 92 333 59 302 33 c 0
 270 7 236 -7 194 -9 c 1
 182 -67 l 1
 149 -67 l 1
255 435 m 1
 225 431 201 417 183 393 c 0
 174 382 169 370 166 357 c 0
 165 351 164 345 164 340 c 0
 164 310 183 289 222 276 c 1
 255 435 l 1
204 39 m 1
 229 42 249 51 266 68 c 0
 284 85 295 105 300 129 c 0
 301 135 302 141 302 147 c 0
 302 178 282 200 241 213 c 1
 204 39 l 1
EndSplineSet
MinimumDistance: x22,-1 
EndChar
StartChar: percent
Encoding: 37 37 6
OldEncoding: 37
Width: 580
VWidth: 2048
Flags: HW
HStem: -17 40<436 445> 190 40<436 445> 228 40<131 140> 436 40<131 140>
VStem: 38 50<342 358> 188 50<342 366> 340 50<100 116> 490 50<100 116>
DStem: 806 973 902 973 283 -35 380 -35
Fore
113 355 m 0
 124 403 146 438 181 459 c 0
 198 470 216 475 237 475 c 0
 276 475 301 458 313 423 c 0
 316 414 318 404 318 392 c 0
 318 380 316 366 313 352 c 0
 305 317 291 289 270 266 c 0
 246 241 218 228 185 228 c 0
 151 228 128 241 117 268 c 0
 111 281 108 296 108 313 c 0
 108 326 110 340 113 355 c 0
231 436 m 0
 197 436 175 407 162 349 c 0
 159 335 158 323 158 313 c 0
 158 283 170 268 195 268 c 0
 228 268 251 296 263 354 c 0
 266 368 268 381 268 391 c 0
 268 421 255 436 231 436 c 0
134 -17 m 1
 495 475 l 1
 541 475 l 1
 182 -17 l 1
 134 -17 l 1
363 110 m 0
 374 159 397 194 433 215 c 0
 449 225 467 230 487 230 c 0
 521 230 544 217 557 192 c 0
 564 179 567 162 567 144 c 0
 567 132 566 120 563 106 c 0
 555 71 541 43 520 21 c 0
 497 -4 468 -17 435 -17 c 0
 397 -17 373 0 363 36 c 0
 360 46 358 56 358 68 c 0
 358 81 360 94 363 110 c 0
480 190 m 0
 447 190 424 162 412 104 c 0
 409 90 408 79 408 68 c 0
 408 38 420 22 445 22 c 0
 478 22 501 51 513 108 c 0
 516 122 518 135 518 145 c 0
 518 175 505 190 480 190 c 0
EndSplineSet
MinimumDistance: x25,-1 
EndChar
StartChar: ampersand
Encoding: 38 38 7
OldEncoding: 38
Width: 435
VWidth: 2048
Flags: HW
HStem: -8 50<167 185> 428 47<191 208>
VStem: 28 62<128 138> 87 59<370 380> 253 59<370 380>
DStem: 346 473 457 536 561 206 629 317
Fore
322 55 m 1
 275 13 226 -8 174 -8 c 0
 118 -8 80 14 62 59 c 0
 55 73 52 88 52 103 c 0
 52 112 53 120 55 129 c 0
 68 187 115 233 196 269 c 1
 175 302 164 330 164 355 c 0
 164 360 165 366 166 371 c 0
 172 402 190 427 217 447 c 0
 244 466 272 475 304 475 c 0
 346 475 375 459 388 427 c 0
 392 418 394 408 394 397 c 0
 394 390 394 383 392 375 c 0
 382 331 344 293 279 262 c 1
 340 155 l 1
 354 174 365 195 376 220 c 1
 433 207 l 1
 414 166 393 133 371 106 c 1
 386 78 404 54 427 35 c 1
 380 -11 l 1
 360 4 341 26 322 55 c 1
257 299 m 1
 301 322 327 347 332 374 c 0
 333 379 334 384 334 389 c 0
 334 398 331 406 326 413 c 0
 318 423 306 428 291 428 c 0
 275 428 262 423 249 414 c 0
 237 404 229 391 226 376 c 0
 225 372 225 369 225 365 c 0
 225 353 229 341 238 328 c 2
 257 299 l 1
295 101 m 1
 218 231 l 1
 158 199 125 167 118 132 c 0
 117 125 116 118 116 111 c 0
 116 96 120 82 130 69 c 0
 143 51 162 42 186 42 c 0
 226 42 262 62 295 101 c 1
EndSplineSet
MinimumDistance: x12,-1 
EndChar
StartChar: quotesingle
Encoding: 39 39 8
OldEncoding: 39
Width: 124
VWidth: 2048
Flags: HW
HStem: 458 10G<29 94>
VStem: 29 65<389 467>
Fore
107 302 m 1
 112 389 l 1
 128 467 l 1
 193 467 l 1
 177 389 l 1
 143 302 l 1
 107 302 l 1
EndSplineSet
MinimumDistance: x3,-1 
EndChar
StartChar: parenleft
Encoding: 40 40 9
OldEncoding: 40
Width: 217
VWidth: 2048
Flags: HW
HStem: -137 10G<153 194> 465 10G<153 194>
VStem: 40 59<151 184>
Fore
124 -137 m 1
 85 -70 66 -0 66 73 c 0
 66 104 69 136 76 169 c 0
 98 273 157 375 254 475 c 1
 295 475 l 1
 209 371 156 269 135 169 c 0
 127 134 124 99 124 64 c 0
 124 -3 137 -70 165 -137 c 1
 124 -137 l 1
EndSplineSet
MinimumDistance: x5,-1 
EndChar
StartChar: parenright
Encoding: 41 41 10
OldEncoding: 41
Width: 217
VWidth: 2048
Flags: HW
HStem: -137 10G<40 81> 465 10G<40 81>
VStem: 135 59<151 184>
Fore
52 -137 m 1
 11 -137 l 1
 96 -35 149 67 171 169 c 0
 179 208 183 245 183 280 c 0
 183 311 180 340 174 368 c 0
 168 395 157 431 141 475 c 1
 182 475 l 1
 220 404 240 332 240 259 c 0
 240 229 236 199 230 169 c 0
 207 61 147 -42 52 -137 c 1
EndSplineSet
MinimumDistance: x8,-1 
EndChar
StartChar: asterisk
Encoding: 42 42 11
OldEncoding: 42
Width: 253
VWidth: 2048
Flags: HW
HStem: 465 10G<103 148>
Fore
102 381 m 1
 126 427 l 1
 157 415 180 405 193 396 c 1
 197 434 201 461 204 475 c 1
 249 475 l 1
 245 454 236 428 225 396 c 1
 250 407 277 417 307 427 c 1
 312 381 l 1
 283 373 256 367 229 364 c 1
 240 352 254 332 271 303 c 1
 227 276 l 1
 218 293 208 316 198 345 c 1
 176 315 157 292 142 276 c 1
 109 303 l 1
 141 334 163 354 176 364 c 1
 149 369 125 375 102 381 c 1
EndSplineSet
EndChar
StartChar: plus
Encoding: 43 43 12
OldEncoding: 43
Width: 381
VWidth: 2048
Flags: HW
HStem: 204 54<36 164 218 345> 375 10G<164 218>
VStem: 164 54<76 204 257 384>
Fore
180 76 m 1
 207 204 l 1
 79 204 l 1
 91 257 l 1
 219 257 l 1
 246 384 l 1
 300 384 l 1
 273 257 l 1
 400 257 l 1
 388 204 l 1
 261 204 l 1
 234 76 l 1
 180 76 l 1
EndSplineSet
MinimumDistance: x8,-1 y4,6 y4,5 y1,11 y1,0 x7,9 x7,8 x1,3 x1,2 
EndChar
StartChar: comma
Encoding: 44 44 13
OldEncoding: 44
Width: 181
VWidth: 2048
Flags: HW
HStem: -10 10G<58 90>
VStem: 58 65<-0 65>
Fore
58 0 m 1
 72 65 l 1
 138 65 l 1
 124 0 l 2
 114 -46 90 -77 50 -92 c 1
 40 -68 l 1
 65 -58 82 -35 90 0 c 1
 58 0 l 1
EndSplineSet
MinimumDistance: x2,-1 
EndChar
StartChar: hyphen
Encoding: 45 45 14
OldEncoding: 45
Width: 217
VWidth: 2048
Flags: HW
HStem: 140 58<21 197>
Fore
51 140 m 1
 63 198 l 1
 239 198 l 1
 227 140 l 1
 51 140 l 1
EndSplineSet
EndChar
StartChar: period
Encoding: 46 46 15
OldEncoding: 46
Width: 181
VWidth: 2048
Flags: HW
HStem: 0 65<59 125>
VStem: 59 65<0 65>
Fore
59 0 m 1
 73 65 l 1
 139 65 l 1
 125 0 l 1
 59 0 l 1
EndSplineSet
MinimumDistance: x2,-1 
EndChar
StartChar: slash
Encoding: 47 47 16
OldEncoding: 47
Width: 181
VWidth: 2048
Flags: HW
HStem: -8 10G<0 46> 465 10G<135 181>
DStem: 277 973 371 973 0 -16 95 -16
Fore
-2 -8 m 1
 236 475 l 1
 282 475 l 1
 44 -8 l 1
 -2 -8 l 1
EndSplineSet
EndChar
StartChar: zero
Encoding: 48 48 17
OldEncoding: 48
Width: 363
VWidth: 2048
Flags: HW
HStem: -8 47<175 184> 422 47<175 184>
VStem: 27 59<210 250> 273 59<210 250>
Fore
76 230 m 0
 110 390 178 469 280 469 c 0
 356 469 394 425 394 335 c 0
 394 305 390 270 381 230 c 0
 347 72 279 -8 178 -8 c 0
 102 -8 63 37 63 126 c 0
 63 156 68 190 76 230 c 0
135 230 m 0
 127 191 123 158 123 131 c 0
 123 70 144 39 188 39 c 0
 250 39 295 103 322 230 c 0
 330 269 334 302 334 329 c 0
 334 391 313 422 269 422 c 0
 207 422 162 358 135 230 c 0
EndSplineSet
MinimumDistance: x3,-1 
EndChar
StartChar: one
Encoding: 49 49 18
OldEncoding: 49
Width: 363
VWidth: 2048
Flags: HW
HStem: 0 10G<186 243> 459 10G<206 243>
VStem: 186 57<0 366>
Fore
243 0 m 1
 186 0 l 1
 264 366 l 1
 226 336 184 313 134 296 c 1
 146 352 l 1
 219 383 273 422 306 469 c 1
 343 469 l 1
 243 0 l 1
EndSplineSet
MinimumDistance: x0,-1 
EndChar
StartChar: two
Encoding: 50 50 19
OldEncoding: 50
Width: 363
VWidth: 2048
Flags: HW
HStem: 0 55<98 327> 422 47<174 190>
VStem: 268 59<333 344>
Fore
339 55 m 1
 327 0 l 1
 18 0 l 1
 28 49 81 107 175 173 c 0
 210 198 235 215 248 227 c 0
 276 249 298 270 314 290 c 0
 327 308 337 325 340 341 c 0
 342 348 342 355 342 361 c 0
 342 376 337 389 327 400 c 0
 313 415 294 422 270 422 c 0
 241 422 217 413 197 397 c 0
 177 380 164 357 158 328 c 1
 100 334 l 1
 127 424 188 469 281 469 c 0
 322 469 354 458 377 436 c 0
 394 418 403 397 403 370 c 0
 403 360 401 350 399 339 c 0
 392 304 368 267 328 229 c 0
 308 210 271 182 219 145 c 0
 184 120 165 106 162 104 c 0
 139 87 122 70 110 55 c 1
 339 55 l 1
EndSplineSet
MinimumDistance: x16,-1 
EndChar
StartChar: three
Encoding: 51 51 20
OldEncoding: 51
Width: 363
VWidth: 2048
Flags: HW
HStem: -8 47<167 184> 422 47<167 184>
VStem: 251 59<343 352> 272 61<130 141>
Fore
53 124 m 1
 113 131 l 1
 113 130 113 129 113 127 c 0
 113 69 137 39 184 39 c 0
 212 39 237 48 259 67 c 0
 281 86 295 109 301 137 c 0
 303 145 304 152 304 160 c 0
 304 176 299 190 290 202 c 0
 277 219 256 228 229 228 c 0
 218 228 205 225 188 221 c 1
 205 271 l 1
 219 271 l 2
 226 271 236 272 248 275 c 0
 292 285 317 310 325 349 c 0
 327 356 327 362 327 368 c 0
 327 382 323 393 315 402 c 0
 304 415 287 422 265 422 c 0
 217 422 183 394 162 338 c 1
 107 348 l 1
 139 429 195 469 274 469 c 0
 312 469 342 459 363 438 c 0
 379 421 388 400 388 375 c 0
 388 366 387 357 385 348 c 0
 376 304 347 273 300 253 c 1
 344 243 366 216 366 173 c 0
 366 162 365 151 362 138 c 0
 353 94 331 59 295 32 c 0
 258 5 218 -8 174 -8 c 0
 118 -8 82 12 62 54 c 0
 56 69 52 88 52 108 c 0
 52 113 53 119 53 124 c 1
EndSplineSet
MinimumDistance: x25,-1 
EndChar
StartChar: four
Encoding: 52 52 21
OldEncoding: 52
Width: 363
VWidth: 2048
Flags: HW
HStem: 0 10G<211 269> 112 53<65 211 269 332> 458 10G<222 269>
VStem: 211 58<0 112 165 375>
DStem: 454 957 432 768 17 337 133 337
Fore
211 0 m 1
 235 112 l 1
 32 112 l 1
 43 165 l 1
 321 467 l 1
 368 467 l 1
 304 165 l 1
 367 165 l 1
 356 112 l 1
 293 112 l 1
 269 0 l 1
 211 0 l 1
246 165 m 1
 291 375 l 1
 100 165 l 1
 246 165 l 1
EndSplineSet
MinimumDistance: x7,-1 x4,6 y6,4 y6,5 y1,10 y1,0 x6,8 x6,7 x1,3 x1,2 
EndChar
StartChar: five
Encoding: 53 53 22
OldEncoding: 53
Width: 363
VWidth: 2048
Flags: HW
HStem: -8 47<167 184> 259 51<176 191> 406 55<128 315>
VStem: 276 61<148 165>
DStem: 169 944 263 832 76 452 212 574
Fore
53 123 m 1
 114 127 l 1
 114 124 114 120 114 117 c 0
 114 66 137 39 185 39 c 0
 221 39 253 56 280 89 c 0
 294 107 303 128 309 153 c 0
 311 163 312 173 312 182 c 0
 312 201 308 217 299 230 c 0
 285 250 263 259 231 259 c 0
 194 259 163 244 136 214 c 1
 84 221 l 1
 181 461 l 1
 413 461 l 1
 401 406 l 1
 214 406 l 1
 164 280 l 1
 196 300 227 310 257 310 c 0
 315 310 352 286 368 237 c 0
 373 224 375 210 375 194 c 0
 375 183 374 171 371 158 c 0
 357 92 320 43 261 13 c 0
 235 -1 206 -8 175 -8 c 0
 134 -8 102 4 81 26 c 0
 61 45 52 71 52 102 c 0
 52 109 52 116 53 123 c 1
EndSplineSet
MinimumDistance: x19,-1 
EndChar
StartChar: six
Encoding: 54 54 23
OldEncoding: 54
Width: 363
VWidth: 2048
Flags: HW
HStem: -8 47<180 196> 422 47<180 196>
VStem: 274 59<140 157>
Fore
400 353 m 1
 342 349 l 1
 341 397 321 422 278 422 c 0
 238 422 204 400 177 357 c 0
 157 326 143 287 133 241 c 1
 169 283 211 303 259 303 c 0
 301 303 331 288 351 257 c 0
 364 238 370 217 370 192 c 0
 370 180 368 166 365 152 c 0
 356 106 334 68 303 39 c 0
 270 8 230 -8 185 -8 c 0
 102 -8 60 37 60 127 c 0
 60 153 63 184 71 219 c 0
 106 386 180 469 292 469 c 0
 342 469 375 451 391 416 c 0
 398 402 400 384 400 364 c 0
 400 361 400 357 400 353 c 1
122 151 m 0
 120 140 119 130 119 121 c 0
 119 103 123 88 131 74 c 0
 144 51 164 39 194 39 c 0
 222 39 248 51 269 74 c 0
 287 94 299 119 305 148 c 0
 308 160 309 171 309 181 c 0
 309 207 300 227 282 240 c 0
 271 248 256 252 238 252 c 0
 201 252 170 236 147 205 c 0
 135 189 127 172 122 151 c 0
EndSplineSet
MinimumDistance: x8,-1 
EndChar
StartChar: seven
Encoding: 55 55 24
OldEncoding: 55
Width: 363
VWidth: 2048
Flags: HW
HStem: 0 10G<96 155> 406 55<31 260>
Fore
117 406 m 1
 129 461 l 1
 431 461 l 1
 422 417 l 1
 361 364 307 299 258 224 c 0
 209 148 176 73 155 0 c 1
 96 0 l 1
 113 69 144 141 191 216 c 0
 236 289 288 353 346 406 c 1
 117 406 l 1
EndSplineSet
EndChar
StartChar: eight
Encoding: 56 56 25
OldEncoding: 56
Width: 363
VWidth: 2048
Flags: HW
HStem: -8 47<174 191> 229 47<174 183> 422 47<174 183>
VStem: 26 59<125 141> 45 59<343 360> 256 59<343 352> 276 59<125 141>
Fore
169 253 m 1
 135 268 116 291 116 325 c 0
 116 333 117 340 119 349 c 0
 129 393 156 427 200 451 c 0
 223 463 250 469 280 469 c 0
 332 469 367 451 384 413 c 0
 389 402 392 390 392 376 c 0
 392 367 391 357 389 347 c 0
 379 302 350 271 301 253 c 1
 344 238 366 209 366 167 c 0
 366 157 365 146 362 134 c 0
 353 91 331 56 295 30 c 0
 261 5 222 -8 178 -8 c 0
 134 -8 101 5 77 30 c 0
 60 49 51 73 51 101 c 0
 51 112 52 123 55 135 c 0
 68 198 107 238 169 253 c 1
179 351 m 0
 177 344 177 337 177 331 c 0
 177 317 180 306 188 296 c 0
 200 282 216 275 239 275 c 0
 260 275 280 282 298 295 c 0
 315 309 325 326 330 348 c 0
 331 354 332 359 332 365 c 0
 332 379 328 391 319 401 c 0
 308 415 292 422 270 422 c 0
 249 422 229 415 211 402 c 0
 194 389 183 371 179 351 c 0
114 135 m 0
 112 126 111 118 111 111 c 0
 111 93 116 78 126 66 c 0
 140 48 161 39 189 39 c 0
 217 39 242 48 263 65 c 0
 285 83 298 105 304 133 c 0
 306 141 307 149 307 157 c 0
 307 174 302 189 291 202 c 0
 277 220 256 229 228 229 c 0
 193 229 163 214 140 186 c 0
 127 172 118 155 114 135 c 0
EndSplineSet
MinimumDistance: x10,-1 
EndChar
StartChar: nine
Encoding: 57 57 26
OldEncoding: 57
Width: 363
VWidth: 2048
Flags: HW
HStem: -8 47<159 176> 158 51<165 180> 422 47<173 184>
VStem: 27 59<304 321>
Fore
59 108 m 1
 115 113 l 1
 115 112 115 111 115 109 c 0
 115 63 134 39 176 39 c 0
 223 39 262 67 292 124 c 0
 304 146 313 168 317 189 c 2
 324 220 l 1
 289 179 248 158 200 158 c 0
 158 158 127 174 106 204 c 0
 95 223 89 246 89 272 c 0
 89 284 90 298 93 312 c 0
 107 375 140 421 194 450 c 0
 218 463 245 469 274 469 c 0
 336 469 376 440 393 382 c 0
 396 370 398 356 398 340 c 0
 398 314 394 282 386 243 c 0
 350 76 277 -8 165 -8 c 0
 118 -8 86 9 69 42 c 0
 62 55 58 72 58 91 c 0
 58 96 58 102 59 108 c 1
338 314 m 0
 340 324 341 334 341 343 c 0
 341 360 337 375 330 388 c 0
 319 411 299 422 271 422 c 0
 242 422 216 410 192 387 c 0
 172 365 158 340 152 310 c 0
 150 301 149 292 149 283 c 0
 149 266 153 252 162 239 c 0
 176 219 196 209 224 209 c 0
 253 209 279 220 299 241 c 0
 318 260 332 285 338 314 c 0
EndSplineSet
MinimumDistance: x24,-1 
EndChar
StartChar: colon
Encoding: 58 58 27
OldEncoding: 58
Width: 181
VWidth: 2048
Flags: HW
HStem: 0 65<59 125> 273 65<59 125>
VStem: 59 65<0 65 273 338>
Fore
117 273 m 1
 131 338 l 1
 197 338 l 1
 183 273 l 1
 117 273 l 1
59 0 m 1
 73 65 l 1
 139 65 l 1
 125 0 l 1
 59 0 l 1
EndSplineSet
MinimumDistance: x2,-1 
EndChar
StartChar: semicolon
Encoding: 59 59 28
OldEncoding: 59
Width: 181
VWidth: 2048
Flags: HW
HStem: -10 10G<58 90> 273 65<58 124>
VStem: 58 65<-0 65 273 338>
Fore
116 273 m 1
 130 338 l 1
 196 338 l 1
 182 273 l 1
 116 273 l 1
58 0 m 1
 72 65 l 1
 138 65 l 1
 124 0 l 2
 114 -46 90 -77 50 -92 c 1
 40 -68 l 1
 65 -58 82 -35 90 0 c 1
 58 0 l 1
EndSplineSet
MinimumDistance: x2,-1 
EndChar
StartChar: less
Encoding: 60 60 29
OldEncoding: 60
Width: 381
VWidth: 2048
Flags: HW
DStem: 73 418 204 473 707 148 707 264 707 796 707 679 73 528 204 473
Fore
79 204 m 1
 91 258 l 1
 428 389 l 1
 416 332 l 1
 149 231 l 1
 372 129 l 1
 360 72 l 1
 79 204 l 1
EndSplineSet
MinimumDistance: x2,-1 
EndChar
StartChar: equal
Encoding: 61 61 30
OldEncoding: 61
Width: 381
VWidth: 2048
Flags: HW
HStem: 133 54<36 345> 275 53<36 345>
Fore
403 275 m 1
 94 275 l 1
 106 328 l 1
 415 328 l 1
 403 275 l 1
373 133 m 1
 64 133 l 1
 76 187 l 1
 385 187 l 1
 373 133 l 1
EndSplineSet
EndChar
StartChar: greater
Encoding: 62 62 31
OldEncoding: 62
Width: 381
VWidth: 2048
Flags: HW
DStem: 73 679 73 796 575 473 707 528 575 473 707 418 73 264 73 148
Fore
388 204 m 1
 51 72 l 1
 63 129 l 1
 330 231 l 1
 107 332 l 1
 119 389 l 1
 400 258 l 1
 388 204 l 1
EndSplineSet
MinimumDistance: x0,-1 
EndChar
StartChar: question
Encoding: 63 63 32
OldEncoding: 63
Width: 363
VWidth: 2048
Flags: HW
HStem: 0 65<147 212> 428 47<177 186>
VStem: 147 65<0 65> 271 59<339 352>
Fore
174 115 m 1
 179 135 l 1
 183 158 192 180 208 201 c 0
 214 211 222 220 230 228 c 1
 256 246 288 273 328 310 c 1
 336 320 342 332 344 344 c 0
 346 351 346 357 346 363 c 0
 346 385 337 403 317 417 c 0
 304 424 289 428 272 428 c 0
 220 428 182 397 159 333 c 1
 101 340 l 1
 131 430 191 475 281 475 c 0
 341 475 380 455 399 414 c 0
 404 402 407 390 407 376 c 0
 407 367 406 358 404 348 c 0
 398 320 380 294 351 270 c 0
 322 246 296 223 273 201 c 0
 254 182 240 154 230 115 c 1
 174 115 l 1
147 0 m 1
 161 65 l 1
 226 65 l 1
 212 0 l 1
 147 0 l 1
EndSplineSet
MinimumDistance: x14,-1 
EndChar
StartChar: at
Encoding: 64 64 33
OldEncoding: 64
Width: 662
VWidth: 2048
Flags: HW
HStem: -137 47<339 372> -1 53<432 453> -1 47<271 284> 298 48<321 333> 429 47<332 364>
VStem: 35 47<136 168> 157 59<128 152> 576 47<214 244>
Fore
381 52 m 1
 344 17 307 -1 272 -1 c 0
 236 -1 210 14 196 45 c 0
 187 62 182 81 182 102 c 0
 182 115 184 128 187 142 c 0
 194 176 209 209 233 242 c 0
 258 277 285 303 317 321 c 0
 346 337 373 346 396 346 c 0
 437 346 464 326 479 287 c 1
 500 336 l 1
 557 336 l 1
 466 123 l 2
 454 94 447 77 447 73 c 0
 446 70 446 68 446 66 c 0
 446 57 452 52 464 52 c 0
 487 52 516 68 552 101 c 0
 589 134 614 177 624 228 c 0
 628 244 629 260 629 274 c 0
 629 315 615 350 588 377 c 0
 553 412 503 429 440 429 c 0
 383 429 331 415 282 387 c 0
 234 359 194 320 161 269 c 0
 140 233 124 195 116 155 c 0
 111 131 108 108 108 87 c 0
 108 16 139 -33 200 -62 c 0
 239 -81 285 -90 338 -90 c 0
 443 -90 525 -58 583 6 c 1
 640 6 l 1
 608 -42 560 -79 498 -104 c 0
 444 -126 388 -137 329 -137 c 0
 197 -137 113 -95 76 -10 c 0
 64 15 58 44 58 76 c 0
 58 99 61 123 67 149 c 0
 87 243 135 323 208 388 c 0
 276 447 356 476 452 476 c 0
 529 476 589 454 630 410 c 0
 662 376 678 334 678 285 c 0
 678 266 676 247 672 227 c 0
 661 172 631 122 585 75 c 0
 536 24 485 -1 432 -1 c 0
 398 -1 380 12 380 38 c 0
 380 42 380 47 381 52 c 1
245 138 m 0
 243 128 242 119 242 110 c 0
 242 98 244 87 248 77 c 0
 257 56 272 46 294 46 c 0
 329 46 361 65 393 103 c 0
 419 136 436 170 444 207 c 0
 446 217 447 226 447 235 c 0
 447 248 444 260 439 270 c 0
 430 288 413 298 389 298 c 0
 356 298 324 279 295 241 c 0
 269 208 253 174 245 138 c 0
EndSplineSet
MinimumDistance: x37,-1 
EndChar
StartChar: A
Encoding: 65 65 34
OldEncoding: 65
Width: 435
VWidth: 2048
Flags: HW
HStem: 0 10G<-1 65 366 437> 142 50<134 292> 458 10G<179 245>
DStem: 366 957 379 674 -2 0 274 393 366 957 238 290 -2 0 133 0
Fore
-1 0 m 1
 278 467 l 1
 344 467 l 1
 437 0 l 1
 366 0 l 1
 342 142 l 1
 146 142 l 1
 65 0 l 1
 -1 0 l 1
175 192 m 1
 333 192 l 1
 312 321 l 2
 305 364 301 396 299 418 c 1
 288 389 272 359 255 329 c 2
 175 192 l 1
EndSplineSet
MinimumDistance: x12,-1 
EndChar
StartChar: B
Encoding: 66 66 35
OldEncoding: 66
Width: 435
VWidth: 2048
Flags: HW
HStem: 0 55<110 244> 216 55<110 228> 412 55<110 228>
VStem: 48 62<55 216 271 412> 317 61<339 349> 336 64<125 141>
Fore
48 0 m 1
 147 467 l 1
 322 467 l 2
 365 467 399 458 423 441 c 0
 444 425 455 403 455 376 c 0
 455 367 454 358 452 348 c 0
 442 303 413 270 365 249 c 1
 410 234 433 206 433 164 c 0
 433 155 432 145 430 135 c 0
 411 45 343 0 226 0 c 2
 48 0 l 1
168 271 m 1
 269 271 l 2
 315 271 348 280 366 297 c 0
 378 308 385 322 389 340 c 0
 391 348 392 355 392 362 c 0
 392 387 380 401 356 407 c 0
 340 410 319 412 291 412 c 2
 198 412 l 1
 168 271 l 1
122 55 m 1
 238 55 l 2
 271 55 297 60 316 69 c 0
 342 82 358 104 365 135 c 0
 367 143 367 150 367 156 c 0
 367 178 359 193 342 203 c 0
 326 211 300 216 264 216 c 2
 156 216 l 1
 122 55 l 1
EndSplineSet
MinimumDistance: x8,-1 
EndChar
StartChar: C
Encoding: 67 67 36
OldEncoding: 67
Width: 471
VWidth: 2048
Flags: HW
HStem: -8 53<235 260> 422 53<243 260>
VStem: 33 63<218 250>
Fore
419 164 m 1
 477 148 l 1
 428 44 352 -8 250 -8 c 0
 178 -8 128 15 99 62 c 0
 83 89 75 122 75 162 c 0
 75 185 77 210 83 237 c 0
 98 308 129 365 176 408 c 0
 224 453 284 475 354 475 c 0
 451 475 502 430 510 339 c 1
 446 325 l 1
 439 390 404 422 342 422 c 0
 289 422 245 404 210 368 c 0
 179 336 158 293 146 237 c 0
 141 213 139 190 139 170 c 0
 139 145 143 122 151 104 c 0
 169 65 204 45 257 45 c 0
 331 45 385 85 419 164 c 1
EndSplineSet
MinimumDistance: x12,-1 
EndChar
StartChar: D
Encoding: 68 68 37
OldEncoding: 68
Width: 471
VWidth: 2048
Flags: HW
HStem: 0 55<112 230> 412 55<112 223>
VStem: 50 62<55 412> 373 63<218 250>
Fore
50 0 m 1
 149 467 l 1
 310 467 l 2
 378 467 426 454 453 429 c 0
 482 402 496 363 496 313 c 0
 496 290 493 264 487 236 c 0
 454 79 364 0 219 0 c 2
 50 0 l 1
124 55 m 1
 224 55 l 2
 261 55 291 60 314 70 c 0
 342 82 366 103 384 134 c 0
 401 162 415 196 423 237 c 0
 428 261 431 283 431 302 c 0
 431 328 426 350 416 367 c 0
 399 397 361 412 298 412 c 2
 200 412 l 1
 124 55 l 1
EndSplineSet
MinimumDistance: x5,-1 
EndChar
StartChar: E
Encoding: 69 69 38
OldEncoding: 69
Width: 435
VWidth: 2048
Flags: HW
HStem: 0 55<113 400> 214 55<113 372> 412 55<113 390>
VStem: 52 62<55 214 269 412>
Fore
52 0 m 1
 151 467 l 1
 489 467 l 1
 478 412 l 1
 201 412 l 1
 170 269 l 1
 429 269 l 1
 417 214 l 1
 158 214 l 1
 125 55 l 1
 412 55 l 1
 400 0 l 1
 52 0 l 1
EndSplineSet
MinimumDistance: x10,-1 x9,11 x9,10 x5,7 x5,6 x4,2 x4,3 
EndChar
StartChar: F
Encoding: 70 70 39
OldEncoding: 70
Width: 398
VWidth: 2048
Flags: HW
HStem: 0 10G<54 115> 212 55<115 334> 412 55<115 369>
VStem: 54 62<0 212 267 412>
Fore
54 0 m 1
 153 467 l 1
 468 467 l 1
 457 412 l 1
 203 412 l 1
 172 268 l 1
 391 268 l 1
 379 212 l 1
 160 212 l 1
 115 0 l 1
 54 0 l 1
EndSplineSet
MinimumDistance: x2,-1 y8,0 y8,9 x5,7 x5,6 x4,2 x4,3 
EndChar
StartChar: G
Encoding: 71 71 40
OldEncoding: 71
Width: 507
VWidth: 2048
Flags: HW
HStem: -8 56<261 285> 183 55<269 406> 422 53<253 277>
VStem: 35 64<218 250> 406 61<96 183>
Fore
308 183 m 1
 320 238 l 1
 518 238 l 1
 481 65 l 1
 409 16 339 -8 271 -8 c 0
 196 -8 143 13 112 56 c 0
 88 87 77 124 77 167 c 0
 77 187 79 208 84 231 c 0
 100 305 132 364 183 408 c 0
 234 453 296 475 370 475 c 0
 475 475 529 429 531 336 c 1
 472 321 l 1
 468 389 430 422 359 422 c 0
 303 422 256 405 219 370 c 0
 184 338 161 293 149 235 c 0
 145 214 142 194 142 177 c 0
 142 146 149 121 162 100 c 0
 185 65 224 48 280 48 c 0
 334 48 384 64 426 96 c 1
 445 183 l 1
 308 183 l 1
EndSplineSet
MinimumDistance: x2,-1 x19,1 x19,0 
EndChar
StartChar: H
Encoding: 72 72 41
OldEncoding: 72
Width: 471
VWidth: 2048
Flags: HW
HStem: 0 10G<52 114 357 419> 220 55<114 357> 458 10G<52 114 357 419>
VStem: 52 62<0 220 275 467> 357 62<0 220 275 467>
Fore
52 0 m 1
 151 467 l 1
 213 467 l 1
 172 275 l 1
 415 275 l 1
 456 467 l 1
 518 467 l 1
 419 0 l 1
 357 0 l 1
 404 220 l 1
 161 220 l 1
 114 0 l 1
 52 0 l 1
EndSplineSet
MinimumDistance: x6,-1 y10,0 y10,11 y9,7 y9,8 y4,6 y4,5 y3,1 y3,2 
EndChar
StartChar: I
Encoding: 73 73 42
OldEncoding: 73
Width: 181
VWidth: 2048
Flags: HW
HStem: 0 10G<61 123> 458 10G<61 123>
VStem: 61 62<0 467>
Fore
61 0 m 1
 160 467 l 1
 222 467 l 1
 123 0 l 1
 61 0 l 1
EndSplineSet
MinimumDistance: x2,-1 
EndChar
StartChar: J
Encoding: 74 74 43
OldEncoding: 74
Width: 326
VWidth: 2048
Flags: HW
HStem: -8 55<134 151> 458 10G<212 274>
VStem: 212 62<132 467>
Fore
46 133 m 1
 103 140 l 1
 101 128 100 117 100 108 c 0
 100 67 117 47 153 47 c 0
 189 47 213 62 228 92 c 0
 233 105 238 123 243 146 c 2
 311 467 l 1
 373 467 l 1
 306 149 l 2
 283 44 229 -8 141 -8 c 0
 73 -8 39 22 39 81 c 0
 39 96 41 114 46 133 c 1
EndSplineSet
MinimumDistance: x7,-1 
EndChar
StartChar: K
Encoding: 75 75 44
OldEncoding: 75
Width: 435
VWidth: 2048
Flags: HW
HStem: 0 10G<48 110 353 434> 458 10G<48 110 342 425>
VStem: 48 62<0 162 235 467>
DStem: 700 957 381 484 225 482 225 332
Fore
48 0 m 1
 147 467 l 1
 209 467 l 1
 160 235 l 1
 441 467 l 1
 524 467 l 1
 288 278 l 1
 434 0 l 1
 353 0 l 1
 236 236 l 1
 144 162 l 1
 110 0 l 1
 48 0 l 1
EndSplineSet
MinimumDistance: x9,-1 
EndChar
StartChar: L
Encoding: 76 76 45
OldEncoding: 76
Width: 363
VWidth: 2048
Flags: HW
HStem: 0 55<109 340> 458 10G<48 110>
VStem: 48 62<55 467>
Fore
48 0 m 1
 147 467 l 1
 209 467 l 1
 122 55 l 1
 352 55 l 1
 340 0 l 1
 48 0 l 1
EndSplineSet
MinimumDistance: x4,-1 y3,1 y3,2 x3,5 x3,4 
EndChar
StartChar: M
Encoding: 77 77 46
OldEncoding: 77
Width: 543
VWidth: 2048
Flags: HW
HStem: 0 10G<48 108 243 299 435 494> 458 10G<48 142 411 494>
VStem: 48 60<0 398> 435 60<0 391>
DStem: 221 815 290 957 498 0 562 138 842 957 890 801 613 291 612 0
Fore
48 0 m 1
 147 467 l 1
 241 467 l 1
 288 67 l 1
 329 142 l 1
 510 467 l 1
 593 467 l 1
 494 0 l 1
 435 0 l 1
 518 391 l 1
 299 0 l 1
 243 0 l 1
 193 398 l 1
 108 0 l 1
 48 0 l 1
EndSplineSet
MinimumDistance: x6,-1 
EndChar
StartChar: N
Encoding: 78 78 47
OldEncoding: 78
Width: 471
VWidth: 2048
Flags: HW
HStem: 0 10G<50 109 354 418> 458 10G<50 113 358 418>
VStem: 50 59<0 367> 358 60<101 467>
DStem: 223 752 232 957 726 0 734 206
Fore
50 0 m 1
 149 467 l 1
 212 467 l 1
 379 101 l 1
 457 467 l 1
 517 467 l 1
 418 0 l 1
 354 0 l 1
 187 367 l 1
 109 0 l 1
 50 0 l 1
EndSplineSet
MinimumDistance: x5,-1 
EndChar
StartChar: O
Encoding: 79 79 48
OldEncoding: 79
Width: 507
VWidth: 2048
Flags: HW
HStem: -8 53<242 267> 422 53<242 267>
VStem: 32 63<210 243> 415 64<218 250>
Fore
80 228 m 0
 101 326 149 397 226 442 c 0
 264 464 308 476 356 476 c 0
 422 476 470 453 503 409 c 0
 525 379 536 342 536 299 c 0
 536 279 534 256 529 233 c 0
 507 133 456 62 376 22 c 0
 335 2 295 -8 253 -8 c 0
 211 -8 174 2 145 22 c 0
 113 43 92 72 82 109 c 0
 77 129 74 149 74 171 c 0
 74 189 76 208 80 228 c 0
143 227 m 0
 139 207 137 189 137 173 c 0
 137 126 153 91 186 67 c 0
 206 52 233 45 265 45 c 0
 317 45 362 64 398 102 c 0
 431 135 453 179 465 233 c 0
 469 255 472 275 472 293 c 0
 472 341 456 376 425 400 c 0
 404 415 378 422 346 422 c 0
 294 422 250 405 215 371 c 0
 181 337 156 288 143 227 c 0
EndSplineSet
MinimumDistance: x5,-1 
EndChar
StartChar: P
Encoding: 80 80 49
OldEncoding: 80
Width: 435
VWidth: 2048
Flags: HW
HStem: 0 10G<50 112> 190 55<112 246> 412 55<112 246>
VStem: 50 62<0 190 245 412> 343 64<320 336>
Fore
50 0 m 1
 149 467 l 1
 326 467 l 2
 383 467 423 459 445 444 c 0
 469 426 482 400 482 366 c 0
 482 356 480 344 478 332 c 0
 457 237 389 190 272 190 c 2
 152 190 l 1
 112 0 l 1
 50 0 l 1
164 245 m 1
 285 245 l 2
 358 245 401 273 413 330 c 0
 415 339 416 347 416 355 c 0
 416 370 412 382 404 391 c 0
 393 405 365 412 320 412 c 2
 200 412 l 1
 164 245 l 1
EndSplineSet
MinimumDistance: x5,-1 y7,0 y7,8 
EndChar
StartChar: Q
Encoding: 81 81 50
OldEncoding: 81
Width: 507
VWidth: 2048
Flags: HW
HStem: -8 53<238 263> 422 53<238 263>
VStem: 28 64<221 246> 411 64<221 246>
Fore
415 50 m 1
 439 30 463 16 485 7 c 1
 458 -36 l 1
 427 -24 398 -5 369 21 c 1
 331 2 290 -8 248 -8 c 0
 180 -8 130 16 99 62 c 0
 80 92 70 127 70 167 c 0
 70 188 73 210 78 234 c 0
 93 305 124 363 173 407 c 0
 222 453 283 476 353 476 c 0
 441 476 497 441 522 373 c 0
 530 354 534 332 534 307 c 0
 534 285 531 261 525 234 c 0
 508 157 471 95 415 50 c 1
296 129 m 1
 329 119 355 104 374 84 c 1
 418 118 446 167 461 234 c 0
 465 255 467 274 467 292 c 0
 467 321 462 345 451 366 c 0
 430 403 394 422 342 422 c 0
 275 422 222 393 182 335 c 0
 163 307 150 273 142 234 c 0
 137 213 135 194 135 176 c 0
 135 147 141 122 152 102 c 0
 173 64 209 45 262 45 c 0
 284 45 305 49 326 58 c 1
 310 70 292 79 271 84 c 1
 296 129 l 1
EndSplineSet
MinimumDistance: x12,-1 
EndChar
StartChar: R
Encoding: 82 82 51
OldEncoding: 82
Width: 471
VWidth: 2048
Flags: HW
HStem: 0 10G<51 113 385 463> 208 54<113 192> 416 52<113 271>
VStem: 51 62<0 208 261 416> 361 63<335 344>
DStem: 663 199 782 260 789 0 949 0
Fore
51 0 m 1
 150 467 l 1
 357 467 l 2
 398 467 428 464 446 457 c 0
 471 447 489 427 497 397 c 0
 500 389 501 380 501 371 c 0
 501 361 500 351 497 340 c 0
 482 267 429 224 338 212 c 1
 367 199 390 170 409 127 c 2
 463 0 l 1
 385 0 l 1
 345 97 l 2
 335 119 328 135 323 146 c 0
 313 164 302 179 292 188 c 0
 279 201 257 208 229 208 c 2
 157 208 l 1
 113 0 l 1
 51 0 l 1
168 261 m 1
 301 261 l 2
 378 261 422 287 433 340 c 0
 435 347 435 354 435 360 c 0
 435 397 407 416 349 416 c 2
 201 416 l 1
 168 261 l 1
EndSplineSet
MinimumDistance: x9,-1 y15,0 y15,16 
EndChar
StartChar: S
Encoding: 83 83 52
OldEncoding: 83
Width: 435
VWidth: 2048
Flags: HW
HStem: -8 55<210 241> 421 54<198 229>
VStem: 47 60<343 352> 342 60<125 133>
Fore
61 150 m 1
 121 155 l 1
 121 150 120 145 120 141 c 0
 120 78 159 47 236 47 c 0
 266 47 292 53 316 64 c 0
 346 78 363 99 369 127 c 0
 370 132 371 137 371 142 c 0
 371 165 356 182 329 193 c 0
 313 199 286 207 245 216 c 0
 182 232 143 254 127 282 c 0
 121 294 118 307 118 322 c 0
 118 330 119 338 121 347 c 0
 132 400 166 437 223 459 c 0
 250 470 280 475 312 475 c 0
 362 475 400 464 426 443 c 0
 449 424 461 398 461 364 c 0
 461 355 460 345 458 335 c 1
 398 331 l 1
 399 336 399 342 399 346 c 0
 399 396 367 421 303 421 c 0
 232 421 191 397 182 351 c 0
 181 346 180 342 180 338 c 0
 180 317 193 302 216 293 c 0
 229 288 249 282 277 276 c 0
 313 267 338 260 351 255 c 0
 379 245 400 232 413 216 c 0
 426 200 432 182 432 160 c 0
 432 151 431 142 429 132 c 0
 419 87 394 52 353 26 c 0
 316 3 273 -8 227 -8 c 0
 170 -8 127 4 98 28 c 0
 71 49 58 79 58 117 c 0
 58 128 59 138 61 150 c 1
EndSplineSet
MinimumDistance: x27,-1 
EndChar
StartChar: T
Encoding: 84 84 53
OldEncoding: 84
Width: 398
VWidth: 2048
Flags: HW
HStem: 0 10G<169 231> 412 55<15 169 231 386>
VStem: 169 62<0 412>
Fore
169 0 m 1
 257 412 l 1
 103 412 l 1
 114 467 l 1
 485 467 l 1
 474 412 l 1
 319 412 l 1
 231 0 l 1
 169 0 l 1
EndSplineSet
MinimumDistance: x4,-1 y1,7 y1,0 x6,4 x6,5 x1,3 x1,2 
EndChar
StartChar: U
Encoding: 85 85 54
OldEncoding: 85
Width: 471
VWidth: 2048
Flags: HW
HStem: -8 56<223 239> 458 10G<51 113 357 419>
VStem: 51 62<179 467> 357 62<179 467>
Fore
456 467 m 1
 518 467 l 1
 461 197 l 2
 445 121 417 67 379 36 c 0
 341 7 294 -8 234 -8 c 0
 166 -8 122 10 100 44 c 0
 89 62 83 86 83 116 c 0
 83 140 86 167 93 197 c 2
 150 467 l 1
 212 467 l 1
 155 198 l 2
 150 173 147 151 147 133 c 0
 147 108 152 90 161 78 c 0
 176 58 203 48 241 48 c 0
 297 48 338 65 363 101 c 0
 378 120 390 153 399 198 c 2
 456 467 l 1
EndSplineSet
MinimumDistance: x1,-1 
EndChar
StartChar: V
Encoding: 86 86 55
OldEncoding: 86
Width: 435
VWidth: 2048
Flags: HW
HStem: 0 10G<184 248> 458 10G<3 70 367 430>
Fore
184 0 m 1
 102 467 l 1
 169 467 l 1
 218 128 l 1
 222 103 224 77 227 51 c 1
 236 72 251 98 268 128 c 2
 466 467 l 1
 529 467 l 1
 248 0 l 1
 184 0 l 1
EndSplineSet
EndChar
StartChar: W
Encoding: 87 87 56
OldEncoding: 87
Width: 616
VWidth: 2048
Flags: HW
HStem: 0 10G<132 195 421 480> 458 10G<8 71 272 347 547 609>
DStem: 557 957 603 729 375 311 400 0 631 841 710 957 862 0 847 473
Fore
132 0 m 1
 107 467 l 1
 170 467 l 1
 177 161 l 1
 177 128 177 96 176 65 c 1
 215 152 l 1
 371 467 l 1
 446 467 l 1
 463 231 l 2
 465 198 466 167 466 137 c 0
 466 112 465 88 464 65 c 1
 476 96 492 130 508 167 c 2
 646 467 l 1
 708 467 l 1
 480 0 l 1
 421 0 l 1
 395 411 l 1
 391 400 382 382 370 356 c 1
 195 0 l 1
 132 0 l 1
EndSplineSet
MinimumDistance: x8,-1 
EndChar
StartChar: X
Encoding: 88 88 57
OldEncoding: 88
Width: 435
VWidth: 2048
Flags: HW
HStem: 0 10G<3 77 355 431> 458 10G<24 98 351 418>
DStem: 50 957 200 957 376 499 374 712 376 499 398 334 6 0 158 0 486 341 521 506 727 0 883 0 719 957 857 957 527 703 521 506
Fore
3 0 m 1
 236 244 l 1
 123 467 l 1
 197 467 l 1
 257 348 l 2
 269 323 278 304 282 290 c 1
 292 303 308 321 330 343 c 2
 450 467 l 1
 517 467 l 1
 307 247 l 1
 431 0 l 1
 355 0 l 1
 272 167 l 2
 269 174 264 185 259 198 c 1
 248 184 238 173 229 163 c 2
 77 0 l 1
 3 0 l 1
EndSplineSet
MinimumDistance: x10,-1 
EndChar
StartChar: Y
Encoding: 89 89 58
OldEncoding: 89
Width: 435
VWidth: 2048
Flags: HW
HStem: 0 10G<182 244> 458 10G<2 77 358 430>
VStem: 182 62<0 198>
DStem: 4 957 158 957 373 405 347 668
Fore
182 0 m 1
 224 198 l 1
 101 467 l 1
 176 467 l 1
 238 326 l 2
 249 302 260 276 270 248 c 1
 296 280 318 308 338 330 c 2
 457 467 l 1
 529 467 l 1
 286 198 l 1
 244 0 l 1
 182 0 l 1
EndSplineSet
MinimumDistance: x9,-1 
EndChar
StartChar: Z
Encoding: 90 90 59
OldEncoding: 90
Width: 398
VWidth: 2048
Flags: HW
HStem: 0 55<84 382> 412 55<40 301>
Fore
13 0 m 1
 25 58 l 1
 328 356 l 2
 352 379 372 398 389 412 c 1
 128 412 l 1
 139 467 l 1
 474 467 l 1
 463 412 l 1
 96 55 l 1
 394 55 l 1
 382 0 l 1
 13 0 l 1
EndSplineSet
EndChar
StartChar: bracketleft
Encoding: 91 91 60
OldEncoding: 91
Width: 181
VWidth: 2048
Flags: HW
HStem: -130 48<102 171> 420 47<102 171>
VStem: 44 57<-83 420>
Fore
16 -130 m 1
 143 467 l 1
 270 467 l 1
 260 420 l 1
 191 420 l 1
 85 -82 l 1
 154 -82 l 1
 143 -130 l 1
 16 -130 l 1
EndSplineSet
MinimumDistance: x2,-1 x5,7 x5,6 x4,2 x4,3 
EndChar
StartChar: backslash
Encoding: 92 92 61
OldEncoding: 92
Width: 181
VWidth: 2048
Flags: HW
HStem: -8 10G<135 181> 465 10G<0 46>
DStem: 0 973 95 973 277 -16 371 -16
Fore
133 -8 m 1
 101 475 l 1
 147 475 l 1
 179 -8 l 1
 133 -8 l 1
EndSplineSet
EndChar
StartChar: bracketright
Encoding: 93 93 62
OldEncoding: 93
Width: 181
VWidth: 2048
Flags: HW
HStem: -130 48<12 82> 420 47<12 82>
VStem: 82 58<-82 420>
Fore
111 -130 m 1
 -16 -130 l 1
 -5 -82 l 1
 65 -82 l 1
 171 420 l 1
 101 420 l 1
 111 467 l 1
 238 467 l 1
 111 -130 l 1
EndSplineSet
MinimumDistance: x0,-1 x4,6 x4,5 x3,1 x3,2 
EndChar
StartChar: asciicircum
Encoding: 94 94 63
OldEncoding: 94
Width: 306
VWidth: 2048
Flags: HW
HStem: 465 10G<130 176>
Fore
123 220 m 1
 64 220 l 1
 231 475 l 1
 277 475 l 1
 336 220 l 1
 278 220 l 1
 240 410 l 1
 123 220 l 1
EndSplineSet
EndChar
StartChar: underscore
Encoding: 95 95 64
OldEncoding: 95
Width: 363
VWidth: 2048
Flags: HW
HStem: -130 42<-10 371>
Fore
-38 -130 m 1
 -29 -88 l 1
 352 -88 l 1
 343 -130 l 1
 -38 -130 l 1
EndSplineSet
EndChar
StartChar: grave
Encoding: 96 96 65
OldEncoding: 96
Width: 217
VWidth: 2048
Flags: HW
HStem: 460 10G<28 105>
Fore
229 380 m 1
 183 380 l 1
 128 470 l 1
 205 470 l 1
 229 380 l 1
EndSplineSet
EndChar
StartChar: a
Encoding: 97 97 66
OldEncoding: 97
Width: 363
VWidth: 2048
Flags: HW
HStem: -8 45<139 153> 0 10G<275 335> 299 47<171 188>
VStem: 23 62<85 94> 259 58<140 170 214 235>
Fore
273 42 m 1
 227 9 181 -8 137 -8 c 0
 104 -8 79 0 62 16 c 0
 47 29 39 45 39 66 c 0
 39 73 40 81 42 89 c 0
 50 125 73 153 109 172 c 0
 128 183 157 190 198 195 c 0
 247 201 282 208 305 215 c 1
 308 230 l 2
 310 237 310 244 310 250 c 0
 310 283 288 299 242 299 c 0
 216 299 194 294 180 285 c 0
 165 276 151 259 139 234 c 1
 85 242 l 1
 114 311 173 346 260 346 c 0
 309 346 341 336 359 315 c 0
 366 305 370 291 370 272 c 0
 370 257 368 239 363 218 c 2
 332 69 l 2
 330 59 329 49 329 40 c 0
 329 26 331 13 335 0 c 1
 275 0 l 1
 274 9 273 19 273 30 c 0
 273 42 l 1
295 170 m 1
 273 162 241 155 197 148 c 0
 142 141 111 121 104 91 c 0
 103 86 103 82 103 77 c 0
 103 50 122 37 161 37 c 0
 193 37 221 45 242 62 c 0
 266 81 282 110 291 149 c 2
 295 170 l 1
EndSplineSet
MinimumDistance: x17,-1 
EndChar
StartChar: b
Encoding: 98 98 67
OldEncoding: 98
Width: 363
VWidth: 2048
Flags: HW
HStem: -8 47<183 194> 0 10G<42 96> 299 47<183 194> 458 10G<42 100>
VStem: 42 53<0 42 156 180> 42 58<301 467> 278 59<164 180>
Fore
96 0 m 1
 42 0 l 1
 141 467 l 1
 199 467 l 1
 164 301 l 1
 194 331 229 346 267 346 c 0
 325 346 361 319 375 266 c 0
 378 254 379 242 379 229 c 0
 379 212 377 194 373 174 c 0
 363 125 343 83 311 49 c 0
 277 11 235 -8 188 -8 c 0
 148 -8 120 9 105 42 c 1
 96 0 l 1
132 172 m 0
 128 152 126 135 126 119 c 0
 126 89 134 67 149 54 c 0
 161 44 177 40 194 40 c 0
 226 40 252 54 275 83 c 0
 294 107 307 136 314 169 c 0
 318 187 320 203 320 218 c 0
 320 247 312 269 296 284 c 0
 284 294 271 299 252 299 c 0
 221 299 194 285 171 257 c 0
 152 234 139 205 132 172 c 0
EndSplineSet
MinimumDistance: x8,-1 
EndChar
StartChar: c
Encoding: 99 99 68
OldEncoding: 99
Width: 326
VWidth: 2048
Flags: HW
HStem: -8 47<173 190> 299 47<173 190>
VStem: 25 59<156 180>
Fore
290 124 m 1
 345 117 l 1
 331 79 309 48 280 26 c 0
 250 3 216 -8 178 -8 c 0
 127 -8 92 9 72 43 c 0
 61 62 55 86 55 114 c 0
 55 131 57 149 61 168 c 0
 77 246 114 299 168 326 c 0
 195 339 224 346 254 346 c 0
 329 346 366 312 366 242 c 0
 366 239 l 1
 308 230 l 1
 308 276 287 299 246 299 c 0
 181 299 138 256 120 169 c 0
 116 150 114 133 114 118 c 0
 114 66 139 40 188 40 c 0
 237 40 270 68 290 124 c 1
EndSplineSet
MinimumDistance: x13,-1 
EndChar
StartChar: d
Encoding: 100 100 69
OldEncoding: 100
Width: 363
VWidth: 2048
Flags: HW
HStem: -8 47<165 179> 0 10G<263 316> 299 47<163 174> 458 10G<259 316>
VStem: 22 59<156 180> 259 57<300 467> 263 53<0 42 156 180>
Fore
263 0 m 1
 272 42 l 1
 243 9 208 -8 166 -8 c 0
 119 -8 87 11 68 47 c 0
 57 67 52 91 52 117 c 0
 52 133 54 150 58 169 c 0
 74 243 108 295 159 325 c 0
 183 339 210 346 240 346 c 0
 279 346 306 331 323 300 c 1
 358 467 l 1
 415 467 l 1
 316 0 l 1
 263 0 l 1
117 169 m 0
 113 152 112 137 112 123 c 0
 112 93 120 71 136 56 c 0
 148 45 163 40 182 40 c 0
 214 40 239 53 261 81 c 0
 279 103 292 131 299 164 c 0
 303 182 305 198 305 212 c 0
 305 228 303 242 299 254 c 0
 289 284 268 299 235 299 c 0
 175 299 135 256 117 169 c 0
EndSplineSet
MinimumDistance: x10,-1 
EndChar
StartChar: e
Encoding: 101 101 70
OldEncoding: 101
Width: 363
VWidth: 2048
Flags: HW
HStem: -8 47<180 196> 155 47<86 275> 299 47<172 188>
Fore
298 109 m 1
 356 102 l 1
 320 29 263 -8 183 -8 c 0
 115 -8 74 19 59 73 c 0
 55 85 53 99 53 114 c 0
 53 130 55 148 59 167 c 0
 71 219 92 261 125 294 c 0
 161 329 205 346 256 346 c 0
 299 346 331 333 351 308 c 0
 362 294 371 277 375 259 c 0
 377 249 378 238 378 226 c 0
 378 216 377 205 376 193 c 0
 375 189 373 177 368 155 c 1
 116 155 l 1
 114 145 114 135 114 126 c 0
 114 106 118 89 126 74 c 0
 140 51 163 40 195 40 c 0
 238 40 271 63 298 109 c 1
129 202 m 1
 318 202 l 1
 319 211 320 219 320 226 c 0
 320 274 295 299 247 299 c 0
 219 299 193 289 172 271 c 0
 152 253 137 230 129 202 c 1
EndSplineSet
EndChar
StartChar: f
Encoding: 102 102 71
OldEncoding: 102
Width: 181
VWidth: 2048
Flags: HW
HStem: 0 10G<57 114> 294 44<6 57 114 180> 423 52<151 163>
VStem: 57 57<0 294 338 375>
Fore
57 0 m 1
 119 294 l 1
 68 294 l 1
 78 338 l 1
 129 338 l 1
 137 375 l 2
 144 411 157 436 176 452 c 0
 194 467 220 475 251 475 c 0
 268 475 286 473 304 470 c 1
 284 419 l 1
 274 422 262 423 252 423 c 0
 233 423 219 419 211 411 c 0
 203 403 197 389 193 370 c 2
 186 338 l 1
 252 338 l 1
 242 294 l 1
 176 294 l 1
 114 0 l 1
 57 0 l 1
EndSplineSet
MinimumDistance: x14,-1 y1,17 y1,0 x13,15 x13,14 x1,3 x1,2 
EndChar
StartChar: g
Encoding: 103 103 72
OldEncoding: 103
Width: 363
VWidth: 2048
Flags: HW
HStem: -137 47<153 178> 0 47<165 178> 299 47<165 178> 329 10G<267 319>
VStem: 21 59<159 184> 266 54<159 184 298 338>
Fore
27 -28 m 1
 80 -36 l 1
 80 -37 80 -39 80 -40 c 0
 80 -73 102 -90 147 -90 c 0
 182 -90 209 -80 229 -61 c 0
 246 -44 259 -9 270 44 c 1
 239 15 205 0 167 0 c 0
 121 0 88 18 68 53 c 0
 57 73 52 96 52 123 c 0
 52 138 53 154 57 171 c 0
 68 221 88 261 118 293 c 0
 153 328 194 346 241 346 c 0
 282 346 311 330 330 298 c 1
 339 338 l 1
 391 338 l 1
 329 46 l 2
 314 -24 292 -72 260 -98 c 0
 230 -124 189 -137 138 -137 c 0
 98 -137 69 -129 48 -113 c 0
 31 -99 23 -81 23 -58 c 0
 23 -49 24 -39 27 -28 c 1
117 175 m 0
 113 156 111 139 111 124 c 0
 111 73 135 47 183 47 c 0
 215 47 243 61 265 88 c 0
 282 110 296 139 303 173 c 0
 306 188 308 202 308 215 c 0
 308 231 305 246 300 258 c 0
 289 285 268 299 236 299 c 0
 205 299 178 285 156 259 c 0
 137 236 124 208 117 175 c 0
EndSplineSet
MinimumDistance: x14,-1 
EndChar
StartChar: h
Encoding: 104 104 73
OldEncoding: 104
Width: 363
VWidth: 2048
Flags: HW
HStem: 0 10G<43 101 261 319> 458 10G<43 101>
VStem: 43 58<0 196 300 467> 261 58<0 227>
Fore
43 0 m 1
 142 467 l 1
 200 467 l 1
 165 300 l 1
 197 331 235 346 276 346 c 0
 335 346 366 325 370 283 c 0
 370 278 371 273 371 268 c 0
 371 252 368 234 364 214 c 2
 319 0 l 1
 261 0 l 1
 306 214 l 2
 308 225 310 235 310 244 c 0
 310 279 291 297 253 297 c 0
 209 297 178 279 160 243 c 0
 151 227 145 208 140 185 c 2
 101 0 l 1
 43 0 l 1
EndSplineSet
MinimumDistance: x7,-1 
EndChar
StartChar: i
Encoding: 105 105 74
OldEncoding: 105
Width: 145
VWidth: 2048
Flags: HW
HStem: 0 10G<43 101> 329 10G<43 101> 458 10G<43 101>
VStem: 43 57<0 338 401 467>
Fore
128 401 m 1
 142 467 l 1
 200 467 l 1
 186 401 l 1
 128 401 l 1
43 0 m 1
 115 338 l 1
 173 338 l 1
 101 0 l 1
 43 0 l 1
EndSplineSet
MinimumDistance: x2,-1 
EndChar
StartChar: j
Encoding: 106 106 75
OldEncoding: 106
Width: 145
VWidth: 2048
Flags: HW
HStem: -137 50<7 15> 329 10G<42 100> 458 10G<42 100>
VStem: 42 58<-36 338 401 467>
Fore
127 401 m 1
 141 467 l 1
 199 467 l 1
 185 401 l 1
 127 401 l 1
-58 -131 m 1
 -37 -83 l 1
 -26 -85 -17 -87 -10 -87 c 0
 9 -87 22 -77 29 -57 c 0
 32 -48 35 -35 38 -17 c 2
 114 338 l 1
 172 338 l 1
 96 -19 l 2
 84 -73 66 -108 40 -124 c 0
 25 -133 7 -137 -14 -137 c 0
 -29 -137 -44 -135 -58 -131 c 1
EndSplineSet
MinimumDistance: x2,-1 
EndChar
StartChar: k
Encoding: 107 107 76
OldEncoding: 107
Width: 326
VWidth: 2048
Flags: HW
HStem: 0 10G<43 101 253 324> 329 10G<236 311> 458 10G<43 101>
VStem: 43 57<0 134 201 467>
DStem: 289 354 371 436 518 0 663 0 484 693 636 693 206 411 371 436
Fore
43 0 m 1
 142 467 l 1
 200 467 l 1
 144 201 l 1
 308 338 l 1
 383 338 l 1
 226 213 l 1
 324 0 l 1
 253 0 l 1
 178 173 l 1
 129 134 l 1
 101 0 l 1
 43 0 l 1
EndSplineSet
MinimumDistance: x7,-1 
EndChar
StartChar: l
Encoding: 108 108 77
OldEncoding: 108
Width: 145
VWidth: 2048
Flags: HW
HStem: 0 10G<42 99> 458 10G<42 99>
VStem: 42 57<0 467>
Fore
42 0 m 1
 141 467 l 1
 198 467 l 1
 99 0 l 1
 42 0 l 1
EndSplineSet
MinimumDistance: x2,-1 
EndChar
StartChar: m
Encoding: 109 109 78
OldEncoding: 109
Width: 543
VWidth: 2048
Flags: HW
HStem: 0 10G<43 101 244 302 445 502> 296 50<184 192 384 397> 329 10G<43 94>
VStem: 43 58<0 196> 244 58<0 211> 445 57<0 227>
Fore
43 0 m 1
 115 338 l 1
 166 338 l 1
 156 291 l 1
 188 328 226 346 271 346 c 0
 321 346 347 326 353 287 c 1
 388 326 428 346 471 346 c 0
 528 346 556 321 556 271 c 0
 556 259 554 246 551 232 c 2
 502 0 l 1
 445 0 l 1
 490 213 l 2
 493 226 494 237 494 247 c 0
 494 280 479 296 447 296 c 0
 392 296 358 263 344 197 c 2
 302 0 l 1
 244 0 l 1
 291 220 l 2
 293 231 294 240 294 249 c 0
 294 280 279 296 247 296 c 0
 210 296 182 280 163 247 c 0
 153 230 145 206 138 176 c 2
 101 0 l 1
 43 0 l 1
EndSplineSet
MinimumDistance: x8,-1 
EndChar
StartChar: n
Encoding: 110 110 79
OldEncoding: 110
Width: 363
VWidth: 2048
Flags: HW
HStem: 0 10G<43 101 261 318> 329 10G<43 95>
VStem: 43 58<0 196> 261 57<0 219>
Fore
43 0 m 1
 115 338 l 1
 167 338 l 1
 157 291 l 1
 189 328 229 346 277 346 c 0
 339 346 370 319 370 265 c 0
 370 252 368 238 365 223 c 2
 318 0 l 1
 261 0 l 1
 305 206 l 2
 308 219 309 230 309 240 c 0
 309 277 290 296 253 296 c 0
 194 296 156 259 140 185 c 2
 101 0 l 1
 43 0 l 1
EndSplineSet
MinimumDistance: x6,-1 
EndChar
StartChar: o
Encoding: 111 111 80
OldEncoding: 111
Width: 363
VWidth: 2048
Flags: HW
HStem: -8 47<169 186> 299 47<169 186>
VStem: 21 59<156 180> 280 59<156 180>
Fore
57 169 m 0
 68 222 91 264 124 295 c 0
 159 329 203 346 254 346 c 0
 315 346 355 321 374 271 c 0
 379 257 381 241 381 223 c 0
 381 208 380 192 376 174 c 0
 365 120 342 77 310 45 c 0
 274 10 230 -8 178 -8 c 0
 112 -8 71 20 57 74 c 0
 53 88 51 102 51 118 c 0
 51 134 53 150 57 169 c 0
117 169 m 0
 113 152 111 136 111 122 c 0
 111 92 120 69 139 55 c 0
 152 45 168 40 189 40 c 0
 224 40 252 53 275 81 c 0
 295 104 308 134 316 171 c 0
 319 186 321 200 321 212 c 0
 321 230 318 246 312 259 c 0
 301 285 278 299 244 299 c 0
 210 299 181 285 158 258 c 0
 138 236 125 206 117 169 c 0
EndSplineSet
MinimumDistance: x5,-1 
EndChar
StartChar: p
Encoding: 112 112 81
OldEncoding: 112
Width: 363
VWidth: 2048
Flags: HW
HStem: -130 10G<43 101> -8 47<183 194> 301 45<183 194> 329 10G<43 95>
VStem: 43 52<151 183 294 338> 43 58<-130 35> 278 59<159 183>
Fore
15 -130 m 1
 115 338 l 1
 167 338 l 1
 157 294 l 1
 190 329 227 346 267 346 c 0
 315 346 347 328 365 293 c 0
 375 273 380 251 380 225 c 0
 380 208 378 191 374 172 c 0
 363 123 342 82 311 48 c 0
 276 11 235 -8 187 -8 c 0
 151 -8 124 7 108 35 c 1
 73 -130 l 1
 15 -130 l 1
130 167 m 0
 126 150 125 135 125 121 c 0
 125 91 133 69 149 55 c 0
 160 45 175 40 195 40 c 0
 227 40 254 54 277 84 c 0
 295 107 307 137 315 172 c 0
 318 188 320 203 320 217 c 0
 320 232 318 246 314 258 c 0
 304 287 283 301 252 301 c 0
 221 301 194 286 170 256 c 0
 151 231 138 202 130 167 c 0
EndSplineSet
MinimumDistance: x7,-1 
EndChar
StartChar: q
Encoding: 113 113 82
OldEncoding: 113
Width: 363
VWidth: 2048
Flags: HW
HStem: -130 10G<259 316> -8 47<165 180> 301 45<163 176> 329 10G<265 316>
VStem: 23 59<159 183> 259 58<-130 36> 265 52<151 175 293 338>
Fore
231 -130 m 1
 267 36 l 1
 239 7 206 -8 168 -8 c 0
 124 -8 92 10 72 44 c 0
 60 66 54 92 54 120 c 0
 54 136 56 154 60 172 c 0
 70 221 89 261 119 293 c 0
 152 328 192 346 240 346 c 0
 282 346 311 329 327 293 c 1
 337 338 l 1
 388 338 l 1
 288 -130 l 1
 231 -130 l 1
118 170 m 0
 114 153 113 137 113 123 c 0
 113 93 121 71 137 56 c 0
 149 45 165 40 184 40 c 0
 215 40 240 53 262 81 c 0
 280 104 293 132 300 165 c 0
 304 181 306 197 306 211 c 0
 306 227 303 241 299 254 c 0
 289 285 268 301 235 301 c 0
 203 301 177 286 156 257 c 0
 138 234 126 205 118 170 c 0
EndSplineSet
MinimumDistance: x10,-1 
EndChar
StartChar: r
Encoding: 114 114 83
OldEncoding: 114
Width: 217
VWidth: 2048
Flags: HW
HStem: 0 10G<42 100> 287 59<164 168> 329 10G<42 94>
VStem: 42 57<0 188>
Fore
42 0 m 1
 114 338 l 1
 166 338 l 1
 155 287 l 1
 185 326 214 346 241 346 c 0
 261 346 278 340 296 328 c 1
 265 274 l 1
 253 283 240 287 226 287 c 0
 196 287 173 270 157 235 c 0
 148 216 142 197 138 177 c 2
 100 0 l 1
 42 0 l 1
EndSplineSet
MinimumDistance: x9,-1 
EndChar
StartChar: s
Encoding: 115 115 84
OldEncoding: 115
Width: 326
VWidth: 2048
Flags: HW
HStem: -8 47<152 177> 299 47<145 169>
VStem: 30 55<249 258> 242 59<92 100>
Fore
41 101 m 1
 100 110 l 1
 100 101 l 0
 100 60 125 40 174 40 c 0
 225 40 254 57 262 93 c 0
 262 96 263 98 263 101 c 0
 263 113 256 122 243 130 c 0
 237 132 222 137 198 144 c 0
 169 151 153 155 148 157 c 0
 130 163 115 170 105 179 c 0
 89 192 81 209 81 230 c 0
 81 236 82 242 83 249 c 0
 91 285 114 313 154 332 c 0
 173 341 199 346 228 346 c 0
 283 346 317 333 332 306 c 0
 339 294 342 278 342 259 c 0
 342 257 342 254 342 251 c 1
 284 244 l 1
 284 246 284 248 284 251 c 0
 284 282 263 299 222 299 c 0
 173 299 145 284 139 255 c 0
 138 252 138 249 138 247 c 0
 138 235 144 227 156 222 c 0
 164 218 181 213 209 205 c 0
 228 200 247 194 266 188 c 1
 288 180 304 170 313 157 c 0
 321 146 324 134 324 120 c 0
 324 113 324 107 322 100 c 0
 315 64 295 37 262 18 c 0
 232 1 199 -8 163 -8 c 0
 81 -8 41 26 41 96 c 0
 41 98 41 99 41 101 c 1
EndSplineSet
MinimumDistance: x27,-1 
EndChar
StartChar: t
Encoding: 116 116 85
OldEncoding: 116
Width: 181
VWidth: 2048
Flags: HW
HStem: -4 54<133 145> 294 44<12 54 111 168>
VStem: 54 57<89 294 338 422>
Fore
179 51 m 1
 177 0 l 1
 159 -3 145 -4 132 -4 c 0
 96 -4 75 6 68 28 c 0
 67 31 67 35 67 41 c 0
 67 54 69 73 75 99 c 2
 116 294 l 1
 74 294 l 1
 84 338 l 1
 126 338 l 1
 144 422 l 1
 208 457 l 1
 183 338 l 1
 240 338 l 1
 230 294 l 1
 173 294 l 1
 131 96 l 2
 129 86 128 78 128 71 c 0
 128 62 130 55 135 53 c 0
 140 51 145 49 153 49 c 0
 160 49 169 50 179 51 c 1
EndSplineSet
MinimumDistance: x0,-1 x12,14 x12,13 x6,8 x6,7 
EndChar
StartChar: u
Encoding: 117 117 86
OldEncoding: 117
Width: 363
VWidth: 2048
Flags: HW
HStem: -8 50<157 170> 0 10G<265 316> 329 10G<42 99 259 316>
VStem: 42 57<128 338> 259 58<140 338>
Fore
265 0 m 1
 276 50 l 1
 241 11 201 -8 155 -8 c 0
 114 -8 86 4 72 27 c 0
 65 38 62 53 62 73 c 0
 62 88 64 107 69 129 c 2
 114 338 l 1
 171 338 l 1
 131 151 l 2
 126 126 123 106 123 91 c 0
 123 79 125 71 128 65 c 0
 137 50 153 42 178 42 c 0
 223 42 255 60 273 97 c 0
 281 113 287 133 292 157 c 2
 331 338 l 1
 388 338 l 1
 316 0 l 1
 265 0 l 1
EndSplineSet
MinimumDistance: x15,-1 
EndChar
StartChar: v
Encoding: 118 118 87
OldEncoding: 118
Width: 326
VWidth: 2048
Flags: HW
HStem: 0 10G<137 190> 329 10G<8 69 260 319>
DStem: 17 693 141 693 281 0 290 278
Fore
137 0 m 1
 80 338 l 1
 141 338 l 1
 171 136 l 2
 173 114 176 91 177 67 c 1
 186 85 198 107 213 132 c 2
 332 338 l 1
 391 338 l 1
 190 0 l 1
 137 0 l 1
EndSplineSet
MinimumDistance: x3,-1 
EndChar
StartChar: w
Encoding: 119 119 88
OldEncoding: 119
Width: 471
VWidth: 2048
Flags: HW
HStem: 0 10G<105 166 301 360> 329 10G<2 61 207 266 411 466>
DStem: 423 693 479 533 313 287 339 0 479 533 544 693 616 0 682 159
Fore
105 0 m 1
 74 338 l 1
 133 338 l 1
 150 70 l 1
 156 85 167 108 183 140 c 2
 279 338 l 1
 338 338 l 1
 350 78 l 1
 483 338 l 1
 538 338 l 1
 360 0 l 1
 301 0 l 1
 289 260 l 1
 166 0 l 1
 105 0 l 1
EndSplineSet
MinimumDistance: x7,-1 
EndChar
StartChar: x
Encoding: 120 120 89
OldEncoding: 120
Width: 326
VWidth: 2048
Flags: HW
HStem: 0 10G<5 74 251 322> 329 10G<14 86 244 312>
DStem: 29 693 176 693 263 360 282 531 500 693 640 693 383 529 401 367
Fore
5 0 m 1
 165 176 l 1
 86 338 l 1
 158 338 l 1
 193 259 l 2
 198 246 204 233 208 221 c 1
 216 230 226 242 242 258 c 2
 316 338 l 1
 384 338 l 1
 234 179 l 1
 322 0 l 1
 251 0 l 1
 191 134 l 1
 74 0 l 1
 5 0 l 1
EndSplineSet
MinimumDistance: x8,-1 
EndChar
StartChar: y
Encoding: 121 121 90
OldEncoding: 121
Width: 326
VWidth: 2048
Flags: HW
HStem: -137 56<66 78> 329 10G<11 72 263 321>
DStem: 22 693 148 693 285 -1 292 292 539 693 657 693 391 289 393 -12
Fore
13 -130 m 1
 18 -77 l 1
 30 -80 40 -82 50 -82 c 0
 76 -82 95 -72 108 -54 c 0
 112 -46 123 -29 137 -3 c 1
 139 0 l 1
 83 338 l 1
 144 338 l 1
 173 143 l 2
 177 114 180 88 181 64 c 1
 193 90 205 115 221 141 c 2
 335 338 l 1
 393 338 l 1
 191 -6 l 2
 172 -39 158 -60 152 -69 c 0
 135 -93 118 -111 102 -121 c 0
 85 -132 68 -137 49 -137 c 0
 38 -137 25 -135 13 -130 c 1
EndSplineSet
MinimumDistance: x12,-1 
EndChar
StartChar: z
Encoding: 122 122 91
OldEncoding: 122
Width: 326
VWidth: 2048
Flags: HW
HStem: 0 49<129 312> 292 46<25 193>
DStem: 467 602 619 616 26 95 171 95
Fore
13 0 m 1
 23 46 l 1
 290 294 l 1
 266 293 244 292 226 292 c 2
 87 292 l 1
 97 338 l 1
 374 338 l 1
 366 301 l 1
 93 46 l 1
 119 48 143 49 166 49 c 2
 322 49 l 1
 312 0 l 1
 13 0 l 1
EndSplineSet
MinimumDistance: x6,-1 
EndChar
StartChar: braceleft
Encoding: 123 123 92
OldEncoding: 123
Width: 218
VWidth: 2048
Flags: HW
HStem: -137 50<182 203> 425 50<182 203>
VStem: 84 54<282 363>
Fore
59 195 m 1
 93 196 116 211 130 242 c 0
 138 258 146 291 156 340 c 0
 165 383 176 414 189 432 c 0
 204 454 223 468 245 472 c 0
 255 474 268 475 286 475 c 2
 304 475 l 1
 293 425 l 1
 283 425 l 2
 259 425 243 420 233 410 c 0
 226 402 220 385 215 360 c 0
 205 313 199 287 198 282 c 0
 188 251 177 226 161 208 c 0
 147 192 129 179 107 169 c 1
 136 156 150 129 150 86 c 0
 150 69 148 48 143 25 c 0
 134 -19 129 -48 129 -62 c 0
 129 -66 129 -68 130 -70 c 0
 135 -82 149 -87 175 -87 c 2
 185 -87 l 1
 174 -137 l 1
 156 -137 l 2
 125 -137 104 -132 91 -120 c 0
 80 -109 74 -93 74 -75 c 0
 74 -72 74 -70 74 -67 c 1
 93 38 l 1
 96 54 98 68 98 81 c 0
 98 121 81 142 48 143 c 1
 59 195 l 1
EndSplineSet
MinimumDistance: x11,-1 
EndChar
StartChar: bar
Encoding: 124 124 93
OldEncoding: 124
Width: 169
VWidth: 2048
Flags: HW
HStem: -137 10G<60 110> 465 10G<60 110>
VStem: 60 50<-137 475>
Fore
31 -137 m 1
 161 475 l 1
 211 475 l 1
 81 -137 l 1
 31 -137 l 1
EndSplineSet
MinimumDistance: x2,-1 
EndChar
StartChar: braceright
Encoding: 125 125 94
OldEncoding: 125
Width: 218
VWidth: 2048
Flags: HW
HStem: -137 10G<15 33> 143 52<194 200> 465 10G<15 33>
VStem: 80 54<-21 43 337 363>
Fore
241 195 m 1
 230 143 l 1
 200 142 178 129 163 102 c 0
 154 87 146 61 138 23 c 0
 125 -36 114 -74 103 -91 c 0
 87 -114 68 -129 44 -134 c 0
 33 -136 20 -137 4 -137 c 2
 -14 -137 l 1
 -3 -87 l 1
 7 -87 l 2
 31 -87 47 -82 56 -72 c 0
 63 -64 70 -47 76 -21 c 0
 86 28 91 54 92 57 c 0
 101 89 113 113 129 131 c 0
 142 148 161 160 182 169 c 1
 152 186 137 210 137 245 c 0
 137 248 137 252 137 255 c 0
 140 276 147 320 160 387 c 1
 160 390 161 393 161 396 c 0
 161 407 157 414 151 419 c 0
 145 423 132 425 115 425 c 2
 105 425 l 1
 116 475 l 1
 134 475 l 2
 170 475 194 467 205 449 c 0
 211 441 214 428 214 409 c 0
 214 390 211 366 204 336 c 0
 196 300 193 271 193 250 c 0
 193 231 195 218 201 211 c 0
 209 201 223 196 241 195 c 1
EndSplineSet
MinimumDistance: x3,-1 
EndChar
StartChar: asciitilde
Encoding: 126 126 95
OldEncoding: 126
Width: 381
VWidth: 2048
Flags: HW
Fore
66 178 m 1
 80 243 l 1
 107 268 140 281 176 281 c 0
 199 281 231 272 270 253 c 0
 292 243 309 238 322 238 c 0
 351 238 381 253 414 282 c 1
 399 214 l 1
 368 190 337 178 304 178 c 0
 281 178 253 187 217 204 c 0
 195 215 175 221 158 221 c 0
 132 221 102 206 66 178 c 1
EndSplineSet
EndChar
StartChar: uni0E10.descless
Encoding: 128 63232 96
OldEncoding: 63232
Width: 346
Flags: HW
HStem: -2 41 349 41
VStem: 138 47 240 47
Fore
389 340 m 1
 389 340 l 0
 388 340 366 330 348 330 c 0
 304 330 283 346 239 346 c 0
 236 346 l 0
 190 346 167 324 167 324 c 2
 168 324 253 319 302 280 c 0
 316 267 325 250 325 228 c 0
 325 222 325 216 323 209 c 2
 292 62 l 2
 284 24 248 -2 205 -2 c 0
 170 -2 147 18 147 47 c 0
 147 50 147 54 148 58 c 2
 159 107 l 1
 159 107 148 103 134 103 c 0
 126 103 117 104 109 108 c 0
 93 115 83 129 83 149 c 0
 83 157 85 167 89 177 c 0
 100 208 130 228 163 228 c 0
 202 228 217 206 217 179 c 0
 217 173 216 167 215 161 c 2
 196 70 l 2
 195 67 195 64 195 61 c 0
 195 49 200 39 217 38 c 0
 239 38 246 56 249 71 c 2
 277 204 l 2
 278 208 278 213 278 217 c 0
 278 247 253 267 213 278 c 0
 162 292 108 297 93 297 c 0
 91 297 90 297 89 297 c 1
 126 346 158 375 220 383 c 0
 228 384 235 384 242 384 c 0
 280 384 302 369 343 366 c 0
 345 366 346 366 348 366 c 0
 366 366 384 375 385 375 c 1
 389 340 l 1
144 135 m 0
 167 135 181 155 181 172 c 0
 181 184 173 195 156 195 c 0
 133 195 119 175 119 159 c 0
 119 146 126 135 144 135 c 0
EndSplineSet
MinimumDistance: x0,-1 
EndChar
StartChar: uni0E34.left
Encoding: 129 63233 97
OldEncoding: 63233
Width: 0
Flags: HW
HStem: 456 39 535 39
VStem: -482 293
Fore
-45 426 m 0
 -45 426 l 0
 -93 448 -123 456 -182 456 c 0
 -186 456 -189 456 -193 456 c 0
 -245 456 -283 449 -337 430 c 1
 -318 511 -248 573 -161 574 c 0
 -160 574 -160 574 -159 574 c 0
 -87 574 -42 524 -42 458 c 0
 -42 448 -43 437 -45 426 c 0
-77 474 m 1
 -87 515 -120 538 -166 538 c 0
 -212 538 -248 517 -275 479 c 1
 -251 485 -229 491 -181 492 c 0
 -175 492 l 0
 -131 492 -101 482 -77 474 c 1
EndSplineSet
EndChar
StartChar: uni0E35.left
Encoding: 130 63234 98
OldEncoding: 63234
Width: 0
Flags: HW
HStem: 456 39 534 39
VStem: -231 45
Fore
-38 425 m 0
 -38 425 l 0
 -89 448 -119 456 -185 456 c 0
 -238 455 -276 448 -330 429 c 1
 -313 511 -235 573 -154 573 c 0
 -81 573 -70 535 -69 535 c 1
 -52 617 l 1
 -7 617 l 1
 -34 490 l 2
 -34 489 -33 480 -33 469 c 0
 -33 460 l 0
 -34 446 -37 428 -38 425 c 0
-70 473 m 1
 -80 514 -112 537 -159 537 c 0
 -205 537 -241 516 -268 478 c 1
 -244 485 -222 490 -174 491 c 0
 -172 491 -170 491 -167 491 c 0
 -123 491 -94 482 -70 473 c 1
EndSplineSet
MinimumDistance: x11,-1 
EndChar
StartChar: uni0E36.left
Encoding: 131 63235 99
OldEncoding: 63235
Width: 0
Flags: HW
HStem: 452 39 529 39
VStem: -430 293
Fore
-20 552 m 0
 -20 552 l 0
 -28 538 -41 527 -56 521 c 1
 -49 507 -45 501 -43 479 c 0
 -43 470 l 0
 -43 445 -46 434 -49 421 c 1
 -99 444 -129 452 -196 452 c 0
 -248 451 -286 444 -340 425 c 1
 -329 478 -296 523 -252 547 c 0
 -216 567 -184 571 -162 571 c 0
 -144 571 -132 568 -130 568 c 1
 -130 570 -130 571 -130 573 c 0
 -130 581 -129 592 -116 608 c 0
 -101 627 -78 634 -59 634 c 0
 -46 634 -35 631 -28 626 c 0
 -15 617 -8 604 -8 589 c 0
 -8 577 -12 564 -20 552 c 0
-76 546 m 0
 -76 546 l 0
 -53 546 -39 566 -39 583 c 0
 -39 595 -47 606 -63 606 c 0
 -86 606 -100 586 -100 569 c 0
 -100 557 -93 546 -76 546 c 0
-80 469 m 1
 -89 511 -122 534 -168 534 c 0
 -214 534 -251 512 -278 474 c 1
 -254 481 -232 486 -184 487 c 0
 -178 487 l 0
 -134 487 -103 478 -80 469 c 1
EndSplineSet
MinimumDistance: x17,-1 
EndChar
StartChar: uni0E37.left
Encoding: 132 63236 100
OldEncoding: 63236
Width: 0
Flags: HW
HStem: 457 39 538 29
VStem: -261 45 -183 45
Fore
-34 426 m 0
 -34 426 l 0
 -86 449 -116 457 -182 457 c 0
 -235 456 -273 449 -327 430 c 1
 -323 452 -308 506 -259 543 c 0
 -221 571 -177 578 -152 578 c 0
 -146 578 -142 578 -138 577 c 1
 -129 621 l 1
 -86 621 l 1
 -97 568 l 1
 -96 568 -86 564 -80 560 c 0
 -74 555 -67 545 -67 545 c 1
 -51 621 l 1
 -8 621 l 1
 -36 490 l 2
 -36 488 -32 471 -32 459 c 0
 -32 445 -34 430 -34 426 c 0
-67 474 m 1
 -77 515 -109 538 -156 538 c 0
 -202 538 -238 517 -265 479 c 1
 -241 485 -219 491 -170 492 c 0
 -164 492 l 0
 -120 492 -90 483 -67 474 c 1
EndSplineSet
MinimumDistance: x12,-1 
EndChar
StartChar: ellipsis
Encoding: 133 8230 101
OldEncoding: 8230
Width: 372
VWidth: 2048
Flags: HW
VStem: 36 76<38 40> 158 76<38 40> 281 76<38 40>
Fore
319 0 m 0
 299 0 289 11 289 32 c 0
 289 38 l 1
 295 64 309 77 335 77 c 0
 356 77 367 68 367 51 c 0
 367 47 366 43 365 38 c 0
 360 13 344 0 319 0 c 0
196 0 m 0
 176 0 166 11 166 32 c 0
 166 38 l 1
 172 64 187 77 212 77 c 0
 233 77 244 68 244 51 c 0
 244 47 243 43 242 38 c 0
 237 13 221 0 196 0 c 0
74 0 m 0
 54 0 44 11 44 32 c 0
 44 38 l 1
 50 64 65 77 90 77 c 0
 111 77 122 68 122 51 c 0
 122 47 121 43 120 38 c 0
 115 13 99 0 74 0 c 0
EndSplineSet
MinimumDistance: x5,-1 
EndChar
StartChar: uni0E48.low_left
Encoding: 134 63237 102
OldEncoding: 63237
Width: 0
Flags: HW
HStem: 434 119
VStem: -206 45<434 579>
Fore
-69 434 m 1
 -114 434 l 1
 -83 579 l 1
 -38 579 l 1
 -69 434 l 1
EndSplineSet
MinimumDistance: x0,-1 
EndChar
StartChar: uni0E49.low_left
Encoding: 135 63238 103
OldEncoding: 63238
Width: 0
Flags: HW
Fore
-10 519 m 1
 -10 519 l 0
 -33 494 -56 474 -105 454 c 0
 -139 440 -169 435 -194 435 c 0
 -207 435 -218 436 -229 438 c 1
 -219 443 -209 452 -201 461 c 0
 -195 468 -185 478 -184 483 c 1
 -188 483 -191 482 -194 482 c 0
 -212 482 -222 489 -231 500 c 0
 -235 505 -237 512 -237 520 c 0
 -237 547 -216 582 -179 587 c 0
 -174 588 -170 588 -166 588 c 0
 -134 588 -124 566 -124 545 c 0
 -124 542 -124 540 -124 537 c 0
 -128 501 -159 468 -161 468 c 0
 -130 474 -110 483 -83 501 c 0
 -45 524 -25 543 3 581 c 1
 -10 519 l 1
-186 507 m 0
 -165 507 -153 525 -153 541 c 0
 -153 552 -160 562 -175 562 c 0
 -196 562 -209 544 -209 529 c 0
 -209 517 -202 507 -186 507 c 0
EndSplineSet
MinimumDistance: x13,-1 
EndChar
StartChar: uni0E4A.low_left
Encoding: 136 63239 104
OldEncoding: 63239
Width: 0
Flags: HW
HStem: 496 16
Fore
1 544 m 1
 1 544 l 0
 -8 519 -22 500 -41 481 c 0
 -74 449 -109 436 -148 436 c 0
 -160 436 l 1
 -151 441 -128 464 -118 494 c 0
 -116 502 -114 510 -114 518 c 0
 -114 532 -119 544 -133 546 c 0
 -135 546 -137 546 -138 546 c 0
 -156 546 -171 534 -176 529 c 1
 -177 533 -191 545 -207 545 c 0
 -210 545 -212 545 -215 544 c 0
 -234 539 -247 523 -250 504 c 1
 -239 511 -233 514 -217 514 c 0
 -198 514 -187 500 -187 483 c 0
 -187 480 -187 476 -188 473 c 0
 -194 451 -215 433 -241 433 c 0
 -242 433 -242 433 -243 433 c 0
 -269 434 -284 455 -284 483 c 0
 -284 496 -280 511 -274 526 c 0
 -263 552 -241 574 -211 577 c 0
 -208 577 l 0
 -191 577 -177 568 -172 552 c 1
 -158 568 -139 577 -120 577 c 0
 -95 577 -78 557 -78 532 c 0
 -78 530 -79 527 -79 524 c 0
 -82 490 -104 465 -107 462 c 1
 -83 473 -66 487 -52 507 c 0
 -36 529 -26 563 -24 572 c 1
 1 544 l 1
-233 454 m 0
 -218 454 -209 467 -209 478 c 0
 -209 487 -214 494 -225 494 c 0
 -240 494 -249 481 -249 470 c 0
 -249 461 -244 454 -233 454 c 0
EndSplineSet
MinimumDistance: x17,-1 
EndChar
StartChar: uni0E4B.low_left
Encoding: 137 63240 105
OldEncoding: 63240
Width: 0
Flags: HW
HStem: 491 39
VStem: -286 45
Fore
-35 491 m 1
 -88 491 l 1
 -100 435 l 1
 -146 435 l 1
 -134 491 l 1
 -188 491 l 1
 -178 534 l 1
 -124 534 l 1
 -112 593 l 1
 -66 593 l 1
 -78 534 l 1
 -25 534 l 1
 -35 491 l 1
EndSplineSet
MinimumDistance: x0,-1 y5,3 y5,4 y11,9 y11,10 x8,6 x8,7 x11,1 x11,0 
EndChar
StartChar: uni0E4C.low_left
Encoding: 138 63241 106
OldEncoding: 63241
Width: 0
Flags: HW
HStem: 436 29 515 29
Fore
44 634 m 1
 44 634 l 0
 40 626 35 598 -2 580 c 0
 -46 558 -93 572 -131 555 c 0
 -151 546 -155 530 -157 528 c 1
 -146 535 -139 539 -121 539 c 0
 -98 539 -81 523 -81 500 c 0
 -81 496 -81 493 -82 489 c 0
 -89 456 -117 437 -146 436 c 0
 -149 436 l 0
 -183 436 -201 461 -201 492 c 0
 -201 504 -198 517 -192 530 c 0
 -168 581 -125 595 -59 595 c 0
 -7 595 -5 632 -1 634 c 1
 44 634 l 1
-142 461 m 0
 -122 461 -109 478 -109 493 c 0
 -109 505 -116 515 -132 515 c 0
 -152 515 -164 497 -164 482 c 0
 -164 471 -157 461 -142 461 c 0
EndSplineSet
MinimumDistance: x0,-1 
EndChar
StartChar: uni0E48.low
Encoding: 139 63242 107
OldEncoding: 63242
Width: 0
Flags: HW
HStem: 434 119
VStem: -158 45
Fore
14 434 m 1
 -31 434 l 1
 0 579 l 1
 45 579 l 1
 14 434 l 1
EndSplineSet
MinimumDistance: x0,-1 
EndChar
StartChar: uni0E49.low
Encoding: 140 63243 108
OldEncoding: 63243
Width: 0
Flags: HW
Fore
116 535 m 0
 116 535 l 0
 112 526 63 479 7 461 c 0
 -21 452 -50 447 -75 447 c 0
 -101 447 -123 452 -140 460 c 1
 -129 466 -134 463 -106 484 c 0
 -97 491 -75 516 -74 521 c 1
 -77 521 -81 520 -84 520 c 0
 -101 520 -114 527 -123 540 c 0
 -128 546 -130 555 -130 564 c 0
 -130 593 -109 629 -67 635 c 0
 -62 636 -57 636 -53 636 c 0
 -17 636 -7 612 -7 589 c 0
 -7 580 l 0
 -11 541 -45 502 -61 484 c 1
 -2 489 35 512 50 523 c 0
 64 533 99 555 130 604 c 1
 124 575 119 549 116 535 c 0
-74 548 m 0
 -51 548 -37 568 -37 585 c 0
 -37 597 -45 608 -61 608 c 0
 -84 608 -98 588 -98 571 c 0
 -98 559 -91 548 -74 548 c 0
EndSplineSet
MinimumDistance: x14,-1 
EndChar
StartChar: uni0E4A.low
Encoding: 141 63244 109
OldEncoding: 63244
Width: 0
Flags: HW
HStem: 493 16
Fore
131 542 m 1
 131 542 l 0
 122 517 108 499 89 480 c 0
 56 448 21 434 -19 434 c 0
 -31 434 l 1
 -22 439 2 462 12 492 c 0
 14 500 15 508 15 516 c 0
 15 530 11 542 -3 544 c 0
 -9 544 l 0
 -26 544 -42 533 -46 528 c 1
 -47 532 -62 543 -78 543 c 0
 -80 543 -83 543 -86 542 c 0
 -105 537 -117 521 -120 503 c 1
 -110 509 -102 512 -87 512 c 0
 -68 512 -57 499 -57 482 c 0
 -57 479 -58 475 -59 471 c 0
 -65 449 -86 431 -111 431 c 0
 -112 431 -112 431 -113 431 c 0
 -140 433 -154 454 -154 482 c 0
 -154 495 -151 509 -145 524 c 0
 -133 551 -111 572 -82 575 c 0
 -80 575 -79 575 -77 575 c 0
 -60 575 -47 566 -42 551 c 1
 -29 566 -10 575 10 575 c 0
 36 575 52 555 52 527 c 0
 52 525 52 524 52 522 c 0
 48 488 25 463 23 460 c 1
 46 471 63 485 78 506 c 0
 94 528 103 561 105 570 c 1
 131 542 l 1
-96 491 m 0
 -111 491 -121 478 -121 467 c 0
 -121 459 -116 452 -105 452 c 0
 -90 452 -80 465 -80 476 c 0
 -80 484 -85 491 -96 491 c 0
EndSplineSet
MinimumDistance: x17,-1 
EndChar
StartChar: uni0E4B.low
Encoding: 142 63245 110
OldEncoding: 63245
Width: 0
Flags: HW
HStem: 504 41
VStem: -151 47
Fore
89 527 m 1
 80 487 l 1
 28 488 l 1
 25 475 17 437 17 436 c 0
 17 436 l 0
 17 436 l 1
 -24 436 l 1
 -13 488 l 1
 -66 487 l 1
 -57 526 l 1
 -4 527 l 1
 8 582 l 1
 48 582 l 1
 37 527 l 1
 89 527 l 1
EndSplineSet
MinimumDistance: x12,-1 
EndChar
StartChar: uni0E4C.low
Encoding: 143 63246 111
OldEncoding: 63246
Width: 0
Flags: HW
HStem: 435 29 523 29
Fore
181 656 m 1
 181 656 l 0
 178 647 172 617 132 596 c 0
 83 571 32 588 -12 568 c 0
 -33 558 -39 541 -41 538 c 1
 -28 546 -22 550 -1 550 c 0
 24 550 43 533 43 507 c 0
 43 503 43 498 42 494 c 0
 35 459 3 437 -29 435 c 0
 -32 435 l 0
 -69 435 -91 463 -91 497 c 0
 -91 511 -87 526 -80 540 c 0
 -52 597 -5 612 68 613 c 0
 127 614 129 654 132 656 c 1
 181 656 l 1
-24 463 m 0
 -23 463 l 0
 -1 463 12 483 12 499 c 0
 12 512 5 523 -12 523 c 0
 -35 523 -48 504 -48 487 c 0
 -48 475 -41 463 -24 463 c 0
EndSplineSet
MinimumDistance: x0,-1 
EndChar
StartChar: uni0E0D.descless
Encoding: 144 63247 112
OldEncoding: 63247
Width: 522
Flags: HW
HStem: 0 41 361 41
VStem: 74 47 286 47 443 47
Fore
469 72 m 1
 469 72 l 0
 466 56 465 42 454 28 c 0
 440 11 421 0 401 0 c 2
 230 0 l 1
 239 43 l 1
 267 43 l 1
 320 290 l 2
 321 295 321 299 321 303 c 0
 321 332 297 346 244 347 c 0
 242 347 239 347 237 347 c 0
 185 347 154 327 154 327 c 2
 156 327 180 315 194 304 c 0
 210 292 225 276 225 276 c 1
 222 276 194 271 173 252 c 0
 157 239 146 221 142 201 c 2
 125 120 l 1
 125 120 136 124 150 124 c 0
 158 124 166 123 174 119 c 0
 190 112 200 97 200 77 c 0
 200 69 198 60 195 50 c 0
 183 19 153 -1 120 -1 c 0
 81 -1 66 21 66 48 c 0
 66 54 67 60 68 66 c 2
 99 210 l 2
 101 222 109 238 122 254 c 0
 133 269 151 278 151 278 c 1
 151 278 137 294 117 302 c 0
 99 310 89 315 72 318 c 1
 88 335 157 383 250 387 c 0
 254 387 257 387 261 387 c 0
 335 387 367 353 367 311 c 0
 367 305 366 298 365 292 c 2
 312 43 l 1
 394 43 l 2
 402 43 409 45 415 52 c 0
 423 59 423 66 425 74 c 2
 491 385 l 1
 536 385 l 1
 469 72 l 1
130 31 m 0
 153 31 167 51 167 68 c 0
 167 80 159 91 142 91 c 0
 119 91 105 71 105 55 c 0
 105 42 112 31 130 31 c 0
EndSplineSet
MinimumDistance: x4,-1 y9,5 y9,6 x0,6 x0,5 
EndChar
StartChar: quoteleft
Encoding: 145 8216 113
OldEncoding: 8216
Width: 175
Flags: HW
Fore
204 443 m 1
 195 441 180 433 164 418 c 0
 151 405 145 386 145 384 c 1
 149 385 153 386 157 386 c 0
 169 386 179 381 186 373 c 0
 191 368 193 360 193 351 c 0
 193 330 179 305 158 296 c 0
 148 293 139 291 132 291 c 0
 111 291 98 302 95 315 c 0
 93 320 93 326 93 332 c 0
 93 364 113 408 141 434 c 0
 161 452 184 464 210 469 c 1
 204 443 l 1
EndSplineSet
EndChar
StartChar: quoteright
Encoding: 146 8217 114
OldEncoding: 8217
Width: 182
Flags: HW
Fore
229 451 m 0
 230 447 231 442 231 436 c 0
 231 404 209 359 181 332 c 0
 160 314 138 302 112 297 c 1
 118 323 l 1
 127 325 142 333 158 348 c 0
 171 361 177 380 177 382 c 1
 173 381 168 380 164 380 c 0
 153 380 143 385 136 393 c 0
 131 399 129 407 129 416 c 0
 129 437 142 462 164 470 c 0
 174 474 183 475 191 475 c 0
 212 475 225 463 229 451 c 0
EndSplineSet
EndChar
StartChar: quotedblleft
Encoding: 147 8220 115
OldEncoding: 8220
Width: 316
Flags: HW
Fore
365 441 m 1
 365 441 l 0
 356 439 341 431 325 416 c 0
 312 403 306 384 305 382 c 1
 310 383 314 384 318 384 c 0
 330 384 340 379 348 372 c 1
 353 367 355 359 355 350 c 0
 355 329 341 303 320 295 c 0
 309 291 300 289 292 289 c 0
 271 289 258 301 255 313 c 0
 253 318 252 324 252 330 c 0
 252 363 275 406 303 432 c 0
 323 451 344 462 370 467 c 1
 365 441 l 1
215 443 m 1
 207 441 191 433 176 418 c 0
 162 405 156 386 156 384 c 1
 160 385 164 386 168 386 c 0
 180 386 190 381 197 373 c 0
 202 367 205 359 205 351 c 0
 205 330 191 304 170 296 c 0
 160 293 151 291 143 291 c 0
 122 291 110 302 106 315 c 0
 105 320 104 325 104 330 c 0
 104 362 125 408 153 434 c 0
 173 452 195 464 221 469 c 1
 215 443 l 1
EndSplineSet
EndChar
StartChar: quotedblright
Encoding: 148 8221 116
OldEncoding: 8221
Width: 347
Flags: HW
Fore
383 449 m 0
 383 449 l 0
 385 444 385 438 385 432 c 0
 385 400 365 356 337 330 c 0
 316 312 295 300 269 295 c 1
 274 321 l 1
 284 323 298 331 315 346 c 0
 327 359 333 378 334 380 c 1
 330 379 325 378 321 378 c 0
 310 378 299 383 292 391 c 0
 287 397 284 405 284 414 c 0
 284 435 298 460 319 468 c 0
 329 472 338 473 346 473 c 0
 367 473 379 461 383 449 c 0
236 451 m 0
 237 447 238 442 238 436 c 0
 238 404 216 359 187 332 c 0
 167 314 145 302 119 297 c 1
 125 323 l 1
 133 325 149 333 164 348 c 0
 178 361 184 380 184 382 c 1
 180 381 175 380 171 380 c 0
 160 380 150 385 143 393 c 0
 138 399 135 407 135 416 c 0
 135 437 148 462 170 470 c 0
 180 474 189 475 197 475 c 0
 219 475 232 463 236 451 c 0
EndSplineSet
EndChar
StartChar: bullet
Encoding: 149 8226 117
OldEncoding: 8226
Width: 345
Flags: HW
Fore
191 64 m 0
 130 64 103 103 103 148 c 0
 103 210 153 283 237 283 c 0
 298 283 325 244 325 199 c 0
 325 137 275 64 191 64 c 0
EndSplineSet
EndChar
StartChar: endash
Encoding: 150 8211 118
OldEncoding: 8211
Width: 358
Flags: HW
HStem: 175 39
VStem: 41 314
Fore
377 168 m 1
 63 168 l 1
 72 213 l 1
 386 213 l 1
 377 168 l 1
EndSplineSet
EndChar
StartChar: emdash
Encoding: 151 8212 119
OldEncoding: 8212
Width: 463
Flags: HW
HStem: 182 41
Fore
481 168 m 1
 63 168 l 1
 72 213 l 1
 490 213 l 1
 481 168 l 1
EndSplineSet
EndChar
StartChar: uni0E31.left
Encoding: 152 63248 120
OldEncoding: 63248
Width: 0
Flags: HW
Fore
97 518 m 1
 97 518 l 0
 72 499 25 474 -22 463 c 0
 -47 457 -76 453 -102 453 c 0
 -149 453 -190 466 -199 507 c 0
 -200 510 -200 514 -200 518 c 0
 -200 549 -175 593 -129 598 c 0
 -126 598 -123 598 -121 598 c 0
 -88 598 -70 577 -70 550 c 0
 -70 543 -71 536 -74 528 c 0
 -83 503 -90 501 -97 494 c 1
 -92 494 -86 494 -81 494 c 0
 -59 494 -36 496 -1 510 c 0
 56 533 105 580 112 588 c 1
 97 518 l 1
-125 568 m 0
 -150 568 -166 546 -166 529 c 0
 -166 516 -158 505 -140 505 c 0
 -115 505 -100 527 -100 545 c 0
 -100 557 -108 568 -125 568 c 0
EndSplineSet
MinimumDistance: x6,-1 
EndChar
StartChar: uni0E4D.left
Encoding: 153 63249 121
OldEncoding: 63249
Width: 0
Flags: HW
Fore
-125 426 m 0
 -125 426 l 0
 -162 426 -179 450 -179 478 c 0
 -179 515 -148 560 -97 560 c 0
 -59 560 -43 536 -43 508 c 0
 -43 471 -74 426 -125 426 c 0
-119 457 m 0
 -91 457 -74 481 -74 501 c 0
 -74 516 -83 529 -104 529 c 0
 -132 529 -148 505 -148 485 c 0
 -148 470 -139 457 -119 457 c 0
EndSplineSet
EndChar
StartChar: uni0E47.left
Encoding: 154 63250 122
OldEncoding: 63250
Width: 0
Flags: HW
VStem: -248 50
Fore
8 633 m 1
 8 633 l 0
 7 632 -7 569 -83 561 c 0
 -86 561 -90 561 -93 561 c 0
 -116 561 -138 566 -160 568 c 0
 -165 569 -170 569 -175 569 c 0
 -194 569 -210 564 -226 548 c 0
 -236 536 -240 524 -240 512 c 0
 -240 510 -240 507 -240 505 c 1
 -240 499 l 1
 -228 512 -216 521 -198 524 c 0
 -193 525 -189 525 -185 525 c 0
 -155 525 -133 506 -125 496 c 1
 -112 516 -93 525 -76 525 c 0
 -56 525 -40 513 -40 491 c 0
 -40 486 -41 480 -43 474 c 0
 -51 451 -72 434 -98 434 c 0
 -102 434 -105 434 -109 435 c 0
 -147 441 -157 486 -191 486 c 0
 -195 486 -199 485 -204 484 c 0
 -223 478 -234 457 -239 435 c 2
 -240 430 l 1
 -268 442 -285 462 -285 493 c 0
 -285 497 -284 500 -284 504 c 0
 -279 552 -245 589 -209 598 c 0
 -191 603 -176 604 -164 604 c 0
 -156 604 -149 604 -143 603 c 0
 -125 601 -111 597 -91 597 c 0
 -51 598 -40 633 -40 633 c 1
 -40 637 l 1
 8 637 l 1
 8 633 l 1
-69 480 m 0
 -69 481 -69 483 -69 484 c 0
 -69 492 -73 498 -83 498 c 0
 -94 498 -102 489 -104 480 c 0
 -104 478 -104 477 -104 475 c 0
 -104 468 -100 462 -91 462 c 0
 -79 462 -71 470 -69 480 c 0
EndSplineSet
MinimumDistance: x27,-1 
EndChar
StartChar: uni0E48.left
Encoding: 155 63251 123
OldEncoding: 63251
Width: 0
Flags: HW
HStem: 651 119
VStem: -185 45<651 765>
Fore
-2 651 m 1
 -47 651 l 1
 -22 765 l 1
 23 765 l 1
 -2 651 l 1
EndSplineSet
MinimumDistance: x0,-1 
EndChar
StartChar: uni0E49.left
Encoding: 156 63252 124
OldEncoding: 63252
Width: 0
Flags: HW
Fore
98 726 m 1
 98 726 l 0
 76 702 55 682 7 663 c 0
 -26 650 -54 645 -79 645 c 0
 -92 645 -103 646 -114 648 c 1
 -104 654 -96 661 -88 669 c 0
 -81 677 -74 688 -72 692 c 1
 -75 692 -78 691 -81 691 c 0
 -96 691 -107 698 -115 709 c 0
 -119 714 -121 722 -121 729 c 0
 -121 754 -101 786 -65 791 c 0
 -61 791 -58 792 -54 792 c 0
 -21 792 -12 771 -12 750 c 0
 -12 744 l 0
 -16 710 -45 679 -47 678 c 0
 -18 684 6 695 30 711 c 0
 67 734 98 766 111 786 c 1
 98 726 l 1
-70 716 m 0
 -50 716 -40 732 -40 747 c 0
 -40 758 -46 767 -58 767 c 0
 -59 767 -59 767 -60 767 c 0
 -79 765 -91 748 -91 735 c 0
 -91 725 -85 716 -70 716 c 0
EndSplineSet
MinimumDistance: x14,-1 
EndChar
StartChar: uni0E4A.left
Encoding: 157 63253 125
OldEncoding: 63253
Width: 0
Flags: HW
HStem: 701 16
Fore
150 747 m 1
 150 747 l 0
 141 723 128 705 109 687 c 0
 77 656 43 643 5 643 c 0
 -7 643 l 1
 2 647 24 670 34 699 c 0
 36 706 38 714 38 722 c 0
 38 735 33 747 19 749 c 0
 17 749 15 749 14 749 c 0
 -3 749 -18 738 -21 733 c 1
 -23 737 -37 748 -52 748 c 0
 -55 748 -57 748 -60 747 c 0
 -79 743 -91 727 -94 709 c 1
 -84 715 -77 718 -62 718 c 0
 -43 718 -32 705 -32 689 c 0
 -32 686 -33 682 -34 678 c 0
 -40 657 -59 640 -83 640 c 0
 -84 640 -86 640 -87 640 c 0
 -113 641 -127 662 -127 689 c 0
 -127 701 -124 715 -118 729 c 0
 -106 756 -85 776 -56 779 c 0
 -54 779 -53 779 -51 779 c 0
 -36 779 -23 770 -17 756 c 1
 -5 771 14 779 32 779 c 0
 58 779 73 760 73 735 c 0
 73 733 73 730 73 728 c 0
 69 695 48 671 45 668 c 1
 67 678 84 692 98 712 c 0
 114 733 123 766 125 774 c 1
 150 747 l 1
-69 699 m 0
 -84 699 -93 686 -93 675 c 0
 -93 667 -89 661 -78 661 c 0
 -64 661 -54 674 -54 685 c 0
 -54 693 -59 699 -69 699 c 0
EndSplineSet
MinimumDistance: x25,-1 
EndChar
StartChar: uni0E4B.left
Encoding: 158 63254 126
OldEncoding: 63254
Width: 0
Flags: HW
HStem: 687 38
VStem: -184 44
Fore
59 687 m 1
 7 687 l 1
 -3 638 l 1
 -47 638 l 1
 -37 687 l 1
 -90 687 l 1
 -81 728 l 1
 -28 728 l 1
 -17 780 l 1
 27 780 l 1
 16 728 l 1
 68 728 l 1
 59 687 l 1
EndSplineSet
MinimumDistance: x10,-1 y8,6 y8,7 y11,1 y11,0 x5,3 x5,4 x11,9 x11,10 
EndChar
StartChar: uni0E4C.left
Encoding: 159 63255 127
OldEncoding: 63255
Width: 0
Flags: HW
HStem: 600 29 672 29
Fore
100 779 m 1
 100 779 l 0
 97 773 92 746 59 730 c 0
 20 711 -23 723 -58 708 c 0
 -73 701 -79 686 -81 684 c 1
 -70 690 -65 694 -48 694 c 0
 -26 694 -12 680 -12 658 c 0
 -12 655 -12 651 -13 648 c 0
 -19 619 -44 601 -70 600 c 0
 -102 600 -120 624 -120 653 c 0
 -120 664 -117 675 -112 686 c 0
 -91 730 -52 745 8 745 c 0
 55 745 57 778 60 779 c 2
 100 779 l 1
-67 623 m 0
 -49 623 -37 639 -37 653 c 0
 -37 663 -43 672 -57 672 c 0
 -75 672 -87 656 -87 642 c 0
 -87 632 -81 623 -67 623 c 0
EndSplineSet
MinimumDistance: x15,-1 
EndChar
StartChar: uni0E01
Encoding: 161 3585 129
OldEncoding: 3585
Width: 409
Flags: HW
HStem: 0 41 361 41
VStem: 78 47 316 47
Fore
339 0 m 1
 294 0 l 1
 352 273 l 2
 353 280 354 286 354 291 c 0
 354 331 320 347 270 347 c 0
 269 347 267 347 266 347 c 0
 210 347 172 325 172 325 c 2
 174 325 191 315 205 304 c 0
 218 294 236 276 236 276 c 1
 233 276 205 271 184 252 c 0
 168 239 157 221 153 201 c 2
 110 0 l 1
 65 0 l 5
 110 210 l 2
 112 222 120 238 133 254 c 0
 144 269 162 278 162 278 c 1
 162 278 148 294 128 302 c 0
 110 310 100 315 83 318 c 1
 99 334 183 387 272 387 c 0
 351 387 400 355 400 300 c 0
 400 292 399 284 397 275 c 2
 339 0 l 1
EndSplineSet
MinimumDistance: x0,-1 
EndChar
StartChar: uni0E02
Encoding: 162 3586 130
OldEncoding: 3586
Width: 423
Flags: HW
HStem: 0 41 348 53
VStem: 160 47 299 47
Fore
362 77 m 1
 362 77 l 0
 360 64 356 45 342 30 c 0
 325 10 302 0 277 0 c 2
 119 0 l 1
 128 43 l 1
 176 43 l 1
 206 185 l 2
 209 199 211 208 218 222 c 0
 233 250 261 271 261 310 c 0
 261 311 l 0
 261 338 234 350 208 350 c 0
 202 350 196 349 191 348 c 1
 207 340 215 331 215 305 c 0
 214 279 193 235 141 231 c 0
 138 231 136 231 133 231 c 0
 99 231 82 251 82 280 c 0
 82 285 82 290 83 295 c 0
 91 344 139 383 194 386 c 0
 199 386 204 386 208 386 c 0
 272 386 299 360 306 324 c 0
 306 321 307 317 307 314 c 0
 307 287 294 261 277 239 c 0
 266 224 256 204 254 194 c 2
 222 43 l 1
 276 43 l 2
 287 43 298 46 305 54 c 0
 312 60 316 69 318 78 c 2
 383 385 l 1
 428 385 l 1
 362 77 l 1
155 326 m 0
 132 326 117 305 117 288 c 0
 117 276 125 265 142 265 c 0
 165 265 180 286 180 303 c 0
 180 315 172 326 155 326 c 0
EndSplineSet
MinimumDistance: x5,-1 y9,6 y9,7 x8,12 x8,9 
EndChar
StartChar: uni0E03
Encoding: 163 3587 131
OldEncoding: 3587
Width: 442
Flags: HW
HStem: -4 41
VStem: 196 47 323 47
Fore
386 73 m 1
 386 73 l 0
 383 61 378 41 365 26 c 0
 348 7 324 -4 299 -4 c 2
 155 -4 l 1
 164 39 l 1
 210 39 l 1
 260 273 l 2
 260 275 293 295 294 308 c 0
 294 311 l 0
 294 326 274 341 273 341 c 2
 220 317 l 1
 181 341 l 1
 169 336 159 330 151 320 c 0
 140 307 132 295 130 285 c 1
 140 290 149 291 158 291 c 0
 167 291 176 290 184 287 c 0
 201 281 210 264 210 245 c 0
 210 229 205 212 194 198 c 0
 179 178 156 169 135 169 c 0
 113 169 93 178 84 197 c 0
 80 206 77 217 77 229 c 0
 77 258 89 293 109 321 c 0
 130 351 150 369 182 383 c 1
 228 353 l 1
 287 383 l 1
 301 374 312 364 321 350 c 1
 334 334 341 319 341 318 c 2
 336 296 l 2
 336 295 326 286 322 282 c 0
 316 276 311 272 304 268 c 1
 255 39 l 1
 299 39 l 2
 309 39 321 42 329 50 c 0
 334 56 338 65 340 74 c 2
 405 381 l 1
 451 381 l 1
 386 73 l 1
141 198 m 0
 165 198 180 219 180 237 c 0
 180 250 172 261 154 261 c 0
 130 261 116 240 116 222 c 0
 116 209 124 198 141 198 c 0
EndSplineSet
MinimumDistance: x6,-1 x5,7 x5,6 
EndChar
StartChar: uni0E04
Encoding: 164 3588 132
OldEncoding: 3588
Width: 400
Flags: HW
HStem: 0 41 244 41 361 41
VStem: 54 47 119 47 329 47
Fore
327 0 m 1
 282 0 l 1
 337 257 l 2
 338 264 339 271 339 278 c 0
 339 320 309 347 249 347 c 0
 246 347 l 0
 165 347 125 293 112 249 c 0
 108 236 107 223 107 212 c 0
 107 185 116 166 117 165 c 1
 126 207 l 2
 131 230 156 274 204 274 c 0
 237 274 257 256 257 227 c 0
 257 226 257 224 257 223 c 0
 255 190 235 165 208 154 c 0
 198 150 189 149 181 149 c 0
 167 149 158 153 158 153 c 1
 125 0 l 1
 80 0 l 1
 94 64 l 2
 95 69 95 74 95 78 c 0
 95 84 95 89 93 95 c 0
 87 122 66 166 66 214 c 0
 66 226 67 238 70 250 c 0
 89 324 155 384 258 387 c 0
 260 387 263 387 265 387 c 0
 343 387 385 347 385 288 c 0
 385 279 384 269 382 259 c 2
 327 0 l 1
185 181 m 0
 208 181 222 201 222 219 c 0
 222 231 215 242 198 242 c 0
 175 242 161 222 161 204 c 0
 161 192 168 181 185 181 c 0
EndSplineSet
MinimumDistance: x6,-1 
EndChar
StartChar: uni0E05
Encoding: 165 3589 133
OldEncoding: 3589
Width: 386
Flags: HW
HStem: 0 39 151 29<147 159>
VStem: 299 45
Fore
310 0 m 1
 265 0 l 1
 322 267 l 2
 325 280 326 289 326 297 c 0
 326 304 325 311 322 319 c 0
 315 334 310 340 298 346 c 1
 237 308 l 1
 192 349 l 1
 158 332 120 310 99 247 c 0
 95 236 94 224 94 211 c 0
 94 173 107 132 108 130 c 1
 108 130 l 0
 108 138 124 240 181 268 c 0
 195 275 209 278 220 278 c 0
 251 278 271 259 272 232 c 0
 272 231 272 229 272 228 c 0
 272 189 246 152 191 151 c 0
 167 151 154 162 154 162 c 1
 143 131 141 125 129 78 c 0
 120 48 118 29 113 0 c 1
 66 0 l 1
 67 10 69 21 69 43 c 0
 69 50 69 59 68 70 c 0
 64 107 51 142 51 188 c 0
 51 207 53 228 60 251 c 0
 81 324 139 363 209 387 c 1
 246 353 l 1
 302 387 l 1
 323 382 343 371 357 349 c 0
 366 336 371 321 371 302 c 0
 371 292 370 282 367 270 c 2
 310 0 l 1
201 180 m 0
 226 180 242 202 242 221 c 0
 242 234 234 246 215 246 c 0
 189 246 173 224 173 206 c 0
 173 192 182 180 201 180 c 0
EndSplineSet
MinimumDistance: x6,-1 
EndChar
StartChar: uni0E06
Encoding: 166 3590 134
OldEncoding: 3590
Width: 503
Flags: HW
HStem: -2 20 128 41
VStem: 203 47 395 47
Fore
448 89 m 1
 448 89 l 0
 441 58 435 27 406 11 c 0
 393 3 380 -0 368 -0 c 0
 350 -0 334 8 321 23 c 2
 256 102 l 1
 245 54 l 2
 239 24 208 -2 177 -2 c 0
 138 -2 120 24 120 57 c 0
 120 77 127 101 142 122 c 0
 161 150 192 164 223 164 c 1
 247 277 l 2
 247 279 280 298 282 312 c 0
 282 315 l 0
 282 330 262 345 261 345 c 2
 208 321 l 1
 169 345 l 1
 157 340 147 334 139 323 c 0
 128 311 119 298 117 289 c 1
 127 293 138 295 147 295 c 0
 156 295 164 293 172 291 c 0
 189 285 198 268 198 249 c 0
 198 233 193 216 182 202 c 0
 167 182 144 173 123 173 c 0
 101 173 81 182 72 201 c 0
 68 210 65 221 65 233 c 0
 65 262 77 297 97 325 c 0
 117 355 138 372 170 387 c 1
 216 357 l 1
 275 387 l 1
 289 378 300 368 309 354 c 1
 322 338 328 322 328 321 c 2
 324 300 l 2
 324 299 314 290 310 286 c 0
 304 280 297 275 292 271 c 1
 267 155 l 1
 336 77 l 2
 349 64 357 44 375 44 c 0
 392 45 398 65 401 81 c 2
 466 385 l 1
 511 385 l 1
 448 89 l 1
129 202 m 0
 129 202 l 0
 153 202 168 223 168 241 c 0
 168 254 160 265 142 265 c 0
 118 265 104 244 104 226 c 0
 104 213 112 202 129 202 c 0
201 62 m 2
 214 123 l 1
 200 123 186 122 175 107 c 0
 166 95 160 76 160 61 c 0
 160 47 165 36 176 36 c 0
 179 36 l 0
 191 38 197 41 201 62 c 2
EndSplineSet
MinimumDistance: x14,-1 
EndChar
StartChar: uni0E07
Encoding: 167 3591 135
OldEncoding: 3591
Width: 324
Flags: HW
HStem: -4 20 155 41
VStem: 214 47
Fore
269 78 m 1
 269 78 l 0
 262 49 254 22 227 8 c 0
 213 0 199 -4 186 -4 c 0
 167 -4 151 4 139 21 c 0
 121 48 129 107 101 135 c 0
 87 148 74 148 56 149 c 1
 64 190 l 1
 64 190 66 190 68 190 c 0
 79 190 109 189 130 172 c 0
 175 136 154 38 192 38 c 0
 193 38 193 38 193 38 c 0
 213 39 219 58 222 72 c 2
 264 266 l 1
 264 266 252 262 238 262 c 0
 230 262 222 263 214 267 c 0
 198 274 188 289 188 309 c 0
 188 317 190 326 193 336 c 0
 205 367 235 387 268 387 c 0
 307 387 322 365 322 338 c 0
 322 332 321 326 320 320 c 2
 269 78 l 1
248 294 m 0
 271 294 285 314 285 331 c 0
 285 343 278 354 261 354 c 0
 237 354 223 334 223 317 c 0
 223 305 231 294 248 294 c 0
EndSplineSet
MinimumDistance: x5,-1 
EndChar
StartChar: uni0E08
Encoding: 168 3592 136
OldEncoding: 3592
Width: 360
Flags: HW
HStem: -2 41 361 41
VStem: 161 47 263 47
Fore
303 62 m 1
 303 62 l 0
 295 24 259 -2 216 -2 c 0
 181 -2 158 18 158 46 c 0
 158 50 158 54 159 58 c 2
 177 143 l 1
 177 143 166 139 152 139 c 0
 144 139 136 140 128 144 c 0
 112 152 102 167 102 187 c 0
 102 195 104 204 107 214 c 0
 119 245 149 265 181 265 c 0
 221 265 236 243 236 215 c 0
 236 209 235 203 234 197 c 2
 207 70 l 2
 206 67 206 64 206 61 c 0
 206 49 211 39 228 38 c 0
 250 38 257 56 260 71 c 2
 303 273 l 2
 304 279 305 284 305 290 c 0
 305 326 276 346 229 346 c 0
 223 346 l 0
 174 345 132 324 106 282 c 1
 72 300 l 1
 111 359 166 386 236 387 c 0
 309 387 352 355 352 302 c 0
 352 294 351 286 349 278 c 2
 303 62 l 1
161 171 m 0
 185 171 199 191 199 209 c 0
 199 221 191 232 174 232 c 0
 151 232 137 212 137 194 c 0
 137 182 144 171 161 171 c 0
EndSplineSet
MinimumDistance: x5,-1 
EndChar
StartChar: uni0E09
Encoding: 169 3593 137
OldEncoding: 3593
Width: 389
Flags: HW
HStem: -2 41 123 41 361 41
VStem: 119 47 290 47
Fore
397 53 m 0
 397 53 l 0
 382 12 352 -2 324 -2 c 0
 292 -2 276 16 276 40 c 0
 276 44 276 48 277 52 c 2
 287 99 l 1
 287 99 277 97 241 55 c 0
 211 20 184 -2 155 -2 c 0
 153 -2 150 -2 148 -2 c 0
 119 1 109 17 109 39 c 0
 109 45 110 51 111 58 c 2
 127 134 l 1
 127 134 116 130 102 130 c 0
 94 130 86 131 78 135 c 0
 62 142 52 157 52 177 c 0
 52 185 54 194 57 204 c 0
 69 235 99 255 132 255 c 0
 171 255 186 233 186 206 c 0
 186 200 185 194 184 188 c 2
 160 76 l 2
 159 69 157 61 157 54 c 0
 157 46 159 40 167 40 c 0
 187 40 212 73 237 103 c 0
 268 139 292 148 295 149 c 1
 321 273 l 2
 322 278 323 283 323 288 c 0
 323 325 290 347 244 347 c 0
 241 347 l 0
 191 347 148 329 117 285 c 1
 87 304 l 1
 127 359 183 386 244 387 c 0
 247 387 l 0
 321 387 370 356 370 301 c 0
 370 294 370 287 368 279 c 2
 342 155 l 1
 342 155 342 155 343 155 c 0
 348 155 371 154 389 140 c 0
 401 129 406 114 406 97 c 0
 406 83 403 68 397 53 c 0
362 101 m 0
 362 101 l 0
 358 116 346 118 339 118 c 0
 336 118 333 118 333 118 c 1
 321 62 l 2
 320 58 320 55 320 52 c 0
 320 41 324 37 332 37 c 0
 333 37 333 37 334 37 c 0
 352 37 364 63 364 85 c 0
 364 91 364 96 362 101 c 0
112 162 m 0
 135 162 149 182 149 199 c 0
 149 211 142 222 125 222 c 0
 101 222 87 202 87 185 c 0
 87 173 95 162 112 162 c 0
EndSplineSet
MinimumDistance: x11,-1 
EndChar
StartChar: uni0E0A
Encoding: 170 3594 138
OldEncoding: 3594
Width: 393
Flags: HW
HStem: 0 41 348 53
VStem: 170 47 309 47
Fore
441 371 m 1
 441 371 l 0
 439 370 421 354 390 342 c 0
 365 332 330 320 327 320 c 0
 328 320 351 312 364 294 c 0
 373 282 376 270 376 259 c 0
 376 253 375 247 374 242 c 2
 339 77 l 2
 337 64 333 45 319 30 c 0
 302 10 279 0 254 0 c 2
 96 0 l 1
 105 43 l 1
 153 43 l 1
 183 185 l 2
 186 199 188 208 195 222 c 0
 210 250 238 271 238 310 c 0
 238 311 l 0
 238 338 211 350 185 350 c 0
 179 350 173 349 168 348 c 1
 184 340 192 331 192 305 c 0
 191 279 170 235 118 231 c 0
 115 231 113 231 110 231 c 0
 76 231 59 251 59 280 c 0
 59 285 59 290 60 295 c 0
 68 344 116 383 171 386 c 0
 176 386 181 386 185 386 c 0
 249 386 276 360 283 324 c 0
 283 321 284 317 284 314 c 0
 284 287 271 261 254 239 c 0
 243 224 233 204 231 194 c 2
 199 43 l 1
 253 43 l 2
 264 43 275 46 282 54 c 0
 289 60 293 69 295 78 c 2
 327 230 l 2
 329 238 330 246 330 253 c 0
 330 262 327 271 321 280 c 0
 306 297 282 302 282 302 c 1
 280 336 l 1
 284 336 330 350 366 368 c 0
 403 386 433 415 433 416 c 1
 441 371 l 1
132 326 m 0
 109 326 94 305 94 288 c 0
 94 276 102 265 119 265 c 0
 142 265 157 286 157 303 c 0
 157 315 149 326 132 326 c 0
EndSplineSet
MinimumDistance: x14,-1 x7,9 x7,8 
EndChar
StartChar: uni0E0B
Encoding: 171 3595 139
OldEncoding: 3595
Width: 423
Flags: HW
HStem: 0 41 186 41
VStem: 203 47 342 47
Fore
477 371 m 1
 477 371 l 0
 475 370 457 354 426 342 c 0
 401 332 366 320 363 320 c 0
 364 320 387 312 400 294 c 0
 409 282 412 270 412 259 c 0
 412 253 411 247 410 242 c 2
 375 77 l 2
 373 64 369 45 355 30 c 0
 339 10 315 0 290 0 c 2
 132 0 l 1
 141 43 l 1
 189 43 l 1
 239 279 l 1
 276 310 l 1
 276 310 275 323 269 331 c 0
 260 345 253 347 253 347 c 1
 205 325 l 1
 167 347 l 1
 157 345 154 343 143 332 c 0
 130 321 123 307 123 305 c 1
 123 305 131 307 141 307 c 0
 162 307 192 300 192 257 c 0
 192 256 192 254 192 253 c 0
 190 227 170 182 118 179 c 0
 116 179 115 179 113 179 c 0
 76 179 59 200 59 231 c 0
 59 235 59 239 60 243 c 0
 70 350 162 388 164 388 c 2
 213 366 l 1
 269 387 l 2
 271 387 294 377 304 361 c 0
 309 351 316 341 317 331 c 2
 319 302 l 1
 283 269 l 1
 235 43 l 1
 290 43 l 2
 300 43 312 46 319 54 c 0
 325 60 329 69 331 78 c 2
 363 230 l 2
 365 238 366 246 366 253 c 0
 366 262 363 271 357 280 c 0
 343 297 319 302 319 302 c 1
 317 333 l 1
 319 333 366 350 402 368 c 0
 440 386 469 415 469 416 c 1
 477 371 l 1
133 274 m 0
 109 274 94 253 94 236 c 0
 94 224 102 213 119 213 c 0
 142 213 157 234 157 251 c 0
 157 263 150 274 133 274 c 0
EndSplineSet
MinimumDistance: x14,-1 x7,9 x7,8 
EndChar
StartChar: uni0E0C
Encoding: 172 3596 140
OldEncoding: 3596
Width: 517
Flags: HW
HStem: -2 41 124 214 361 41
VStem: 69 47 285 47 427 47
Fore
358 293 m 0
 329 149 l 0
 329 149 l 0
 329 148 349 145 363 109 c 0
 373 85 381 49 394 49 c 0
 395 49 395 49 396 49 c 0
 407 50 409 64 411 74 c 2
 477 385 l 1
 522 385 l 1
 453 62 l 2
 446 27 426 3 403 0 c 0
 400 -0 397 -1 394 -1 c 0
 373 -1 359 9 349 34 c 0
 335 70 317 97 317 97 c 1
 306 45 l 2
 301 24 275 -2 246 -2 c 0
 243 -2 l 0
 213 -0 197 23 197 54 c 0
 197 64 199 74 202 85 c 0
 217 135 246 150 284 156 c 1
 313 291 l 2
 314 295 314 299 314 302 c 0
 314 332 285 347 232 347 c 0
 177 347 153 325 153 325 c 2
 155 325 172 315 186 304 c 0
 199 294 217 276 217 276 c 1
 214 276 186 271 165 252 c 0
 149 239 138 221 134 201 c 2
 117 120 l 1
 117 120 128 124 142 124 c 0
 150 124 158 123 166 119 c 0
 182 112 192 97 192 77 c 0
 192 69 190 60 187 50 c 0
 175 19 145 -1 112 -1 c 0
 73 -1 58 21 58 48 c 0
 58 54 59 60 60 66 c 2
 91 210 l 2
 93 222 101 238 114 254 c 0
 125 269 143 278 143 278 c 1
 143 278 129 294 109 302 c 0
 91 310 81 315 64 318 c 1
 80 335 149 383 242 387 c 1
 321 387 360 357 360 312 c 0
 360 306 359 300 358 293 c 0
261 51 m 0
 276 120 l 0
 276 120 275 120 273 120 c 0
 266 120 249 118 239 90 c 0
 236 80 232 67 232 57 c 0
 232 46 236 38 246 38 c 0
 252 38 260 45 261 51 c 0
119 32 m 0
 143 32 157 52 157 69 c 0
 157 81 149 92 132 92 c 0
 109 92 95 72 95 55 c 0
 95 43 102 32 119 32 c 0
EndSplineSet
MinimumDistance: x23,-1 
EndChar
StartChar: uni0E0D
Encoding: 173 3597 141
OldEncoding: 3597
Width: 544
Flags: HW
HStem: -192 41 -75 30 0 41 361 41
VStem: 81 47 293 47 450 47
Fore
483 72 m 1
 483 72 l 0
 480 56 478 42 467 28 c 0
 454 10 434 0 414 0 c 2
 253 0 l 1
 262 43 l 1
 290 43 l 1
 343 290 l 2
 344 294 344 299 344 302 c 0
 344 332 317 347 267 347 c 0
 211 347 184 325 184 325 c 2
 186 325 203 315 217 304 c 0
 230 294 248 276 248 276 c 1
 245 276 217 271 196 252 c 0
 180 239 169 221 165 201 c 2
 148 120 l 1
 148 120 159 124 173 124 c 0
 181 124 189 123 197 119 c 0
 213 112 223 97 223 77 c 0
 223 69 221 60 218 50 c 0
 206 19 176 -1 143 -1 c 0
 104 -1 89 21 89 48 c 0
 89 54 90 60 91 66 c 2
 122 210 l 2
 124 222 132 238 145 254 c 0
 156 269 174 278 174 278 c 1
 174 278 160 294 140 302 c 0
 122 310 112 315 95 318 c 1
 111 335 180 383 273 387 c 0
 277 387 280 387 284 387 c 0
 358 387 390 353 390 311 c 0
 390 305 389 298 388 292 c 2
 335 43 l 1
 408 43 l 2
 415 43 422 45 429 52 c 0
 437 59 437 66 439 74 c 2
 505 385 l 1
 550 385 l 1
 483 72 l 1
455 -40 m 1
 455 -40 l 0
 454 -51 442 -97 416 -129 c 0
 394 -156 355 -182 310 -185 c 0
 307 -185 303 -185 300 -185 c 0
 250 -185 209 -165 209 -120 c 0
 209 -111 l 0
 212 -80 235 -42 282 -41 c 0
 315 -41 332 -61 332 -87 c 0
 332 -95 330 -105 326 -114 c 0
 316 -138 296 -142 295 -142 c 0
 296 -142 302 -146 314 -146 c 0
 320 -146 327 -145 335 -142 c 0
 359 -135 376 -121 391 -99 c 0
 403 -79 412 -40 412 -40 c 1
 455 -40 l 1
150 32 m 0
 150 32 l 0
 174 32 188 52 188 69 c 0
 188 81 180 92 163 92 c 0
 140 92 126 72 126 55 c 0
 126 43 133 32 150 32 c 0
278 -72 m 0
 257 -72 244 -91 244 -107 c 0
 244 -118 250 -128 265 -128 c 0
 287 -128 300 -109 300 -93 c 0
 300 -82 293 -72 278 -72 c 0
EndSplineSet
MinimumDistance: x32,-1 x20,23 x20,22 
EndChar
StartChar: uni0E0E
Encoding: 174 3598 142
OldEncoding: 3598
Width: 436
Flags: HW
HStem: 361 41
VStem: 126 47 231 47 344 47
Fore
340 -106 m 1
 220 -207 l 1
 220 -207 211 -192 195 -167 c 0
 187 -157 172 -143 170 -142 c 1
 166 -147 144 -167 126 -177 c 0
 104 -190 82 -196 63 -196 c 0
 38 -196 18 -186 11 -170 c 0
 9 -165 8 -159 8 -152 c 0
 8 -125 28 -93 56 -81 c 0
 75 -73 93 -70 108 -70 c 0
 143 -70 167 -85 168 -86 c 1
 168 -85 182 -68 192 -46 c 0
 202 -26 207 -8 208 -5 c 1
 253 -5 l 1
 253 -7 246 -31 231 -56 c 0
 212 -90 199 -103 196 -107 c 1
 235 -147 l 1
 297 -100 l 1
 376 271 l 2
 378 279 379 287 379 294 c 0
 379 331 354 347 307 347 c 0
 305 347 304 347 303 347 c 0
 247 347 214 325 214 325 c 2
 216 325 233 315 248 304 c 0
 261 294 278 276 278 276 c 1
 275 276 248 271 226 252 c 0
 211 239 200 221 196 201 c 2
 167 66 l 2
 160 32 135 -1 87 -1 c 0
 55 -1 34 17 34 46 c 0
 34 47 34 49 34 50 c 0
 36 84 56 109 83 119 c 0
 93 123 102 124 110 124 c 0
 124 124 134 120 134 120 c 1
 153 210 l 2
 155 222 162 238 175 254 c 0
 187 269 204 278 204 278 c 1
 204 278 191 294 171 302 c 0
 153 310 143 315 126 318 c 1
 141 335 220 387 309 387 c 0
 386 387 424 354 424 301 c 0
 424 292 423 283 421 273 c 2
 340 -106 l 1
94 32 m 0
 94 32 l 0
 117 32 131 52 131 69 c 0
 131 81 124 92 107 92 c 0
 83 92 69 72 69 55 c 0
 69 43 77 32 94 32 c 0
139 -117 m 0
 139 -116 118 -104 95 -104 c 0
 84 -104 72 -107 62 -117 c 0
 55 -124 52 -132 52 -139 c 0
 52 -150 61 -159 74 -159 c 0
 77 -159 l 0
 114 -155 138 -122 139 -117 c 0
EndSplineSet
MinimumDistance: x15,-1 
EndChar
StartChar: uni0E0F
Encoding: 175 3599 143
OldEncoding: 3599
Width: 433
Flags: HW
HStem: 361 41
VStem: 125 47 191 47 341 47
Fore
340 -104 m 1
 340 -104 l 0
 330 -124 319 -138 304 -154 c 0
 285 -175 268 -189 242 -202 c 1
 211 -141 l 1
 152 -203 l 1
 128 -155 l 1
 128 -155 112 -177 101 -184 c 0
 84 -195 73 -204 53 -204 c 0
 50 -204 46 -204 42 -203 c 0
 19 -200 9 -180 9 -157 c 0
 9 -143 12 -128 19 -115 c 0
 32 -89 55 -65 84 -64 c 0
 112 -64 132 -87 133 -90 c 1
 133 -90 145 -70 156 -45 c 0
 169 -20 171 -7 171 -6 c 1
 211 -6 l 1
 211 -7 199 -41 184 -72 c 0
 171 -97 157 -115 155 -116 c 1
 163 -139 l 1
 226 -69 l 1
 259 -145 l 1
 267 -141 273 -135 280 -127 c 0
 287 -119 292 -113 295 -104 c 1
 378 287 l 2
 379 292 380 297 380 302 c 0
 380 331 357 347 304 347 c 0
 248 347 215 325 215 325 c 2
 217 325 234 315 249 304 c 0
 262 294 279 276 279 276 c 1
 276 276 249 271 227 252 c 0
 212 239 201 221 197 201 c 2
 168 66 l 2
 161 32 136 -1 88 -1 c 0
 56 -1 35 17 35 46 c 0
 35 47 35 49 35 50 c 0
 37 84 57 109 84 119 c 0
 94 123 103 124 111 124 c 0
 125 124 135 120 135 120 c 1
 154 210 l 2
 156 222 163 238 176 254 c 0
 188 269 205 278 205 278 c 1
 205 278 192 294 172 302 c 0
 154 310 144 315 127 318 c 1
 142 335 221 386 310 387 c 0
 387 387 426 359 426 311 c 0
 426 304 425 297 423 289 c 2
 340 -104 l 1
95 32 m 0
 95 32 l 0
 118 32 132 52 132 69 c 0
 132 81 125 92 108 92 c 0
 84 92 70 72 70 55 c 0
 70 43 78 32 95 32 c 0
109 -120 m 1
 109 -120 95 -99 80 -99 c 0
 79 -99 79 -99 78 -99 c 0
 60 -101 45 -130 45 -150 c 0
 45 -160 49 -168 58 -169 c 0
 59 -169 59 -169 60 -169 c 0
 80 -169 109 -120 109 -120 c 1
EndSplineSet
MinimumDistance: x13,-1 
EndChar
StartChar: uni0E10
Encoding: 176 3600 144
OldEncoding: 3600
Width: 345
Flags: HW
HStem: -2 41 349 41
VStem: 76 47 141 47 243 47
Fore
388 340 m 1
 388 340 l 0
 387 340 365 330 347 330 c 0
 303 330 282 346 238 346 c 0
 235 346 l 0
 189 346 166 324 166 324 c 2
 167 324 252 319 301 280 c 0
 315 267 324 250 324 228 c 0
 324 222 324 216 322 209 c 2
 291 62 l 2
 283 24 247 -2 204 -2 c 0
 169 -2 146 18 146 47 c 0
 146 50 146 54 147 58 c 2
 158 107 l 1
 158 107 147 103 133 103 c 0
 125 103 116 104 108 108 c 0
 92 115 82 129 82 149 c 0
 82 157 84 167 88 177 c 0
 99 208 129 228 162 228 c 0
 201 228 216 206 216 179 c 0
 216 173 215 167 214 161 c 2
 195 70 l 2
 194 67 194 64 194 61 c 0
 194 49 199 39 216 38 c 0
 238 38 245 56 248 71 c 2
 276 204 l 2
 277 209 278 214 278 218 c 0
 278 252 246 270 212 280 c 0
 163 293 110 297 93 297 c 0
 90 297 89 297 88 297 c 1
 125 346 157 375 219 383 c 0
 227 384 234 384 241 384 c 0
 279 384 301 369 342 366 c 0
 344 366 345 366 347 366 c 0
 365 366 383 375 384 375 c 1
 388 340 l 1
246 -147 m 1
 167 -193 l 1
 129 -163 l 1
 72 -193 l 1
 71 -193 l 2
 69 -193 68 -187 68 -186 c 0
 66 -178 65 -171 60 -164 c 2
 59 -161 l 1
 52 -169 30 -189 12 -189 c 0
 -16 -189 -31 -170 -31 -147 c 0
 -31 -143 -30 -138 -29 -133 c 0
 -23 -108 -9 -92 14 -83 c 0
 20 -80 26 -79 33 -79 c 0
 48 -79 63 -86 69 -93 c 1
 69 -92 l 1
 74 -85 l 1
 84 -66 91 -45 98 -25 c 1
 136 -25 l 1
 135 -26 l 2
 134 -31 124 -59 115 -81 c 0
 104 -105 91 -120 89 -124 c 1
 95 -144 l 1
 139 -123 l 1
 176 -150 l 1
 215 -129 l 1
 218 -115 l 1
 212 -117 206 -118 201 -118 c 0
 191 -118 183 -115 176 -110 c 0
 166 -103 161 -92 161 -79 c 0
 161 -66 166 -53 176 -42 c 0
 188 -28 204 -22 220 -22 c 0
 226 -22 231 -22 236 -24 c 0
 256 -30 262 -45 262 -61 c 0
 262 -68 261 -76 259 -83 c 2
 246 -147 l 1
143 135 m 0
 143 135 l 0
 166 135 180 155 180 172 c 0
 180 184 172 195 155 195 c 0
 132 195 118 175 118 159 c 0
 118 146 125 135 143 135 c 0
231 -69 m 0
 231 -69 l 0
 231 -67 231 -66 231 -65 c 0
 231 -55 224 -50 216 -50 c 0
 206 -50 195 -57 192 -70 c 0
 192 -72 192 -73 192 -74 c 0
 192 -85 199 -89 207 -89 c 0
 217 -89 229 -82 231 -69 c 0
43 -127 m 1
 43 -125 32 -114 21 -114 c 0
 18 -114 l 0
 9 -117 3 -130 3 -140 c 0
 3 -148 6 -155 14 -155 c 0
 15 -155 15 -155 16 -155 c 0
 25 -154 32 -148 36 -141 c 0
 41 -134 43 -127 43 -127 c 1
EndSplineSet
MinimumDistance: x32,-1 
EndChar
StartChar: uni0E11
Encoding: 177 3601 145
OldEncoding: 3601
Width: 532
Flags: HW
HStem: 0 41
VStem: 200 47 428 47
Fore
458 0 m 1
 413 0 l 1
 479 309 l 2
 479 312 480 314 480 317 c 0
 480 326 476 333 467 335 c 0
 466 335 465 335 465 335 c 0
 455 335 443 325 438 319 c 1
 436 318 386 257 357 215 c 0
 315 154 269 94 256 55 c 0
 249 34 245 21 241 0 c 1
 193 0 l 1
 252 277 l 2
 252 279 284 298 286 312 c 0
 286 315 l 0
 286 330 266 345 265 345 c 2
 212 321 l 1
 173 345 l 1
 161 340 151 334 143 323 c 0
 132 311 123 298 121 289 c 1
 131 293 142 295 151 295 c 0
 160 295 168 293 176 291 c 0
 193 285 202 268 202 249 c 0
 202 233 197 216 186 202 c 0
 171 182 148 173 127 173 c 0
 105 173 85 182 76 201 c 0
 72 210 69 221 69 233 c 0
 69 262 81 297 101 325 c 0
 121 355 142 372 174 387 c 1
 220 357 l 1
 279 387 l 1
 293 378 304 368 313 354 c 1
 326 338 332 322 332 321 c 2
 328 300 l 2
 328 299 318 290 314 286 c 0
 309 281 303 276 296 271 c 1
 271 153 l 1
 286 184 322 234 355 278 c 0
 401 339 441 381 474 385 c 0
 476 385 477 385 478 385 c 0
 495 385 507 375 515 364 c 0
 522 353 527 343 527 330 c 0
 527 326 527 322 526 318 c 2
 458 0 l 1
133 202 m 0
 157 202 172 223 172 241 c 0
 172 254 164 265 146 265 c 0
 122 265 108 244 108 226 c 0
 108 213 116 202 133 202 c 0
EndSplineSet
MinimumDistance: x7,-1 
EndChar
StartChar: uni0E12
Encoding: 178 3602 146
OldEncoding: 3602
Width: 535
Flags: HW
HStem: -2 20
VStem: 102 47 301 47 440 47
Fore
472 65 m 1
 472 65 l 0
 467 40 458 15 434 4 c 0
 424 -0 416 -2 409 -2 c 0
 378 -2 368 31 359 58 c 0
 348 91 344 99 343 99 c 0
 342 99 342 98 342 97 c 0
 342 96 343 94 343 94 c 0
 343 94 l 1
 333 46 l 2
 330 32 317 9 295 2 c 0
 286 -1 279 -2 271 -2 c 0
 250 -2 235 10 228 28 c 0
 225 37 223 47 223 57 c 0
 223 85 234 115 255 137 c 0
 273 156 302 163 314 164 c 1
 338 279 l 2
 340 286 341 293 341 300 c 0
 341 309 339 317 334 324 c 0
 327 337 319 344 311 346 c 1
 247 305 l 1
 199 346 l 1
 197 346 136 321 111 260 c 0
 104 241 101 223 101 205 c 0
 101 182 106 158 112 134 c 0
 121 101 127 74 127 72 c 1
 128 73 141 96 156 116 c 0
 170 136 180 150 183 154 c 1
 182 154 181 154 178 154 c 0
 169 154 154 155 142 168 c 0
 135 176 131 187 131 200 c 0
 131 217 138 236 152 251 c 0
 168 269 190 277 209 277 c 0
 223 277 236 273 245 265 c 0
 256 255 262 242 262 228 c 0
 262 218 259 207 253 195 c 0
 237 158 181 105 153 47 c 0
 142 25 141 21 136 0 c 1
 88 0 l 1
 88 1 89 12 89 28 c 0
 89 38 89 51 87 65 c 0
 80 118 58 151 58 198 c 0
 58 210 60 223 63 237 c 0
 85 330 148 363 213 387 c 1
 256 349 l 1
 317 388 l 1
 317 388 342 378 360 359 c 0
 380 337 385 317 385 300 c 0
 385 292 384 285 383 279 c 2
 356 150 l 2
 356 149 369 141 377 119 c 0
 394 74 395 43 413 43 c 0
 424 43 425 60 427 69 c 2
 494 385 l 1
 540 385 l 1
 472 65 l 1
190 183 m 0
 190 183 l 0
 191 183 l 0
 215 183 229 204 229 222 c 0
 229 235 221 247 204 247 c 0
 203 247 l 0
 179 247 164 226 164 208 c 0
 164 195 172 183 190 183 c 0
290 51 m 2
 307 130 l 1
 290 125 278 116 268 101 c 0
 262 91 259 77 259 64 c 0
 259 49 263 37 274 37 c 0
 285 37 288 44 290 51 c 2
EndSplineSet
MinimumDistance: x15,-1 
EndChar
StartChar: uni0E13
Encoding: 179 3603 147
OldEncoding: 3603
Width: 534
Flags: HW
HStem: -2 41 131 41 361 41
VStem: 91 47 307 47 456 47
Fore
554 91 m 0
 554 91 l 0
 546 30 508 -2 468 -2 c 0
 432 -1 420 19 420 41 c 0
 420 46 421 51 422 56 c 2
 435 119 l 1
 408 104 390 90 366 68 c 0
 343 45 309 0 308 0 c 2
 264 0 l 1
 325 289 l 2
 326 294 327 298 327 303 c 0
 327 330 304 347 251 347 c 0
 195 347 163 325 163 325 c 2
 165 325 182 315 196 304 c 0
 209 294 227 276 227 276 c 1
 224 276 196 271 175 252 c 0
 159 239 148 221 144 201 c 2
 127 120 l 1
 127 120 138 124 152 124 c 0
 160 124 168 123 176 119 c 0
 192 112 202 97 202 77 c 0
 202 69 200 60 197 50 c 0
 185 19 155 -1 122 -1 c 0
 83 -1 68 21 68 48 c 0
 68 54 69 60 70 66 c 2
 101 210 l 2
 103 222 111 238 124 254 c 0
 135 269 153 278 153 278 c 1
 153 278 139 294 119 302 c 0
 101 310 91 315 74 318 c 1
 90 335 168 386 257 387 c 0
 337 387 373 357 373 312 c 0
 373 305 373 298 371 291 c 2
 325 75 l 1
 326 77 354 110 385 132 c 0
 413 152 441 163 443 163 c 1
 490 385 l 1
 535 385 l 1
 488 167 l 1
 522 167 555 151 555 106 c 0
 555 101 555 96 554 91 c 0
516 97 m 0
 516 97 l 0
 515 125 495 126 480 126 c 1
 466 60 l 2
 465 57 465 54 465 52 c 0
 465 43 469 37 481 37 c 0
 482 37 482 37 483 37 c 0
 507 37 516 74 516 94 c 0
 516 97 l 0
129 32 m 0
 153 32 167 52 167 69 c 0
 167 81 159 92 142 92 c 0
 119 92 105 72 105 55 c 0
 105 43 112 32 129 32 c 0
EndSplineSet
MinimumDistance: x16,-1 
EndChar
StartChar: uni0E14
Encoding: 180 3604 148
OldEncoding: 3604
Width: 401
Flags: HW
HStem: 78 16 216 16
VStem: 148 18
Fore
328 0 m 1
 282 0 l 1
 338 264 l 2
 339 270 340 276 340 282 c 0
 340 321 307 348 253 348 c 0
 196 347 138 313 117 250 c 0
 112 234 110 220 110 206 c 0
 110 184 116 164 123 141 c 0
 135 104 140 80 143 80 c 0
 143 80 l 0
 160 104 156 96 168 114 c 1
 176 124 188 139 197 150 c 1
 182 151 168 159 159 168 c 0
 151 177 147 189 147 202 c 0
 147 219 154 238 168 253 c 0
 184 270 206 279 227 279 c 0
 245 279 261 272 270 260 c 0
 277 251 280 241 280 230 c 0
 280 203 260 172 240 147 c 0
 207 106 196 93 167 57 c 0
 154 40 146 22 138 0 c 1
 99 0 l 1
 103 17 108 25 108 39 c 0
 108 47 106 56 103 70 c 0
 93 108 71 148 71 200 c 0
 71 216 73 234 79 253 c 0
 99 325 179 385 259 385 c 0
 343 385 388 345 388 291 c 0
 388 284 387 276 385 268 c 2
 328 0 l 1
207 182 m 0
 232 182 248 204 248 223 c 0
 248 236 240 248 221 248 c 0
 196 248 180 226 180 207 c 0
 180 194 188 182 207 182 c 0
EndSplineSet
MinimumDistance: x7,-1 
EndChar
StartChar: uni0E15
Encoding: 181 3605 149
OldEncoding: 3605
Width: 421
Flags: HW
HStem: 78 16
VStem: 169 18
Fore
348 0 m 1
 303 0 l 1
 360 267 l 2
 363 280 365 289 365 298 c 0
 365 305 363 312 360 319 c 0
 353 335 348 341 336 347 c 1
 276 309 l 1
 230 350 l 1
 194 337 150 313 129 250 c 0
 124 233 121 218 121 204 c 0
 121 182 127 162 136 141 c 0
 150 106 155 70 157 70 c 0
 157 70 l 0
 165 82 171 91 190 115 c 1
 201 130 206 138 217 150 c 1
 201 151 185 154 173 168 c 0
 165 178 161 190 161 203 c 0
 161 220 167 238 181 253 c 0
 197 271 221 280 242 280 c 0
 260 280 276 273 285 261 c 0
 291 252 294 242 294 232 c 0
 294 204 275 173 257 147 c 0
 236 116 216 92 193 55 c 0
 181 37 169 26 163 0 c 1
 115 0 l 1
 117 17 118 27 118 41 c 0
 118 49 118 58 117 70 c 0
 113 112 83 154 83 209 c 0
 83 223 85 238 90 254 c 0
 112 327 175 370 247 388 c 1
 284 354 l 1
 340 388 l 1
 362 383 381 372 395 350 c 0
 404 336 409 321 409 301 c 0
 409 292 408 282 406 271 c 2
 348 0 l 1
224 180 m 0
 249 180 265 202 265 221 c 0
 265 234 257 246 238 246 c 0
 212 246 196 224 196 206 c 0
 196 192 205 180 224 180 c 0
EndSplineSet
MinimumDistance: x6,-1 
EndChar
StartChar: uni0E16
Encoding: 182 3606 150
OldEncoding: 3606
Width: 410
Flags: HW
HStem: -1 20 361 41
VStem: 78 47 316 47
Fore
340 0 m 1
 295 0 l 1
 353 273 l 2
 354 280 355 286 355 291 c 0
 355 331 321 347 271 347 c 0
 270 347 268 347 267 347 c 0
 211 347 173 325 173 325 c 2
 175 325 192 315 206 304 c 0
 219 294 237 276 237 276 c 1
 234 276 206 271 185 252 c 0
 169 239 158 221 154 201 c 2
 137 120 l 1
 137 120 148 124 162 124 c 0
 170 124 178 123 186 119 c 0
 202 112 212 97 212 77 c 0
 212 69 210 60 207 50 c 0
 195 19 165 -1 132 -1 c 0
 93 -1 78 21 78 48 c 0
 78 54 79 60 80 66 c 2
 111 210 l 2
 113 222 121 238 134 254 c 0
 145 269 163 278 163 278 c 1
 163 278 149 294 129 302 c 0
 111 310 101 315 84 318 c 1
 100 334 184 387 273 387 c 0
 352 387 401 355 401 300 c 0
 401 292 400 284 398 275 c 2
 340 0 l 1
139 32 m 0
 163 32 177 52 177 69 c 0
 177 81 169 92 152 92 c 0
 129 92 115 72 115 55 c 0
 115 43 122 32 139 32 c 0
EndSplineSet
MinimumDistance: x6,-1 
EndChar
StartChar: uni0E17
Encoding: 183 3607 151
OldEncoding: 3607
Width: 451
Flags: HW
HStem: 0 41
VStem: 115 47 353 47
Fore
379 0 m 1
 334 0 l 1
 398 301 l 2
 400 309 403 322 403 332 c 0
 403 336 402 340 401 342 c 0
 399 346 393 348 386 348 c 0
 376 348 363 343 352 331 c 0
 329 304 257 227 210 142 c 0
 180 88 172 58 160 0 c 1
 115 0 l 1
 171 265 l 1
 171 265 160 261 146 261 c 0
 138 261 130 262 122 266 c 0
 106 273 96 288 96 308 c 0
 96 316 98 325 101 335 c 0
 113 366 143 386 176 386 c 0
 215 386 230 364 230 337 c 0
 230 331 229 325 228 319 c 2
 201 195 l 1
 201 195 247 261 279 302 c 0
 318 353 355 386 392 386 c 0
 395 386 l 0
 420 385 422 382 434 366 c 0
 443 352 446 338 446 325 c 0
 446 314 444 303 442 295 c 2
 379 0 l 1
156 293 m 0
 179 293 193 313 193 330 c 0
 193 342 186 353 169 353 c 0
 145 353 131 333 131 316 c 0
 131 304 139 293 156 293 c 0
EndSplineSet
MinimumDistance: x6,-1 
EndChar
StartChar: uni0E18
Encoding: 184 3608 152
OldEncoding: 3608
Width: 358
Flags: HW
HStem: 0 41 358 41
VStem: 123 47 260 47
Fore
286 283 m 0
 286 283 l 0
 315 261 326 247 332 220 c 1
 297 58 l 2
 294 42 287 33 275 21 c 0
 262 8 247 3 228 0 c 1
 57 0 l 1
 65 43 l 1
 109 43 l 1
 160 284 l 1
 126 289 l 1
 88 290 l 2
 83 290 81 293 81 297 c 0
 81 308 95 329 106 341 c 0
 142 377 173 383 217 384 c 0
 218 384 220 384 221 384 c 0
 274 384 293 365 350 364 c 0
 372 364 395 371 410 385 c 1
 422 348 l 1
 408 340 398 334 383 330 c 0
 369 327 358 325 347 325 c 0
 334 325 322 327 306 330 c 1
 270 342 246 344 230 348 c 0
 225 349 220 349 215 349 c 0
 205 349 195 348 186 348 c 0
 174 348 163 344 153 338 c 0
 144 333 135 326 135 324 c 0
 135 323 135 323 136 323 c 0
 212 320 268 298 286 283 c 0
253 62 m 1
 284 208 l 1
 280 229 275 239 253 253 c 0
 238 262 220 270 203 273 c 1
 154 42 l 1
 162 42 169 42 176 42 c 0
 195 42 212 43 230 44 c 0
 240 44 246 54 253 62 c 1
EndSplineSet
MinimumDistance: x8,-1 
EndChar
StartChar: uni0E19
Encoding: 185 3609 153
OldEncoding: 3609
Width: 436
Flags: HW
HStem: -497 20 -364 41
VStem: 739 47 924 47
Fore
414 29 m 0
 414 29 l 0
 399 9 374 -3 351 -3 c 0
 342 -3 333 -0 326 4 c 0
 311 12 306 26 306 43 c 0
 306 52 308 62 310 73 c 2
 322 133 l 1
 322 133 322 133 321 133 c 0
 317 133 289 131 222 85 c 0
 169 47 144 3 141 -2 c 1
 96 -2 l 1
 152 263 l 1
 152 263 141 259 127 259 c 0
 119 259 110 260 102 264 c 0
 86 272 77 286 77 306 c 0
 77 314 78 323 82 333 c 0
 93 364 124 384 157 384 c 0
 196 384 210 363 210 337 c 0
 210 330 210 324 208 317 c 2
 157 76 l 1
 157 76 190 111 240 140 c 0
 281 164 328 175 331 175 c 1
 375 383 l 1
 420 383 l 1
 376 174 l 1
 377 174 378 174 380 174 c 0
 388 174 409 172 429 150 c 0
 438 141 442 126 442 110 c 0
 442 82 431 50 414 29 c 0
398 90 m 0
 398 90 l 0
 399 94 399 97 399 100 c 0
 399 130 376 133 367 133 c 0
 365 133 363 133 363 133 c 1
 351 74 l 2
 349 66 348 59 348 54 c 0
 348 41 353 36 363 36 c 0
 364 36 364 36 365 36 c 0
 387 38 396 71 398 90 c 0
137 291 m 0
 160 291 174 311 174 329 c 0
 174 341 167 352 150 352 c 0
 126 352 112 332 112 314 c 0
 112 302 120 291 137 291 c 0
EndSplineSet
MinimumDistance: x18,-1 
EndChar
StartChar: uni0E1A
Encoding: 186 3610 154
OldEncoding: 3610
Width: 420
Flags: HW
HStem: 0 39
VStem: 121 43 329 43
Fore
357 58 m 1
 357 58 l 0
 354 41 346 29 333 17 c 0
 320 7 303 0 286 0 c 2
 43 0 l 1
 52 43 l 1
 100 43 l 1
 147 265 l 1
 147 265 137 261 124 261 c 0
 116 261 108 262 101 266 c 0
 86 273 77 287 77 307 c 0
 77 315 78 325 82 335 c 0
 93 366 122 386 153 386 c 0
 190 386 204 364 204 338 c 0
 204 332 203 325 202 319 c 2
 143 43 l 1
 282 43 l 2
 291 43 301 46 308 53 c 0
 317 60 316 68 318 77 c 2
 384 385 l 1
 427 385 l 1
 357 58 l 1
133 293 m 0
 156 293 170 313 170 330 c 0
 170 342 162 353 146 353 c 0
 124 353 110 333 110 316 c 0
 110 303 117 293 133 293 c 0
EndSplineSet
MinimumDistance: x4,-1 x0,2 y23,1 x1,23 x1,0 
EndChar
StartChar: uni0E1B
Encoding: 187 3611 155
OldEncoding: 3611
Width: 415
Flags: HW
HStem: 0 41
VStem: 116 47 343 47
Fore
359 58 m 1
 359 58 l 0
 356 41 348 29 335 17 c 0
 322 7 305 0 288 0 c 2
 48 0 l 1
 57 43 l 1
 105 43 l 1
 152 265 l 1
 152 265 142 261 129 261 c 0
 121 261 113 262 106 266 c 0
 91 273 82 287 82 307 c 0
 82 315 83 325 87 335 c 0
 98 366 127 386 158 386 c 0
 195 386 209 364 209 338 c 0
 209 332 208 325 207 319 c 2
 148 43 l 1
 284 43 l 2
 293 43 303 46 310 53 c 0
 319 60 318 68 320 77 c 2
 427 578 l 1
 470 578 l 1
 359 58 l 1
138 293 m 0
 161 293 175 313 175 330 c 0
 175 342 167 353 151 353 c 0
 129 353 115 333 115 316 c 0
 115 303 122 293 138 293 c 0
EndSplineSet
MinimumDistance: x4,-1 x0,2 y23,1 x1,23 x1,0 
EndChar
StartChar: uni0E1C
Encoding: 188 3612 156
OldEncoding: 3612
Width: 417
Flags: HW
HStem: 0 41
VStem: 84 47 348 47
Fore
339 0 m 1
 296 0 l 0
 294 19 284 59 267 92 c 0
 253 121 239 138 228 148 c 1
 213 138 198 126 166 93 c 0
 135 63 110 23 98 1 c 1
 55 1 l 1
 123 319 l 2
 129 349 156 385 200 386 c 0
 229 386 249 368 249 341 c 0
 249 335 l 0
 247 301 228 276 203 266 c 0
 193 262 184 261 177 261 c 0
 163 261 154 265 154 265 c 1
 116 85 l 1
 118 88 150 127 177 150 c 0
 200 170 215 183 239 198 c 1
 256 184 266 170 280 151 c 0
 298 127 314 86 314 85 c 2
 378 385 l 1
 421 385 l 1
 339 0 l 1
180 293 m 0
 202 293 216 313 216 330 c 0
 216 343 209 353 193 353 c 0
 171 353 157 333 157 316 c 0
 157 303 164 293 180 293 c 0
EndSplineSet
MinimumDistance: x4,-1 
EndChar
StartChar: uni0E1D
Encoding: 189 3613 157
OldEncoding: 3613
Width: 417
Flags: HW
HStem: 0 41
VStem: 45 47 309 47
Fore
347 0 m 1
 304 0 l 0
 302 19 292 59 275 92 c 0
 261 121 247 138 236 148 c 1
 221 138 206 126 174 93 c 0
 143 63 118 23 106 1 c 1
 63 1 l 1
 131 319 l 2
 137 349 164 385 208 386 c 0
 237 386 257 368 257 341 c 0
 257 335 l 0
 255 301 236 276 211 266 c 0
 201 262 192 261 185 261 c 0
 171 261 162 265 162 265 c 1
 124 85 l 1
 126 88 158 127 185 150 c 0
 208 170 223 183 247 198 c 1
 264 184 274 170 288 151 c 0
 306 127 322 86 322 85 c 2
 427 578 l 1
 470 578 l 1
 347 0 l 1
188 293 m 0
 210 293 224 313 224 330 c 0
 224 343 217 353 201 353 c 0
 179 353 165 333 165 316 c 0
 165 303 172 293 188 293 c 0
EndSplineSet
MinimumDistance: x4,-1 
EndChar
StartChar: uni0E1E
Encoding: 190 3614 158
OldEncoding: 3614
Width: 456
Flags: HW
HStem: 0 41
VStem: 115 47 246 47 384 47
Fore
382 0 m 1
 340 0 l 0
 340 1 340 3 340 7 c 0
 340 25 338 79 315 166 c 0
 302 220 300 270 300 291 c 0
 300 298 300 302 300 302 c 1
 300 300 281 239 227 161 c 0
 157 59 137 1 137 0 c 1
 93 0 l 1
 149 265 l 1
 149 265 139 261 126 261 c 0
 118 261 110 262 103 266 c 0
 88 273 79 287 79 307 c 0
 79 315 80 325 84 335 c 0
 95 366 124 386 155 386 c 0
 192 386 206 364 206 338 c 0
 206 332 205 325 204 319 c 2
 163 128 l 1
 163 128 190 168 214 207 c 0
 235 240 253 275 267 307 c 0
 290 358 292 383 293 385 c 1
 338 385 l 1
 338 384 334 363 334 321 c 0
 334 317 334 313 334 308 c 0
 335 274 341 244 348 214 c 0
 358 171 366 132 366 128 c 1
 421 385 l 1
 464 385 l 1
 382 0 l 1
135 293 m 0
 158 293 172 313 172 330 c 0
 172 342 164 353 148 353 c 0
 126 353 112 333 112 316 c 0
 112 303 119 293 135 293 c 0
EndSplineSet
MinimumDistance: x6,-1 
EndChar
StartChar: uni0E1F
Encoding: 191 3615 159
OldEncoding: 3615
Width: 456
Flags: HW
HStem: 0 41
VStem: 116 47 247 47 385 47
Fore
380 0 m 1
 338 0 l 0
 338 1 338 3 338 7 c 0
 338 25 336 79 313 166 c 0
 300 220 298 270 298 291 c 0
 298 298 298 302 298 302 c 1
 298 300 279 239 225 161 c 0
 155 59 135 1 135 0 c 1
 91 0 l 1
 147 265 l 1
 147 265 137 261 124 261 c 0
 116 261 108 262 101 266 c 0
 86 273 77 287 77 307 c 0
 77 315 78 325 82 335 c 0
 93 366 122 386 153 386 c 0
 190 386 204 364 204 338 c 0
 204 332 203 325 202 319 c 2
 161 128 l 1
 161 128 188 168 212 207 c 0
 233 240 251 275 265 307 c 0
 288 358 290 383 291 385 c 1
 336 385 l 1
 336 384 332 363 332 321 c 0
 332 317 332 313 332 308 c 0
 333 274 339 244 346 214 c 0
 356 171 364 132 364 128 c 1
 460 577 l 1
 503 577 l 1
 380 0 l 1
133 293 m 0
 156 293 170 313 170 330 c 0
 170 342 162 353 146 353 c 0
 124 353 110 333 110 316 c 0
 110 303 117 293 133 293 c 0
EndSplineSet
MinimumDistance: x6,-1 
EndChar
StartChar: uni0E20
Encoding: 192 3616 160
OldEncoding: 3616
Width: 465
Flags: HW
HStem: -1 20 361 41
VStem: 119 47 357 47
Fore
390 0 m 1
 345 0 l 1
 403 273 l 2
 404 279 405 285 405 291 c 0
 405 331 370 347 321 347 c 0
 320 347 318 347 317 347 c 0
 261 347 222 325 222 325 c 2
 224 325 241 315 256 304 c 0
 269 294 286 276 286 276 c 1
 283 276 256 271 234 252 c 0
 219 239 208 221 204 201 c 2
 175 66 l 2
 168 32 143 -1 95 -1 c 0
 63 -1 42 17 42 46 c 0
 42 47 42 49 42 50 c 0
 44 84 64 109 91 119 c 0
 101 123 110 124 118 124 c 0
 132 124 142 120 142 120 c 1
 161 210 l 2
 163 222 170 238 183 254 c 0
 195 269 212 278 212 278 c 1
 212 278 199 294 179 302 c 0
 161 310 151 315 134 318 c 1
 149 334 233 387 323 387 c 0
 401 387 451 355 451 299 c 0
 451 292 450 284 448 275 c 2
 390 0 l 1
102 32 m 0
 125 32 139 52 139 69 c 0
 139 81 132 92 115 92 c 0
 91 92 77 72 77 55 c 0
 77 43 85 32 102 32 c 0
EndSplineSet
MinimumDistance: x6,-1 
EndChar
StartChar: uni0E21
Encoding: 193 3617 161
OldEncoding: 3617
Width: 434
Flags: HW
HStem: -2 20 128 41
VStem: 112 47 304 47
Fore
375 89 m 1
 375 89 l 0
 368 58 362 27 333 11 c 0
 320 3 306 -1 293 -1 c 0
 275 -1 259 7 248 23 c 2
 193 102 l 1
 182 54 l 2
 176 24 145 -2 114 -2 c 0
 76 -2 57 24 57 57 c 0
 57 78 64 101 79 122 c 0
 99 150 129 164 161 164 c 1
 182 265 l 1
 182 265 171 261 157 261 c 0
 149 261 141 262 133 266 c 0
 117 273 107 288 107 308 c 0
 107 316 109 325 112 335 c 0
 124 366 154 386 187 386 c 0
 226 386 241 364 241 337 c 0
 241 331 240 325 239 319 c 2
 204 155 l 1
 263 77 l 2
 274 63 284 44 302 44 c 0
 319 45 324 65 327 81 c 2
 392 385 l 1
 438 385 l 1
 375 89 l 1
167 293 m 0
 167 293 l 0
 190 293 204 313 204 330 c 0
 204 342 197 353 180 353 c 0
 156 353 142 333 142 316 c 0
 142 304 150 293 167 293 c 0
139 62 m 2
 152 123 l 1
 137 123 123 122 112 107 c 0
 103 95 97 76 97 61 c 0
 97 47 102 36 113 36 c 0
 116 36 l 0
 129 38 135 41 139 62 c 2
EndSplineSet
MinimumDistance: x13,-1 
EndChar
StartChar: uni0E22
Encoding: 194 3618 162
OldEncoding: 3618
Width: 406
Flags: HW
HStem: 0 41
VStem: 66 47 303 47
Fore
121 95 m 0
 121 95 l 0
 114 68 110 43 110 43 c 1
 262 43 l 2
 270 43 277 46 284 50 c 0
 292 56 298 65 300 76 c 2
 366 385 l 1
 411 385 l 1
 345 74 l 2
 340 53 332 36 314 21 c 0
 297 6 278 0 256 0 c 2
 56 0 l 1
 76 92 l 2
 80 113 90 140 104 155 c 0
 117 169 141 179 154 183 c 1
 142 185 122 193 113 207 c 0
 108 216 106 222 106 229 c 0
 106 233 107 238 108 245 c 2
 124 318 l 2
 130 348 158 384 204 385 c 0
 236 385 257 367 257 338 c 0
 257 337 257 335 257 334 c 0
 255 300 234 275 207 265 c 0
 197 261 188 260 181 260 c 0
 167 260 157 264 157 264 c 1
 153 243 l 2
 152 239 152 236 152 233 c 0
 152 225 155 219 166 209 c 0
 178 198 219 194 219 194 c 1
 219 194 215 173 214 168 c 0
 214 168 212 169 210 169 c 0
 198 169 167 165 151 150 c 0
 134 134 129 126 121 95 c 0
184 292 m 0
 208 292 222 312 222 329 c 0
 222 341 214 352 197 352 c 0
 174 352 160 332 160 315 c 0
 160 303 167 292 184 292 c 0
EndSplineSet
MinimumDistance: x4,-1 y7,4 y7,5 
EndChar
StartChar: uni0E23
Encoding: 195 3619 163
OldEncoding: 3619
Width: 327
Flags: HW
HStem: -1 20
VStem: 214 47
Fore
389 345 m 1
 389 345 l 0
 371 338 363 333 340 330 c 0
 336 330 332 329 329 329 c 0
 293 329 265 350 226 350 c 0
 217 350 208 349 198 346 c 0
 175 341 159 327 159 326 c 0
 159 326 l 2
 159 326 231 318 277 286 c 0
 303 268 311 252 311 232 c 0
 311 223 310 213 307 201 c 2
 278 66 l 2
 271 32 245 -1 197 -1 c 0
 166 -1 145 17 145 44 c 0
 145 50 l 0
 147 84 166 109 193 119 c 0
 203 123 212 124 220 124 c 0
 234 124 244 120 244 120 c 1
 262 208 l 2
 263 212 263 216 263 220 c 0
 263 249 238 266 195 280 c 0
 150 294 86 303 86 304 c 0
 86 304 l 1
 86 304 l 0
 86 305 124 360 174 376 c 0
 196 383 215 386 231 386 c 0
 275 386 299 366 333 366 c 0
 355 366 374 379 375 379 c 1
 389 345 l 1
204 32 m 0
 228 32 242 52 242 69 c 0
 242 81 234 92 217 92 c 0
 194 92 180 72 180 55 c 0
 180 43 187 32 204 32 c 0
EndSplineSet
MinimumDistance: x11,-1 
EndChar
StartChar: uni0E24
Encoding: 196 3620 164
OldEncoding: 3620
Width: 398
Flags: HW
HStem: 361 41
VStem: 78 47 316 47
Fore
303 -140 m 1
 258 -140 l 1
 346 273 l 2
 347 280 348 286 348 291 c 0
 348 331 314 347 264 347 c 0
 263 347 261 347 260 347 c 0
 204 347 166 325 166 325 c 2
 168 325 185 315 199 304 c 0
 212 294 230 276 230 276 c 1
 227 276 199 271 178 252 c 0
 162 239 151 221 147 201 c 2
 130 120 l 1
 130 120 141 124 155 124 c 0
 163 124 171 123 179 119 c 0
 195 112 205 97 205 77 c 0
 205 69 203 60 200 50 c 0
 188 19 158 -1 125 -1 c 0
 86 -1 71 21 71 48 c 0
 71 54 72 60 73 66 c 2
 104 210 l 2
 106 222 114 238 127 254 c 0
 138 269 156 278 156 278 c 1
 156 278 142 294 122 302 c 0
 104 310 94 315 77 318 c 1
 93 334 177 387 266 387 c 0
 345 387 394 355 394 300 c 0
 394 292 393 284 391 275 c 2
 303 -140 l 1
132 32 m 0
 156 32 170 52 170 69 c 0
 170 81 162 92 145 92 c 0
 122 92 108 72 108 55 c 0
 108 43 115 32 132 32 c 0
EndSplineSet
MinimumDistance: x6,-1 
EndChar
StartChar: uni0E25
Encoding: 197 3621 165
OldEncoding: 3621
Width: 387
Flags: HW
HStem: -1 20
VStem: 63 47 283 47
Fore
314 0 m 1
 269 0 l 1
 278 41 l 2
 278 44 l 0
 278 61 267 114 248 156 c 0
 232 193 209 237 182 237 c 0
 179 237 177 237 174 236 c 0
 160 232 148 217 145 201 c 2
 128 120 l 1
 128 120 139 124 153 124 c 0
 161 124 169 123 177 119 c 0
 193 112 203 97 203 77 c 0
 203 69 201 60 198 50 c 0
 186 19 156 -1 124 -1 c 0
 84 -1 69 21 69 48 c 0
 69 54 70 60 71 66 c 2
 99 199 l 2
 108 239 141 268 171 272 c 0
 177 273 183 274 189 274 c 0
 234 274 253 238 270 208 c 0
 292 169 298 143 299 140 c 1
 326 267 l 2
 328 275 329 283 329 291 c 0
 329 324 308 346 249 346 c 0
 246 346 l 0
 179 346 141 307 128 285 c 1
 99 308 l 1
 116 328 136 350 175 369 c 0
 197 380 229 385 259 385 c 0
 289 385 317 380 335 368 c 0
 366 348 375 322 375 298 c 0
 375 288 373 278 371 269 c 2
 314 0 l 1
131 32 m 0
 154 32 168 52 168 69 c 0
 168 81 161 92 144 92 c 0
 120 92 106 72 106 55 c 0
 106 43 114 32 131 32 c 0
EndSplineSet
MinimumDistance: x6,-1 
EndChar
StartChar: uni0E26
Encoding: 198 3622 166
OldEncoding: 3622
Width: 435
Flags: HW
HStem: 361 41
VStem: 125 47 363 47
Fore
334 -140 m 1
 288 -140 l 1
 376 273 l 2
 377 280 378 286 378 291 c 0
 378 331 344 347 294 347 c 0
 293 347 291 347 290 347 c 0
 235 347 196 325 196 325 c 2
 198 325 215 315 229 304 c 0
 243 294 260 276 260 276 c 1
 257 276 229 271 208 252 c 0
 192 239 182 221 178 201 c 2
 149 66 l 2
 142 32 116 -1 68 -1 c 0
 37 -1 16 17 16 44 c 0
 16 50 l 0
 18 84 37 109 64 119 c 0
 74 123 83 124 91 124 c 0
 105 124 115 120 115 120 c 1
 134 210 l 2
 136 222 144 238 157 254 c 0
 168 269 186 278 186 278 c 1
 186 278 173 294 152 302 c 0
 134 310 125 315 107 318 c 1
 123 334 207 387 297 387 c 0
 375 387 425 355 425 299 c 0
 425 292 424 284 422 275 c 2
 334 -140 l 1
75 32 m 0
 99 32 113 52 113 69 c 0
 113 81 105 92 88 92 c 0
 65 92 51 72 51 55 c 0
 51 43 58 32 75 32 c 0
EndSplineSet
MinimumDistance: x6,-1 
EndChar
StartChar: uni0E27
Encoding: 199 3623 167
OldEncoding: 3623
Width: 356
Flags: HW
HStem: -1 20 361 41
VStem: 253 47
Fore
299 66 m 1
 299 66 l 0
 292 32 267 -1 219 -1 c 0
 187 -1 166 17 166 46 c 0
 166 47 166 49 166 50 c 0
 168 84 188 109 215 119 c 0
 225 123 234 124 242 124 c 0
 256 124 266 120 266 120 c 1
 297 269 l 2
 299 278 300 285 300 292 c 0
 300 334 268 348 221 348 c 0
 220 348 220 348 219 348 c 0
 162 348 120 311 105 280 c 1
 73 296 l 1
 98 338 151 386 228 387 c 0
 231 387 l 0
 305 387 346 349 346 298 c 0
 346 291 346 284 344 277 c 2
 299 66 l 1
226 32 m 0
 249 32 263 52 263 69 c 0
 263 81 256 92 239 92 c 0
 215 92 201 72 201 55 c 0
 201 43 209 32 226 32 c 0
EndSplineSet
MinimumDistance: x5,-1 
EndChar
StartChar: uni0E28
Encoding: 200 3624 168
OldEncoding: 3624
Width: 398
Flags: HW
HStem: 0 41 244 41 361 41
VStem: 37 47 102 47 312 47
Fore
439 390 m 1
 439 390 l 1
 439 390 428 367 410 346 c 0
 394 330 380 318 377 317 c 1
 377 316 384 308 384 291 c 0
 384 278 383 267 381 259 c 2
 326 0 l 1
 281 0 l 1
 332 239 l 2
 333 244 333 251 335 259 c 0
 336 264 336 268 336 271 c 0
 336 282 333 286 333 287 c 1
 333 287 317 272 293 256 c 0
 276 243 254 231 253 231 c 1
 253 228 254 226 254 223 c 0
 254 196 237 166 207 154 c 0
 196 149 186 148 179 148 c 0
 165 148 157 153 157 153 c 1
 124 0 l 1
 79 0 l 1
 93 64 l 2
 94 69 94 74 94 78 c 0
 94 84 94 89 92 95 c 0
 86 122 65 166 65 214 c 0
 65 226 66 238 69 250 c 0
 88 324 153 386 257 387 c 0
 260 387 l 0
 339 387 359 349 360 349 c 0
 360 349 l 1
 360 349 371 358 384 376 c 0
 396 393 401 404 401 404 c 1
 439 390 l 1
325 320 m 0
 325 320 l 0
 317 327 314 347 250 347 c 0
 248 347 247 347 245 347 c 0
 165 347 124 293 111 249 c 0
 107 236 106 223 106 212 c 0
 106 185 115 166 116 165 c 1
 125 207 l 2
 130 230 154 274 203 274 c 0
 206 274 l 0
 233 274 240 261 241 260 c 1
 258 269 270 277 284 287 c 0
 304 300 311 307 325 320 c 0
184 181 m 0
 207 181 221 201 221 219 c 0
 221 231 214 242 197 242 c 0
 174 242 160 222 160 204 c 0
 160 192 167 181 184 181 c 0
EndSplineSet
MinimumDistance: x12,-1 
EndChar
StartChar: uni0E29
Encoding: 201 3625 169
OldEncoding: 3625
Width: 435
Flags: HW
HStem: 0 41 151 41 253 30
VStem: 128 47 363 47
Fore
485 236 m 1
 485 236 l 1
 485 236 472 208 441 184 c 0
 422 168 411 162 392 154 c 1
 371 58 l 2
 368 41 361 29 348 17 c 0
 335 7 317 0 300 0 c 2
 53 0 l 1
 62 43 l 1
 110 43 l 1
 157 265 l 1
 157 265 147 261 134 261 c 0
 126 261 118 262 111 266 c 0
 96 273 87 287 87 307 c 0
 87 315 88 325 92 335 c 0
 103 366 132 386 163 386 c 0
 200 386 214 364 214 338 c 0
 214 332 213 325 212 319 c 2
 153 43 l 1
 296 43 l 2
 305 43 315 46 323 53 c 0
 331 60 330 68 332 77 c 2
 347 145 l 1
 346 145 334 141 314 141 c 0
 304 141 293 142 280 145 c 0
 247 152 221 167 221 198 c 0
 221 233 247 271 290 272 c 0
 291 272 293 272 294 272 c 0
 322 272 336 253 336 230 c 0
 336 226 336 223 335 219 c 0
 329 193 315 183 308 178 c 1
 310 178 320 177 331 177 c 0
 345 178 354 183 355 183 c 1
 398 385 l 1
 441 385 l 1
 400 195 l 1
 403 196 419 207 431 219 c 0
 449 238 455 256 456 257 c 1
 485 236 l 1
274 188 m 0
 274 188 l 0
 294 189 306 207 306 222 c 0
 306 234 299 244 284 244 c 0
 264 243 252 225 252 209 c 0
 252 198 259 188 273 188 c 0
 274 188 l 0
143 293 m 0
 166 293 180 313 180 330 c 0
 180 342 172 353 156 353 c 0
 134 353 120 333 120 316 c 0
 120 303 127 293 143 293 c 0
EndSplineSet
MinimumDistance: x14,-1 x6,8 y5,7 x7,5 x7,6 
EndChar
StartChar: uni0E2A
Encoding: 202 3626 170
OldEncoding: 3626
Width: 378
Flags: HW
HStem: -1 20
VStem: 67 47 287 47
Fore
435 362 m 1
 435 362 l 0
 424 346 417 338 398 320 c 0
 380 303 364 294 364 292 c 1
 364 292 363 284 363 280 c 0
 362 276 361 275 360 269 c 2
 303 0 l 1
 258 0 l 1
 267 41 l 2
 267 44 l 0
 267 61 256 114 237 156 c 0
 221 193 198 237 171 237 c 0
 168 237 166 237 163 236 c 0
 149 232 137 217 134 201 c 2
 117 120 l 1
 117 120 128 124 142 124 c 0
 150 124 158 123 166 119 c 0
 182 112 192 97 192 77 c 0
 192 69 190 60 187 50 c 0
 175 19 145 -1 113 -1 c 0
 73 -1 58 21 58 48 c 0
 58 54 59 60 60 66 c 2
 88 199 l 2
 97 239 131 268 160 272 c 0
 167 273 174 274 180 274 c 0
 213 274 228 259 231 257 c 1
 246 263 258 269 274 277 c 0
 294 288 314 303 315 303 c 1
 313 307 311 346 238 346 c 0
 237 346 236 346 236 346 c 0
 168 346 131 306 117 285 c 1
 88 308 l 1
 105 328 125 351 164 369 c 0
 189 380 218 385 245 385 c 0
 271 385 295 380 312 372 c 0
 345 357 354 334 355 332 c 1
 365 340 369 342 384 359 c 0
 393 368 405 385 408 390 c 1
 435 362 l 1
288 140 m 0
 315 267 l 1
 315 267 294 254 282 248 c 0
 269 242 258 237 245 232 c 1
 246 230 247 229 247 229 c 0
 247 229 l 0
 247 229 l 0
 247 229 l 0
 247 229 248 227 259 208 c 0
 281 169 286 143 288 140 c 0
120 32 m 0
 143 32 157 52 157 69 c 0
 157 81 150 92 133 92 c 0
 109 92 95 72 95 55 c 0
 95 43 103 32 120 32 c 0
EndSplineSet
MinimumDistance: x13,-1 
EndChar
StartChar: uni0E2B
Encoding: 203 3627 171
OldEncoding: 3627
Width: 425
Flags: HW
HStem: 34 41 395 41
VStem: 127 47 365 47
Fore
348 291 m 0
 348 291 l 0
 349 292 350 293 351 293 c 0
 366 300 383 318 387 330 c 0
 388 333 389 336 389 340 c 0
 389 351 382 363 363 363 c 0
 337 363 328 347 324 335 c 0
 323 332 323 330 323 327 c 0
 323 318 327 310 333 302 c 0
 336 298 342 295 348 291 c 0
350 227 m 0
 350 227 l 0
 350 234 349 241 339 251 c 1
 333 245 324 238 319 233 c 0
 296 210 272 188 237 147 c 0
 193 96 168 58 142 0 c 1
 97 0 l 1
 153 265 l 1
 153 265 142 261 128 261 c 0
 120 261 112 262 104 266 c 0
 88 273 78 288 78 308 c 0
 78 316 80 325 83 335 c 0
 95 366 125 386 158 386 c 0
 197 386 212 364 212 337 c 0
 212 331 211 325 210 319 c 2
 167 117 l 1
 167 117 203 165 246 207 c 0
 266 227 294 253 318 271 c 1
 314 272 313 276 309 278 c 0
 290 291 286 303 286 315 c 0
 286 322 287 328 288 334 c 0
 290 354 316 392 368 392 c 0
 414 392 423 364 423 343 c 0
 423 340 423 338 423 336 c 0
 422 315 407 297 395 287 c 0
 389 282 381 277 372 271 c 1
 377 265 381 259 382 256 c 0
 387 246 393 233 394 221 c 0
 394 219 394 216 394 214 c 0
 394 195 387 172 383 150 c 2
 351 0 l 1
 306 0 l 1
 344 179 l 2
 349 201 350 208 350 218 c 0
 350 227 l 0
138 293 m 0
 161 293 175 313 175 330 c 0
 175 342 168 353 151 353 c 0
 127 353 113 333 113 316 c 0
 113 304 121 293 138 293 c 0
EndSplineSet
MinimumDistance: x10,-1 
EndChar
StartChar: uni0E2C
Encoding: 204 3628 172
OldEncoding: 3628
Width: 461
Flags: HW
HStem: 0 41 288 30
VStem: 113 47 244 47 382 47
Fore
431 352 m 0
 431 352 l 0
 431 352 l 0
 431 359 412 383 381 384 c 0
 380 384 379 384 379 384 c 0
 346 384 315 364 315 359 c 0
 315 359 l 0
 319 352 336 335 368 334 c 0
 397 334 426 339 431 352 c 0
365 70 m 1
 364 67 l 1
 364 67 414 303 415 305 c 1
 415 305 400 299 357 297 c 0
 356 297 355 297 353 297 c 0
 309 297 272 329 272 351 c 0
 272 354 272 356 273 358 c 0
 278 370 316 420 384 420 c 0
 439 420 455 392 461 384 c 0
 468 372 463 379 469 369 c 1
 481 378 492 389 498 396 c 0
 506 406 519 417 527 429 c 1
 531 424 545 402 545 401 c 0
 545 401 l 0
 544 402 l 1
 532 386 533 384 508 360 c 0
 494 348 470 328 466 328 c 0
 466 328 l 1
 396 0 l 1
 337 0 l 1
 286 218 l 1
 286 218 l 0
 286 210 146 -0 146 0 c 1
 91 0 l 1
 146 257 l 1
 146 257 138 253 126 253 c 0
 119 253 112 254 104 258 c 0
 89 266 80 280 80 298 c 0
 80 307 82 317 86 327 c 0
 96 358 125 378 156 378 c 0
 193 378 208 357 208 330 c 0
 208 324 208 318 206 311 c 1
 206 311 157 92 157 85 c 0
 157 85 l 0
 157 85 l 1
 285 284 l 1
 286 284 289 284 292 284 c 0
 299 284 310 284 317 284 c 1
 365 70 l 1
137 285 m 0
 160 285 174 306 174 323 c 0
 174 335 166 346 150 346 c 0
 128 346 114 325 114 308 c 0
 114 296 121 285 137 285 c 0
EndSplineSet
MinimumDistance: x36,-1 
EndChar
StartChar: uni0E2D
Encoding: 205 3629 173
OldEncoding: 3629
Width: 370
Flags: HW
HStem: 0 41 361 41
VStem: 90 45 299 45
Fore
315 60 m 1
 315 60 l 0
 311 44 305 32 294 20 c 0
 280 6 261 0 248 0 c 2
 114 0 l 2
 97 0 85 6 76 18 c 0
 71 25 69 34 69 44 c 0
 69 50 70 57 71 64 c 2
 99 199 l 2
 106 230 133 266 177 267 c 0
 207 267 226 248 226 220 c 0
 226 219 226 217 226 216 c 0
 224 182 204 157 178 146 c 0
 169 142 160 141 153 141 c 0
 140 141 131 145 131 145 c 1
 117 78 l 2
 116 73 115 69 115 66 c 0
 115 62 116 58 118 54 c 0
 122 48 128 43 136 43 c 2
 242 43 l 2
 250 43 260 45 265 51 c 0
 271 57 273 66 275 75 c 2
 317 272 l 2
 318 279 319 285 319 291 c 0
 319 327 294 350 248 350 c 0
 194 350 153 324 133 290 c 1
 103 311 l 1
 140 364 194 386 255 387 c 0
 257 387 258 387 260 387 c 0
 323 387 363 354 363 300 c 0
 363 292 362 283 360 274 c 2
 315 60 l 1
157 173 m 0
 179 173 193 194 193 211 c 0
 193 223 186 234 170 234 c 0
 147 234 133 213 133 196 c 0
 133 184 141 173 157 173 c 0
EndSplineSet
MinimumDistance: x7,-1 
EndChar
StartChar: uni0E2E
Encoding: 206 3630 174
OldEncoding: 3630
Width: 357
Flags: HW
HStem: 0 41 265 41 361 41
VStem: 38 47 295 47
Fore
404 369 m 1
 404 369 l 0
 395 355 388 346 377 334 c 0
 368 324 358 316 349 309 c 1
 349 307 351 302 351 297 c 0
 351 296 350 294 350 292 c 0
 348 283 348 281 346 274 c 2
 301 60 l 2
 297 44 292 32 281 20 c 0
 267 6 248 0 234 0 c 2
 91 0 l 2
 74 0 62 6 53 18 c 0
 48 25 45 35 45 46 c 0
 45 52 46 58 47 64 c 2
 66 155 l 2
 73 186 100 222 143 222 c 0
 144 222 144 222 145 222 c 0
 174 222 193 203 193 175 c 0
 193 174 193 172 193 171 c 0
 191 138 172 113 146 102 c 0
 136 98 127 97 120 97 c 0
 106 97 97 101 97 101 c 1
 93 78 l 2
 92 74 91 71 91 67 c 0
 91 62 93 58 95 54 c 0
 98 48 105 43 113 43 c 2
 229 43 l 2
 237 43 246 45 252 51 c 0
 257 57 259 66 261 75 c 2
 301 263 l 2
 302 268 303 270 304 276 c 0
 304 279 304 281 304 284 c 0
 304 287 l 1
 296 283 258 261 194 261 c 0
 191 261 189 261 186 261 c 0
 124 262 84 295 84 318 c 0
 84 320 85 322 85 323 c 0
 92 346 161 387 235 387 c 0
 313 387 323 358 337 345 c 1
 340 346 352 357 359 366 c 0
 366 374 371 381 377 391 c 1
 404 369 l 1
300 322 m 0
 300 322 l 0
 278 341 264 350 233 350 c 0
 231 350 230 350 228 350 c 0
 181 350 133 331 131 322 c 0
 131 322 l 0
 131 314 169 295 209 295 c 0
 212 295 214 295 217 295 c 0
 257 297 270 304 300 322 c 0
123 129 m 0
 146 129 160 150 160 167 c 0
 160 179 152 190 136 190 c 0
 114 190 100 169 100 152 c 0
 100 140 107 129 123 129 c 0
EndSplineSet
MinimumDistance: x7,-1 
EndChar
StartChar: uni0E2F
Encoding: 207 3631 175
OldEncoding: 3631
Width: 338
Flags: HW
HStem: -1 41
VStem: 277 47
Fore
311 94 m 1
 311 94 l 0
 307 75 296 43 268 23 c 0
 248 9 232 0 208 -1 c 1
 196 33 l 1
 206 33 225 38 244 54 c 0
 257 64 263 79 266 95 c 2
 298 243 l 1
 275 214 231 184 176 184 c 0
 173 184 l 0
 108 185 83 225 83 271 c 0
 83 285 85 300 90 314 c 0
 103 358 141 385 178 385 c 0
 186 385 194 384 201 381 c 0
 220 375 228 359 228 341 c 0
 228 319 215 293 195 279 c 0
 182 269 167 264 153 264 c 0
 144 264 135 267 127 271 c 1
 127 269 127 267 127 264 c 0
 127 251 130 228 160 221 c 0
 167 220 173 219 180 219 c 0
 222 219 259 249 282 279 c 0
 317 324 327 375 328 385 c 1
 330 385 332 386 334 386 c 0
 344 386 352 382 359 375 c 0
 364 370 366 364 366 356 c 0
 366 353 366 349 365 346 c 2
 311 94 l 1
159 295 m 0
 182 295 196 315 196 333 c 0
 196 345 189 356 172 356 c 0
 148 356 134 336 134 318 c 0
 134 306 142 295 159 295 c 0
EndSplineSet
MinimumDistance: x4,-1 
EndChar
StartChar: uni0E30
Encoding: 208 3632 176
OldEncoding: 3632
Width: 333
Flags: HW
Fore
349 308 m 1
 349 308 l 0
 344 302 302 267 244 248 c 0
 228 243 206 239 184 239 c 0
 158 239 131 245 115 264 c 0
 109 271 106 282 106 294 c 0
 106 326 128 365 177 372 c 0
 186 372 l 0
 216 372 237 354 237 328 c 0
 237 322 l 0
 235 302 230 293 220 279 c 1
 232 282 261 290 293 311 c 0
 326 332 348 355 363 373 c 1
 349 308 l 1
300 76 m 1
 300 76 l 0
 295 70 252 35 194 16 c 0
 178 11 156 7 134 7 c 0
 108 7 82 13 66 32 c 0
 60 39 57 50 57 62 c 0
 57 94 79 133 128 140 c 0
 137 140 l 0
 167 140 188 122 188 96 c 0
 188 90 l 0
 186 70 181 61 171 47 c 1
 183 50 211 58 244 79 c 0
 276 100 299 123 314 141 c 1
 300 76 l 1
166 279 m 0
 166 279 l 0
 190 279 205 300 205 318 c 0
 205 331 197 342 180 342 c 0
 156 342 141 321 141 303 c 0
 141 290 148 279 166 279 c 0
117 47 m 0
 141 47 155 68 155 86 c 0
 155 99 147 110 130 110 c 0
 106 110 91 89 91 71 c 0
 91 58 99 47 117 47 c 0
EndSplineSet
MinimumDistance: x12,-1 
EndChar
StartChar: uni0E31
Encoding: 209 3633 177
OldEncoding: 3633
Width: 0
Flags: HW
Fore
164 530 m 1
 164 530 l 0
 139 511 90 486 44 476 c 0
 19 470 -10 465 -36 465 c 0
 -83 465 -123 479 -133 520 c 0
 -134 523 -134 527 -134 531 c 0
 -134 561 -110 605 -63 610 c 0
 -60 610 -56 611 -53 611 c 0
 -20 611 -3 589 -3 562 c 0
 -3 555 -4 548 -7 540 c 0
 -17 515 -24 513 -31 506 c 1
 -16 506 l 0
 6 506 30 508 66 523 c 0
 123 545 171 592 179 601 c 1
 164 530 l 1
-76 515 m 0
 -51 515 -35 537 -35 556 c 0
 -35 569 -43 581 -62 581 c 0
 -87 581 -103 559 -103 540 c 0
 -103 527 -95 515 -76 515 c 0
EndSplineSet
MinimumDistance: x2,-1 
EndChar
StartChar: uni0E32
Encoding: 210 3634 178
OldEncoding: 3634
Width: 286
Flags: HW
HStem: 0 41 361 41
VStem: 231 47
Fore
234 0 m 1
 189 0 l 1
 245 265 l 2
 248 281 250 294 250 305 c 0
 250 334 236 347 197 347 c 0
 138 347 113 308 99 288 c 1
 70 311 l 1
 94 346 123 386 198 386 c 0
 201 386 203 386 206 386 c 0
 277 384 297 351 297 312 c 0
 297 299 295 286 292 273 c 2
 234 0 l 1
EndSplineSet
MinimumDistance: x0,-1 
EndChar
StartChar: uni0E33
Encoding: 211 3635 179
OldEncoding: 3635
Width: 286
Flags: HW
HStem: 0 41 361 41
VStem: 240 47
Fore
-25 441 m 0
 -25 441 l 0
 -64 441 -81 466 -81 495 c 0
 -81 534 -49 580 4 580 c 0
 43 580 60 555 60 526 c 0
 60 487 28 441 -25 441 c 0
-18 475 m 0
 -18 475 l 0
 10 475 26 499 26 519 c 0
 26 533 17 546 -3 546 c 0
 -30 546 -47 522 -47 502 c 0
 -47 488 -38 475 -18 475 c 0
230 0 m 1
 185 0 l 1
 241 265 l 2
 244 281 246 294 246 305 c 0
 246 334 232 347 193 347 c 0
 134 347 109 308 95 288 c 1
 66 311 l 1
 90 346 119 386 194 386 c 0
 197 386 199 386 202 386 c 0
 273 384 293 351 293 312 c 0
 293 299 291 286 288 273 c 2
 230 0 l 1
EndSplineSet
MinimumDistance: x0,-1 
EndChar
StartChar: uni0E34
Encoding: 212 3636 180
OldEncoding: 3636
Width: 0
Flags: HW
HStem: 459 39 537 39
VStem: -393 293
Fore
18 428 m 0
 18 428 l 0
 -30 450 -60 459 -119 459 c 0
 -123 459 -126 459 -129 459 c 0
 -182 459 -220 451 -274 432 c 1
 -256 514 -186 575 -98 576 c 0
 -97 576 -97 576 -96 576 c 0
 -24 576 21 526 21 460 c 0
 21 450 20 439 18 428 c 0
-14 476 m 1
 -24 518 -56 541 -102 541 c 0
 -149 541 -184 520 -213 481 c 1
 -188 488 -165 494 -118 495 c 0
 -112 495 l 0
 -68 495 -37 485 -14 476 c 1
EndSplineSet
EndChar
StartChar: uni0E35
Encoding: 213 3637 181
OldEncoding: 3637
Width: 0
Flags: HW
HStem: 479 41 560 41
VStem: -124 47
Fore
28 431 m 0
 28 431 l 0
 -23 454 -54 462 -120 462 c 0
 -173 461 -210 454 -265 435 c 1
 -248 517 -170 579 -89 579 c 0
 -16 579 -5 541 -4 541 c 1
 14 624 l 1
 59 624 l 1
 31 496 l 1
 31 496 32 486 32 475 c 0
 32 466 l 0
 31 452 28 434 28 431 c 0
-5 479 m 1
 -14 521 -46 544 -93 544 c 0
 -139 544 -176 522 -203 484 c 1
 -179 491 -157 496 -108 497 c 0
 -102 497 l 0
 -58 497 -28 488 -5 479 c 1
EndSplineSet
MinimumDistance: x11,-1 
EndChar
StartChar: uni0E36
Encoding: 214 3638 182
OldEncoding: 3638
Width: 0
Flags: HW
HStem: 466 41 546 41
VStem: -379 304
Fore
45 550 m 0
 45 550 l 0
 37 535 24 525 7 519 c 1
 15 504 19 498 20 476 c 0
 21 468 21 462 21 456 c 0
 21 439 18 430 16 419 c 1
 -32 441 -61 449 -121 449 c 0
 -125 449 -128 449 -132 449 c 0
 -185 449 -221 442 -275 423 c 1
 -265 475 -231 520 -187 545 c 0
 -152 565 -120 569 -98 569 c 0
 -80 569 -68 566 -66 566 c 1
 -65 574 -67 586 -52 605 c 0
 -37 624 -14 632 6 632 c 0
 19 632 30 629 37 624 c 0
 50 615 56 601 56 586 c 0
 56 575 52 562 45 550 c 0
-12 544 m 0
 -12 544 l 0
 11 544 25 563 25 580 c 0
 25 592 17 603 0 603 c 0
 -22 603 -36 583 -36 567 c 0
 -36 555 -29 544 -12 544 c 0
-16 467 m 1
 -26 508 -58 531 -104 531 c 0
 -150 531 -187 510 -214 472 c 1
 -189 478 -167 484 -120 485 c 0
 -114 485 l 0
 -70 485 -39 475 -16 467 c 1
EndSplineSet
MinimumDistance: x17,-1 
EndChar
StartChar: uni0E37
Encoding: 215 3639 183
OldEncoding: 3639
Width: 0
Flags: HW
HStem: 460 39 542 29
VStem: -194 45 -116 45
Fore
32 429 m 0
 32 429 l 0
 -16 451 -45 460 -105 460 c 0
 -108 460 -112 460 -115 460 c 0
 -168 460 -205 452 -259 433 c 1
 -255 455 -242 509 -191 547 c 0
 -155 574 -112 581 -87 581 c 0
 -81 581 -76 581 -72 580 c 1
 -62 625 l 1
 -18 625 l 1
 -29 572 l 1
 -28 572 -19 567 -13 563 c 0
 -6 558 -0 549 -0 549 c 1
 16 625 l 1
 60 625 l 1
 32 494 l 2
 32 492 34 480 34 468 c 0
 34 467 34 465 34 463 c 0
 34 449 33 433 32 429 c 0
1 478 m 1
 -10 519 -42 542 -88 542 c 0
 -134 542 -170 521 -198 482 c 1
 -173 489 -151 495 -104 496 c 0
 -98 496 l 0
 -53 496 -23 486 1 478 c 1
EndSplineSet
MinimumDistance: x13,-1 
EndChar
StartChar: uni0E38
Encoding: 216 3640 184
OldEncoding: 3640
Width: 0
Flags: HW
Fore
-116 -204 m 1
 -166 -204 l 1
 -150 -129 l 1
 -150 -129 -157 -132 -168 -132 c 0
 -173 -132 -180 -131 -187 -128 c 0
 -203 -121 -213 -112 -213 -93 c 0
 -213 -87 -212 -81 -210 -74 c 0
 -204 -48 -180 -23 -138 -23 c 0
 -138 -23 -137 -23 -136 -23 c 0
 -100 -24 -89 -40 -89 -63 c 0
 -89 -69 -89 -76 -91 -83 c 2
 -116 -204 l 1
-156 -98 m 0
 -139 -98 -129 -83 -129 -71 c 0
 -129 -62 -134 -54 -146 -54 c 0
 -163 -54 -174 -69 -174 -81 c 0
 -174 -90 -169 -98 -156 -98 c 0
EndSplineSet
MinimumDistance: x10,-1 
EndChar
StartChar: uni0E39
Encoding: 217 3641 185
OldEncoding: 3641
Width: 0
Flags: HW
HStem: -216 35
VStem: -240 40 -151 40
Fore
-175 -170 m 1
 -175 -170 l 1
 -175 -170 -173 -170 -166 -170 c 0
 -155 -170 -154 -165 -152 -154 c 0
 -151 -152 -125 -29 -125 -29 c 1
 -83 -29 l 1
 -83 -29 -111 -158 -111 -161 c 0
 -116 -182 -123 -201 -143 -201 c 0
 -158 -201 -185 -201 -185 -201 c 1
 -243 -201 l 1
 -227 -129 l 1
 -227 -129 -236 -132 -247 -132 c 0
 -253 -132 -260 -131 -267 -128 c 0
 -281 -122 -289 -109 -289 -92 c 0
 -289 -85 -288 -78 -285 -70 c 0
 -275 -43 -249 -26 -222 -26 c 0
 -188 -26 -174 -45 -174 -68 c 0
 -174 -72 -175 -77 -176 -82 c 1
 -196 -170 l 1
 -175 -170 l 1
-239 -101 m 0
 -222 -101 -212 -87 -212 -74 c 0
 -212 -65 -217 -57 -230 -57 c 0
 -247 -57 -257 -72 -257 -84 c 0
 -257 -93 -251 -101 -239 -101 c 0
EndSplineSet
MinimumDistance: x21,-1 
EndChar
StartChar: uni0E3A
Encoding: 218 3642 186
OldEncoding: 3642
Width: 0
Flags: HW
Fore
-134 -128 m 0
 -156 -128 -166 -114 -166 -97 c 0
 -166 -75 -147 -48 -117 -48 c 0
 -95 -48 -85 -62 -85 -79 c 0
 -85 -101 -103 -128 -134 -128 c 0
EndSplineSet
EndChar
StartChar: dottedcircle
Encoding: 221 9676 187
OldEncoding: 63262
Width: 420
Flags: W
HStem: 3 24<213 218> 27 25<120 126> 34 25<303 309> 87 24<68 74> 95 24<369 375> 180 24<411 416> 184 24<64 70> 268 24<406 412> 271 25<113 118> 326 25<357 363> 331 24<191 196> 354 24<286 291>
Fore
111 295 m 6
189 354 m 6
118 51 m 6
66 110 m 6
301 57 m 6
367 118 m 6
404 291 m 6
355 349 m 6
409 203 m 6
63 207 m 6
284 377 m 6
118 296 m 4
 123.78 296 127.515 291.909 127.515 287.105 c 0
 127.515 286.091 127.349 285.046 127 284 c 4
 126 277 120 271 113 271 c 4
 106.715 271 102.848 275.838 102.848 281.893 c 0
 102.848 282.581 102.898 283.285 103 284 c 4
 105 290 111 296 118 296 c 4
196 355 m 4
 202.399 355 207.127 350.821 207.127 344.755 c 0
 207.127 344.186 207.086 343.6 207 343 c 4
 206 337 198 331 191 331 c 4
 185.619 331 181.847 335.826 181.847 341.149 c 0
 181.847 341.762 181.897 342.381 182 343 c 4
 183 350 190 355 196 355 c 4
126 52 m 4
 131.481 52 136.128 46.9925 136.128 41.5522 c 0
 136.128 41.0374 136.086 40.5187 136 40 c 4
 134 33 127 27 121 27 c 4
 115.057 27 110.556 31.3248 110.556 36.9146 c 0
 110.556 37.9088 110.698 38.943 111 40 c 4
 112 46 119 52 126 52 c 4
74 111 m 4
 79.7802 111 83.5148 107.591 83.5148 102.461 c 0
 83.5148 101.379 83.3485 100.22 83 99 c 4
 82 92 75 87 68 87 c 4
 61.875 87 58.8125 90.8281 58.8125 96.4746 c 0
 58.8125 97.2812 58.875 98.125 59 99 c 4
 61 106 67 111 74 111 c 4
309 59 m 4
 315.125 59 318.188 54.4062 318.188 48.5684 c 0
 318.188 47.7344 318.125 46.875 318 46 c 4
 317 40 310 34 303 34 c 4
 297.619 34 293.847 38.8256 293.847 44.1491 c 0
 293.847 44.7617 293.897 45.3808 294 46 c 4
 295 53 303 59 309 59 c 4
375 119 m 4
 381.285 119 385.152 114.969 385.152 109.078 c 0
 385.152 108.408 385.102 107.715 385 107 c 4
 383 100 377 95 370 95 c 4
 364.22 95 360.485 98.4092 360.485 103.539 c 0
 360.485 104.621 360.651 105.78 361 107 c 4
 362 114 368 119 375 119 c 4
412 292 m 4
 418.285 292 422.152 287.969 422.152 282.078 c 0
 422.152 281.408 422.102 280.715 422 280 c 4
 420 273 414 268 407 268 c 4
 401.22 268 397.485 271.409 397.485 276.539 c 0
 397.485 277.621 397.651 278.78 398 280 c 4
 399 287 405 292 412 292 c 4
363 351 m 4
 369.285 351 373.152 346.162 373.152 340.107 c 0
 373.152 339.419 373.102 338.715 373 338 c 4
 372 332 364 326 357 326 c 4
 351.619 326 347.847 330.826 347.847 336.149 c 0
 347.847 336.762 347.897 337.381 348 338 c 4
 349 345 357 351 363 351 c 4
416 204 m 4
 422.4 204 427.127 199.821 427.127 193.755 c 0
 427.127 193.186 427.086 192.601 427 192 c 4
 425 185 418 180 411 180 c 4
 405.917 180 401.552 183.588 401.552 188.941 c 0
 401.552 189.907 401.694 190.93 402 192 c 4
 403 199 410 204 416 204 c 4
70 208 m 4
 76.2854 208 80.1521 203.969 80.1521 198.078 c 0
 80.1521 197.408 80.1021 196.715 80 196 c 4
 78 190 72 184 65 184 c 4
 59.2198 184 55.4852 188.091 55.4852 192.895 c 0
 55.4852 193.909 55.6515 194.954 56 196 c 4
 57 203 63 208 70 208 c 4
218 27 m 4
 223.78 27 227.515 23.5908 227.515 18.4614 c 0
 227.515 17.3789 227.349 16.2198 227 15 c 4
 226 8 220 3 213 3 c 4
 207.519 3 202.872 7.17289 202.872 13.2314 c 0
 202.872 13.8047 202.914 14.3949 203 15 c 4
 205 22 212 27 218 27 c 4
291 378 m 4
 297.285 378 301.152 373.162 301.152 367.831 c 0
 301.152 367.225 301.102 366.613 301 366 c 4
 299 359 293 354 286 354 c 4
 280.917 354 276.552 357.588 276.552 362.941 c 0
 276.552 363.907 276.694 364.93 277 366 c 4
 278 372 285 378 291 378 c 4
EndSplineSet
EndChar
StartChar: uni0E3F
Encoding: 223 3647 188
OldEncoding: 3647
Width: 411
Flags: HW
HStem: 0 53 213 53 414 53
VStem: 51 60 174 47 319 60
Fore
223 257 m 1
 255 407 l 1
 188 407 l 1
 156 257 l 1
 223 257 l 1
178 46 m 1
 213 210 l 1
 146 210 l 1
 111 46 l 1
 178 46 l 1
259 210 m 1
 224 46 l 1
 261 46 l 2
 324 46 353 92 361 130 c 0
 363 139 364 146 364 153 c 0
 364 206 312 210 265 210 c 2
 259 210 l 1
301 407 m 0
 269 257 l 1
 280 257 l 2
 344 257 375 295 382 328 c 0
 383 333 384 339 384 345 c 0
 384 372 369 404 301 407 c 0
276 508 m 1
 322 508 l 1
 310 453 l 1
 341 453 l 2
 374 453 434 431 434 365 c 0
 434 357 433 348 431 339 c 0
 422 298 394 261 345 240 c 1
 357 233 363 230 370 226 c 0
 395 211 408 187 408 156 c 0
 408 147 407 138 405 127 c 0
 385 34 300 0 270 0 c 2
 214 0 l 1
 201 -61 l 1
 155 -61 l 1
 168 0 l 1
 55 0 l 1
 151 453 l 1
 264 453 l 1
 276 508 l 1
EndSplineSet
MinimumDistance: x10,-1 y17,0 y17,19 y7,5 y7,6 y3,1 y2,4 x4,2 x4,3 
EndChar
StartChar: uni0E40
Encoding: 224 3648 189
OldEncoding: 3648
Width: 222
Flags: HW
HStem: -1 20
VStem: 62 47
Fore
202 50 m 0
 202 50 l 0
 190 19 160 -1 127 -1 c 0
 88 -1 73 21 73 48 c 0
 73 54 74 60 75 66 c 2
 143 385 l 1
 188 385 l 1
 132 120 l 1
 132 120 143 124 157 124 c 0
 165 124 173 123 181 119 c 0
 197 112 207 97 207 77 c 0
 207 69 205 60 202 50 c 0
134 32 m 0
 158 32 172 52 172 69 c 0
 172 81 164 92 147 92 c 0
 124 92 110 72 110 55 c 0
 110 43 117 32 134 32 c 0
EndSplineSet
MinimumDistance: x0,-1 
EndChar
StartChar: uni0E41
Encoding: 225 3649 190
OldEncoding: 3649
Width: 392
Flags: HW
HStem: -1 20
VStem: 62 47 239 47
Fore
376 50 m 0
 376 50 l 0
 365 19 334 -1 302 -1 c 0
 262 -1 247 22 247 49 c 0
 247 54 248 60 249 66 c 2
 317 385 l 1
 363 385 l 1
 307 120 l 1
 307 120 318 124 332 124 c 0
 340 124 348 123 356 119 c 0
 372 112 381 98 381 78 c 0
 381 70 380 60 376 50 c 0
202 50 m 0
 202 50 l 0
 190 19 160 -1 127 -1 c 0
 88 -1 73 21 73 48 c 0
 73 54 74 60 75 66 c 2
 143 385 l 1
 188 385 l 1
 132 120 l 1
 132 120 143 124 157 124 c 0
 165 124 173 123 181 119 c 0
 197 112 207 97 207 77 c 0
 207 69 205 60 202 50 c 0
309 32 m 0
 309 32 l 0
 332 32 346 52 346 69 c 0
 346 81 339 92 322 92 c 0
 298 92 284 72 284 55 c 0
 284 43 292 32 309 32 c 0
134 32 m 0
 158 32 172 52 172 69 c 0
 172 81 164 92 147 92 c 0
 124 92 110 72 110 55 c 0
 110 43 117 32 134 32 c 0
EndSplineSet
MinimumDistance: x5,-1 
EndChar
StartChar: uni0E42
Encoding: 226 3650 191
OldEncoding: 3650
Width: 270
Flags: HW
HStem: -1 20
VStem: 115 47
Fore
363 628 m 1
 363 628 l 1
 363 628 347 612 315 612 c 0
 314 612 312 612 310 612 c 0
 272 615 250 640 213 640 c 0
 208 640 203 640 198 639 c 0
 178 636 164 625 160 623 c 1
 162 623 200 608 221 592 c 0
 239 578 250 565 250 544 c 0
 250 539 249 534 248 528 c 2
 162 120 l 1
 162 120 173 124 187 124 c 0
 195 124 203 123 211 119 c 0
 227 112 237 97 237 77 c 0
 237 69 235 60 232 50 c 0
 220 19 190 -1 157 -1 c 0
 118 -1 103 21 103 48 c 0
 103 54 104 60 105 66 c 2
 202 521 l 2
 203 527 204 531 204 536 c 0
 204 557 190 566 161 583 c 0
 132 600 95 611 91 611 c 1
 113 635 143 655 164 662 c 0
 185 669 202 672 218 672 c 0
 262 672 288 650 315 650 c 0
 321 650 l 0
 352 653 354 661 356 661 c 1
 363 628 l 1
164 32 m 0
 188 32 202 52 202 69 c 0
 202 81 194 92 177 92 c 0
 154 92 140 72 140 55 c 0
 140 43 147 32 164 32 c 0
EndSplineSet
MinimumDistance: x5,-1 
EndChar
StartChar: uni0E43
Encoding: 227 3651 192
OldEncoding: 3651
Width: 261
Flags: HW
HStem: -1 20 600 30 654 41
VStem: 111 47
Fore
238 50 m 0
 238 50 l 0
 226 19 196 -1 163 -1 c 0
 124 -1 109 21 109 48 c 0
 109 54 110 60 111 66 c 2
 224 598 l 2
 225 601 225 603 225 606 c 0
 225 623 213 637 195 637 c 0
 175 637 158 625 151 606 c 1
 152 606 156 607 160 607 c 0
 164 607 170 606 178 602 c 0
 186 597 190 586 190 574 c 0
 190 552 180 526 166 513 c 0
 157 504 144 499 132 499 c 0
 115 499 100 508 95 526 c 0
 94 530 93 535 93 541 c 0
 93 567 106 610 130 634 c 0
 150 656 172 669 205 669 c 0
 249 669 270 645 270 613 c 0
 270 607 269 601 268 595 c 2
 168 120 l 1
 168 120 179 124 193 124 c 0
 201 124 209 123 217 119 c 0
 233 112 243 97 243 77 c 0
 243 69 241 60 238 50 c 0
136 527 m 0
 136 527 l 0
 151 527 160 545 160 559 c 0
 160 570 156 578 147 578 c 0
 133 578 122 559 122 544 c 0
 122 534 126 527 136 527 c 0
170 32 m 0
 194 32 208 52 208 69 c 0
 208 81 200 92 183 92 c 0
 160 92 146 72 146 55 c 0
 146 43 153 32 170 32 c 0
EndSplineSet
MinimumDistance: x22,-1 
EndChar
StartChar: uni0E44
Encoding: 228 3652 193
OldEncoding: 3652
Width: 293
Flags: HW
HStem: -1 20 657 41
VStem: 20 47 161 47
Fore
262 50 m 0
 262 50 l 0
 251 19 221 -1 188 -1 c 0
 149 -1 134 21 134 48 c 0
 134 54 135 60 136 66 c 2
 252 610 l 2
 253 615 255 622 255 627 c 0
 255 631 254 634 250 634 c 0
 242 634 237 623 234 616 c 1
 175 481 l 2
 167 462 154 444 130 442 c 0
 127 442 l 0
 106 442 97 457 97 475 c 0
 97 477 98 480 98 483 c 1
 112 591 l 1
 113 596 114 602 114 606 c 0
 114 611 113 616 112 620 c 0
 108 634 94 635 91 635 c 0
 90 635 90 635 90 635 c 1
 98 672 l 1
 101 672 103 672 106 672 c 0
 121 672 134 667 143 658 c 0
 152 650 155 640 155 628 c 0
 155 623 155 618 154 612 c 1
 136 475 l 1
 207 635 l 1
 214 651 232 672 262 672 c 0
 263 672 263 672 264 672 c 0
 291 671 301 657 301 636 c 0
 301 630 300 622 298 614 c 2
 193 120 l 1
 193 120 204 124 218 124 c 0
 226 124 234 123 242 119 c 0
 258 112 267 98 267 78 c 0
 267 70 266 60 262 50 c 0
195 32 m 0
 218 32 232 52 232 69 c 0
 232 81 225 92 208 92 c 0
 184 92 170 72 170 55 c 0
 170 43 178 32 195 32 c 0
EndSplineSet
MinimumDistance: x14,-1 
EndChar
StartChar: uni0E45
Encoding: 229 3653 194
OldEncoding: 3653
Width: 144
Flags: HW
HStem: 361 41
VStem: 238 47
Fore
76 -142 m 1
 31 -142 l 1
 113 245 l 2
 117 262 122 285 122 305 c 0
 122 329 114 348 84 349 c 0
 83 349 82 349 80 349 c 0
 28 349 12 327 -4 297 c 1
 -9 301 -32 314 -32 314 c 0
 -32 314 l 0
 -31 314 l 1
 -16 348 7 385 90 385 c 0
 154 385 170 357 170 320 c 0
 170 300 165 276 160 252 c 2
 76 -142 l 1
EndSplineSet
MinimumDistance: x0,-1 
EndChar
StartChar: uni0E46
Encoding: 230 3654 195
OldEncoding: 3654
Width: 369
Flags: HW
HStem: -165 41
VStem: 368 47
Fore
320 -38 m 1
 320 -38 l 0
 313 -72 297 -99 267 -121 c 0
 238 -143 197 -158 179 -159 c 1
 165 -126 l 1
 168 -126 213 -114 239 -94 c 0
 259 -80 269 -61 274 -38 c 2
 343 288 l 2
 345 294 345 301 345 306 c 0
 345 316 343 325 336 331 c 0
 329 338 317 345 308 345 c 0
 306 345 304 345 302 344 c 2
 250 317 l 1
 213 341 l 2
 210 341 l 0
 201 341 179 331 167 314 c 0
 153 296 150 285 149 269 c 1
 149 269 165 282 191 282 c 0
 195 282 198 281 202 281 c 0
 227 278 243 257 243 231 c 0
 243 217 238 203 228 189 c 0
 211 166 187 157 165 157 c 0
 146 157 128 164 118 175 c 0
 105 188 101 208 101 230 c 0
 101 263 112 300 125 320 c 0
 149 356 180 375 219 385 c 1
 258 353 l 1
 309 385 l 1
 315 385 349 380 365 367 c 0
 382 352 392 331 392 310 c 0
 392 306 392 302 391 298 c 2
 320 -38 l 1
171 187 m 0
 196 187 212 209 212 227 c 0
 212 240 204 252 185 252 c 0
 160 252 145 230 145 212 c 0
 145 199 153 187 171 187 c 0
EndSplineSet
MinimumDistance: x4,-1 
EndChar
StartChar: uni0E47
Encoding: 231 3655 196
OldEncoding: 3655
Width: 0
Flags: HW
VStem: -51 50
Fore
93 636 m 1
 93 636 l 0
 91 625 84 613 77 603 c 0
 52 571 14 563 -20 563 c 0
 -29 563 -38 563 -46 564 c 0
 -63 566 -79 568 -95 570 c 0
 -102 571 -109 571 -116 571 c 0
 -138 571 -158 566 -172 550 c 0
 -183 539 -186 526 -186 513 c 0
 -186 507 l 1
 -186 502 l 1
 -169 520 -150 528 -132 528 c 0
 -109 528 -88 516 -73 500 c 1
 -63 523 -41 535 -21 535 c 0
 0 535 19 522 19 497 c 0
 19 492 18 487 17 482 c 0
 11 454 -15 436 -41 436 c 0
 -46 436 -50 437 -55 438 c 0
 -77 443 -89 458 -103 472 c 0
 -112 481 -122 488 -136 488 c 0
 -140 488 -145 488 -151 486 c 0
 -171 481 -180 460 -185 438 c 2
 -186 433 l 1
 -214 445 -231 465 -231 496 c 0
 -231 499 -230 502 -230 506 c 0
 -226 554 -191 592 -155 601 c 0
 -140 605 -126 606 -113 606 c 0
 -80 606 -51 598 -17 598 c 0
 -13 598 -10 598 -6 598 c 0
 19 599 40 611 45 636 c 2
 46 639 l 1
 94 639 l 1
 93 636 l 1
-13 485 m 0
 -13 487 -12 488 -12 490 c 0
 -12 497 -16 502 -26 502 c 0
 -37 502 -44 494 -46 485 c 0
 -46 483 -47 482 -47 480 c 0
 -47 474 -43 468 -34 468 c 0
 -22 468 -15 477 -13 485 c 0
EndSplineSet
EndChar
StartChar: uni0E48
Encoding: 232 3656 197
OldEncoding: 3656
Width: 0
Flags: HW
HStem: 647 119
VStem: -119 45
Fore
64 647 m 1
 21 647 l 1
 46 769 l 1
 89 769 l 1
 64 647 l 1
EndSplineSet
MinimumDistance: x0,-1 
EndChar
StartChar: uni0E49
Encoding: 233 3657 198
OldEncoding: 3657
Width: 0
Flags: HW
Fore
164 720 m 1
 164 720 l 0
 141 697 119 676 71 657 c 0
 38 644 10 640 -15 640 c 0
 -27 640 -39 641 -50 642 c 1
 -39 648 -29 656 -22 664 c 0
 -15 671 -9 683 -7 686 c 1
 -10 686 -12 686 -14 686 c 0
 -30 686 -41 692 -51 703 c 0
 -55 708 -57 715 -57 723 c 0
 -57 749 -37 781 -0 785 c 0
 4 785 7 786 11 786 c 0
 44 786 53 766 53 745 c 0
 53 739 l 0
 49 704 20 672 18 671 c 0
 47 678 76 693 95 706 c 0
 132 730 164 762 177 782 c 1
 164 720 l 1
-5 711 m 0
 15 711 25 727 25 741 c 0
 25 752 19 761 7 761 c 0
 6 761 6 761 5 761 c 0
 -14 760 -26 743 -26 730 c 0
 -26 720 -20 711 -5 711 c 0
EndSplineSet
MinimumDistance: x15,-1 
EndChar
StartChar: uni0E4A
Encoding: 234 3658 199
OldEncoding: 3658
Width: 0
Flags: HW
HStem: 698 16
Fore
210 746 m 1
 210 746 l 0
 200 721 187 703 169 685 c 0
 136 654 103 641 64 641 c 0
 52 641 l 1
 61 646 84 668 93 697 c 0
 96 705 98 713 98 721 c 0
 98 734 92 746 79 747 c 0
 73 747 l 0
 56 747 42 736 39 732 c 1
 36 736 21 747 6 747 c 0
 4 747 2 746 -0 746 c 0
 -19 741 -31 725 -34 707 c 1
 -24 714 -18 717 -3 717 c 0
 16 717 27 703 27 686 c 0
 27 683 27 679 26 676 c 0
 20 655 -1 638 -25 638 c 0
 -26 638 -26 638 -27 638 c 0
 -53 639 -67 659 -67 686 c 0
 -67 699 -64 713 -57 728 c 0
 -47 754 -25 775 3 777 c 0
 5 777 7 777 8 777 c 0
 25 777 37 769 42 754 c 1
 54 769 73 777 92 777 c 0
 117 777 132 758 132 733 c 0
 132 731 132 728 132 726 c 0
 128 693 107 669 105 666 c 1
 128 676 143 692 158 711 c 0
 175 732 182 764 184 773 c 1
 210 746 l 1
-18 659 m 0
 -5 659 3 671 3 681 c 0
 3 688 -1 695 -11 695 c 0
 -24 695 -32 683 -32 673 c 0
 -32 665 -28 659 -18 659 c 0
EndSplineSet
MinimumDistance: x27,-1 
EndChar
StartChar: uni0E4B
Encoding: 235 3659 200
OldEncoding: 3659
Width: 0
Flags: HW
HStem: 711 40
VStem: -121 46
Fore
125 686 m 1
 73 686 l 1
 62 636 l 1
 21 636 l 1
 32 686 l 1
 -23 686 l 1
 -14 727 l 1
 41 727 l 1
 52 780 l 1
 93 780 l 1
 82 727 l 1
 134 727 l 1
 125 686 l 1
EndSplineSet
MinimumDistance: x0,-1 y5,3 y5,4 y11,9 y11,10 x8,6 x8,7 x11,1 x11,0 
EndChar
StartChar: uni0E4C
Encoding: 236 3660 201
OldEncoding: 3660
Width: 0
Flags: HW
HStem: 581 29 660 29
Fore
189 780 m 1
 189 780 l 0
 185 772 181 744 144 726 c 0
 100 704 54 718 15 701 c 0
 -4 692 -8 677 -10 674 c 1
 1 681 6 684 24 684 c 0
 48 684 65 669 65 645 c 0
 65 641 65 638 64 634 c 0
 57 602 29 583 0 581 c 0
 -1 581 l 0
 -36 581 -55 607 -55 638 c 0
 -55 650 -52 663 -46 676 c 0
 -21 727 22 741 88 741 c 0
 140 741 142 778 146 780 c 1
 189 780 l 1
5 607 m 0
 25 607 37 624 37 639 c 0
 37 650 30 660 15 660 c 0
 -5 660 -18 643 -18 628 c 0
 -18 617 -11 607 5 607 c 0
EndSplineSet
MinimumDistance: x0,-1 
EndChar
StartChar: uni0E4D
Encoding: 237 3661 202
OldEncoding: 3661
Width: 0
Flags: HW
Fore
-23 413 m 0
 -23 413 l 0
 -60 413 -77 437 -77 464 c 0
 -77 502 -46 546 5 546 c 0
 43 546 59 522 59 495 c 0
 59 457 28 413 -23 413 c 0
-17 443 m 0
 11 443 29 468 29 488 c 0
 29 503 20 516 -1 516 c 0
 -29 516 -46 491 -46 471 c 0
 -46 456 -37 443 -17 443 c 0
EndSplineSet
MinimumDistance: x1,-1 
EndChar
StartChar: uni0E4E
Encoding: 238 3662 203
OldEncoding: 3662
Width: 0
Flags: HW
HStem: 477 27<-87 -83.5> 673 22<-15.5 -13>
VStem: -170 56
Fore
85 500 m 1
 64 485 35 477 0 477 c 0
 -26 477 -43 482 -51 493 c 0
 -57 499 -59 507 -59 515 c 0
 -59 519 -59 523 -58 527 c 0
 -56 542 -47 556 -33 568 c 0
 -11 589 19 599 55 599 c 1
 45 600 35 603 26 611 c 0
 20 616 17 623 17 632 c 0
 17 635 17 638 18 641 c 1
 30 669 62 687 115 694 c 0
 120 695 127 695 138 695 c 0
 141 695 143 695 146 695 c 0
 163 695 175 692 184 687 c 1
 155 668 l 2
 154 668 151 668 145 670 c 0
 141 671 135 672 130 673 c 0
 124 673 118 672 109 670 c 0
 87 664 73 653 67 636 c 0
 67 634 66 632 66 629 c 0
 66 622 69 617 76 613 c 0
 85 608 95 605 108 605 c 1
 93 582 l 1
 64 582 40 576 19 562 c 0
 9 554 2 544 -1 532 c 0
 -1 530 -1 528 -1 527 c 0
 -1 522 -0 519 1 515 c 0
 6 508 14 504 26 504 c 0
 43 504 56 508 68 518 c 1
 85 500 l 1
EndSplineSet
MinimumDistance: x4,-1 
EndChar
StartChar: uni0E4F
Encoding: 239 3663 204
OldEncoding: 3663
Width: 391
Flags: HW
HStem: 0 32
Fore
202 0 m 0
 202 0 l 0
 117 0 79 54 79 116 c 0
 79 201 150 301 266 301 c 0
 350 301 388 247 388 185 c 0
 388 101 318 0 202 0 c 0
206 20 m 0
 206 20 l 0
 306 20 366 107 366 181 c 0
 366 234 334 280 262 280 c 0
 162 280 101 193 101 119 c 0
 101 66 133 20 206 20 c 0
216 65 m 0
 216 65 l 0
 167 65 146 96 146 131 c 0
 146 179 186 236 252 236 c 0
 300 236 322 205 322 170 c 0
 322 122 282 65 216 65 c 0
219 85 m 0
 269 85 299 128 299 164 c 0
 299 190 282 213 246 213 c 0
 196 213 166 170 166 134 c 0
 166 108 183 85 219 85 c 0
EndSplineSet
MinimumDistance: x0,-1 
EndChar
StartChar: uni0E50
Encoding: 240 3664 205
OldEncoding: 3664
Width: 399
Flags: HW
HStem: -1 41 241 41
VStem: 46 47 317 47
Fore
388 136 m 0
 388 136 l 0
 371 58 305 -1 208 -1 c 0
 208 -1 207 -1 206 -1 c 0
 122 -0 78 42 78 104 c 0
 78 114 80 125 82 136 c 0
 99 215 168 271 264 271 c 0
 347 271 392 229 392 167 c 0
 392 157 390 147 388 136 c 0
342 136 m 0
 344 145 345 153 345 162 c 0
 345 205 317 236 256 236 c 0
 183 236 140 192 128 136 c 0
 126 127 125 119 125 111 c 0
 125 68 154 37 214 37 c 0
 285 37 330 80 342 136 c 0
EndSplineSet
MinimumDistance: x13,-1 
EndChar
StartChar: uni0E51
Encoding: 241 3665 206
OldEncoding: 3665
Width: 399
Flags: HW
HStem: 240 41
VStem: 54 47 339 47
Fore
399 129 m 0
 399 129 l 0
 379 4 287 -44 268 -52 c 1
 250 -20 l 1
 292 -2 337 36 353 127 c 0
 354 133 355 140 355 147 c 0
 355 189 329 234 263 234 c 0
 262 234 260 234 259 234 c 0
 196 233 141 195 126 138 c 0
 123 125 121 113 121 103 c 0
 121 75 132 54 158 43 c 0
 166 40 173 39 179 39 c 0
 202 39 217 51 219 52 c 0
 216 52 213 52 211 52 c 0
 187 52 168 63 161 84 c 0
 160 88 159 93 159 98 c 0
 159 130 186 173 231 177 c 0
 234 177 238 178 241 178 c 0
 280 178 297 151 297 121 c 0
 297 113 295 105 293 97 c 0
 277 44 230 -1 172 -1 c 0
 103 -0 75 39 75 91 c 0
 75 106 78 122 82 139 c 0
 101 215 171 270 265 270 c 0
 357 270 401 223 401 156 c 0
 401 147 401 138 399 129 c 0
224 85 m 0
 245 86 258 104 258 120 c 0
 258 132 250 142 234 142 c 0
 233 142 233 142 232 142 c 0
 211 141 199 123 199 108 c 0
 199 96 206 85 222 85 c 0
 223 85 223 85 224 85 c 0
EndSplineSet
MinimumDistance: x4,-1 
EndChar
StartChar: uni0E52
Encoding: 242 3666 207
OldEncoding: 3666
Width: 399
Flags: HW
HStem: 0 41 241 41
VStem: 75 47 293 34 394 47
Fore
406 75 m 1
 406 75 l 0
 401 54 401 36 385 20 c 0
 370 6 354 0 335 0 c 2
 90 0 l 2
 74 0 63 8 54 15 c 0
 50 20 48 30 48 41 c 0
 48 48 48 56 50 63 c 2
 108 333 l 2
 108 335 109 337 109 339 c 0
 109 346 106 350 99 355 c 0
 92 360 80 361 72 361 c 0
 69 361 67 361 66 361 c 1
 74 400 l 1
 75 400 77 400 79 400 c 0
 91 400 114 398 130 390 c 0
 148 380 156 365 156 348 c 0
 156 344 155 340 154 335 c 2
 99 73 l 2
 98 67 96 62 96 58 c 0
 96 55 97 52 98 49 c 0
 103 40 111 38 121 38 c 2
 316 38 l 2
 328 38 340 39 349 48 c 0
 357 55 359 65 361 75 c 2
 386 193 l 2
 387 198 388 204 388 209 c 0
 388 222 383 233 366 233 c 0
 333 233 320 186 319 185 c 1
 287 185 l 1
 287 186 287 187 287 189 c 0
 287 201 281 233 252 233 c 0
 251 233 l 0
 218 232 211 210 207 202 c 1
 211 203 215 203 219 203 c 0
 231 203 242 200 250 193 c 0
 260 185 265 172 265 158 c 0
 265 132 249 102 220 90 c 0
 210 86 200 84 191 84 c 0
 160 84 139 106 139 142 c 0
 139 150 140 158 142 167 c 0
 154 218 197 270 249 271 c 0
 251 271 252 271 254 271 c 0
 308 271 313 237 314 235 c 1
 316 238 333 271 379 271 c 0
 418 271 434 247 434 216 c 0
 434 210 433 203 432 196 c 2
 406 75 l 1
198 117 m 0
 218 117 230 135 230 150 c 0
 230 161 223 170 209 170 c 0
 189 170 177 152 177 137 c 0
 177 126 183 117 198 117 c 0
EndSplineSet
MinimumDistance: x4,-1 
EndChar
StartChar: uni0E53
Encoding: 243 3667 208
OldEncoding: 3667
Width: 399
Flags: HW
HStem: -2 20 241 41
VStem: 233 47 381 47
Fore
403 0 m 1
 359 0 l 1
 396 172 l 2
 397 178 398 185 398 191 c 0
 398 212 389 231 364 232 c 0
 363 232 l 0
 331 232 304 201 297 170 c 2
 261 0 l 1
 216 0 l 1
 252 171 l 2
 253 174 253 178 253 181 c 0
 253 204 238 231 196 231 c 0
 162 231 136 199 126 170 c 0
 119 152 114 132 114 119 c 0
 114 116 l 1
 124 121 134 124 145 124 c 0
 148 124 153 124 157 123 c 0
 182 119 195 100 195 75 c 0
 195 70 194 64 193 58 c 0
 185 22 150 -2 118 -2 c 0
 113 -2 108 -1 103 0 c 0
 70 9 59 36 59 70 c 0
 59 88 62 108 66 128 c 0
 78 197 125 269 206 271 c 0
 212 271 l 0
 277 271 286 222 286 221 c 0
 288 224 310 271 371 271 c 0
 419 271 444 242 444 203 c 0
 444 196 443 189 441 181 c 2
 403 0 l 1
125 33 m 0
 147 33 160 52 160 68 c 0
 160 80 153 90 137 90 c 0
 115 90 101 71 101 55 c 0
 101 43 108 33 125 33 c 0
EndSplineSet
EndChar
StartChar: uni0E54
Encoding: 244 3668 209
OldEncoding: 3668
Width: 399
Flags: HW
HStem: -4 20 19 68
VStem: 447 47
Fore
544 405 m 1
 544 405 l 0
 535 367 492 291 444 260 c 0
 409 237 374 233 338 233 c 0
 314 233 290 235 266 235 c 0
 247 235 227 234 208 229 c 0
 156 217 121 186 107 133 c 0
 104 122 103 112 103 103 c 0
 103 62 127 37 164 37 c 0
 170 37 175 38 181 39 c 0
 209 44 225 45 234 45 c 0
 239 45 242 45 244 45 c 0
 245 45 245 45 246 45 c 1
 242 45 175 69 175 123 c 0
 176 155 203 196 247 200 c 0
 256 200 l 0
 291 200 307 178 307 151 c 0
 307 144 306 135 303 127 c 0
 296 108 281 95 262 87 c 0
 263 87 271 72 297 66 c 0
 325 60 342 61 366 53 c 0
 389 45 394 40 408 31 c 1
 377 -4 l 1
 374 -3 344 16 302 18 c 0
 299 18 297 18 294 18 c 0
 250 18 197 -1 152 -1 c 0
 122 -1 95 7 76 33 c 0
 62 51 55 74 55 99 c 0
 55 146 80 200 128 235 c 0
 173 268 217 275 260 275 c 0
 287 275 314 272 339 272 c 0
 378 272 414 279 444 312 c 0
 477 347 493 382 504 421 c 1
 544 405 l 1
239 112 m 0
 259 113 271 130 271 145 c 0
 271 157 264 167 248 167 c 0
 247 167 247 167 246 167 c 0
 226 166 214 149 214 134 c 0
 214 122 221 112 237 112 c 0
 238 112 238 112 239 112 c 0
EndSplineSet
MinimumDistance: x28,-1 
EndChar
StartChar: uni0E55
Encoding: 245 3669 210
OldEncoding: 3669
Width: 399
Flags: HW
HStem: -4 20 19 68
Fore
517 433 m 1
 517 433 l 0
 511 415 503 400 493 384 c 0
 480 363 463 348 462 346 c 1
 462 346 469 333 469 314 c 0
 469 298 464 278 446 259 c 0
 422 234 391 228 357 228 c 0
 323 228 286 234 251 234 c 0
 236 234 221 232 206 229 c 0
 154 217 117 185 103 133 c 0
 100 122 99 112 99 103 c 0
 99 62 124 37 161 37 c 0
 166 37 172 38 178 39 c 0
 206 44 221 45 230 45 c 0
 235 45 238 45 240 45 c 0
 241 45 241 45 242 45 c 1
 238 45 172 69 172 122 c 0
 172 123 l 0
 173 155 199 196 244 200 c 0
 253 200 l 0
 287 200 304 179 304 153 c 0
 304 144 302 136 299 127 c 0
 292 108 277 95 258 87 c 0
 259 87 268 72 293 66 c 0
 321 60 339 61 363 53 c 0
 386 45 390 40 404 31 c 1
 373 -4 l 1
 370 -3 340 16 298 18 c 0
 296 18 293 18 290 18 c 0
 247 18 194 -1 148 -1 c 0
 118 -1 91 7 72 33 c 0
 58 51 52 74 52 98 c 0
 52 146 77 199 124 235 c 0
 165 266 208 273 249 273 c 0
 281 273 313 269 343 269 c 0
 358 269 l 0
 415 271 419 290 419 301 c 0
 419 303 419 306 419 307 c 0
 419 309 419 310 420 310 c 1
 418 308 389 288 354 288 c 0
 346 288 339 289 331 291 c 0
 306 297 294 315 294 334 c 0
 294 359 314 387 350 397 c 0
 361 400 371 401 380 401 c 0
 418 401 440 382 440 381 c 1
 441 383 454 394 463 411 c 0
 470 424 474 434 477 449 c 1
 517 433 l 1
411 348 m 0
 411 348 l 0
 407 354 391 364 375 364 c 0
 359 364 343 360 339 346 c 0
 339 344 338 343 338 342 c 0
 338 332 349 327 363 327 c 0
 369 327 l 0
 394 330 405 341 411 348 c 0
235 112 m 0
 255 113 267 130 267 145 c 0
 267 157 260 167 244 167 c 0
 243 167 243 167 242 167 c 0
 222 166 211 149 211 134 c 0
 211 122 218 112 233 112 c 0
 234 112 234 112 235 112 c 0
EndSplineSet
MinimumDistance: x15,-1 
EndChar
StartChar: uni0E56
Encoding: 246 3670 211
OldEncoding: 3670
Width: 399
Flags: HW
HStem: 0 68 124 41
VStem: 95 34
Fore
398 153 m 0
 398 153 l 0
 388 64 317 2 231 0 c 0
 228 -0 l 0
 174 -0 122 25 122 72 c 0
 122 77 123 82 124 87 c 0
 131 118 157 150 198 153 c 0
 200 153 202 153 203 153 c 0
 235 153 254 132 254 105 c 0
 254 98 253 92 251 85 c 0
 241 52 221 42 217 40 c 1
 222 39 227 39 232 39 c 0
 261 39 291 51 312 71 c 0
 338 95 352 131 352 162 c 0
 352 174 350 186 345 195 c 0
 333 222 307 235 275 235 c 0
 265 235 255 234 245 232 c 0
 209 224 179 204 158 171 c 1
 145 171 l 1
 150 188 157 227 157 270 c 0
 157 289 156 309 152 329 c 0
 146 358 137 377 123 401 c 1
 167 425 l 1
 183 397 192 375 196 341 c 0
 198 321 200 305 200 288 c 0
 200 277 199 265 197 251 c 1
 229 269 261 274 289 274 c 0
 294 274 298 274 303 274 c 0
 363 270 399 230 399 168 c 0
 399 163 398 158 398 153 c 0
195 119 m 0
 194 119 l 0
 173 119 159 100 159 83 c 0
 159 72 166 62 181 62 c 0
 182 62 l 0
 204 62 218 81 218 97 c 0
 218 109 211 119 195 119 c 0
EndSplineSet
MinimumDistance: x0,-1 
EndChar
StartChar: uni0E57
Encoding: 247 3671 212
OldEncoding: 3671
Width: 399
Flags: HW
HStem: -3 20 92 41 242 41
VStem: 219 47
Fore
549 393 m 1
 549 393 l 0
 545 388 499 354 483 295 c 0
 453 190 451 116 384 54 c 0
 338 11 292 -1 235 -1 c 1
 241 6 280 55 301 100 c 0
 313 123 331 168 331 200 c 0
 331 220 323 235 302 235 c 0
 301 235 l 0
 256 235 240 167 240 164 c 1
 203 164 l 1
 203 165 205 174 205 184 c 0
 205 205 199 233 167 235 c 0
 164 235 l 0
 134 235 111 206 96 178 c 0
 82 153 77 125 77 109 c 0
 77 108 77 106 77 105 c 1
 80 108 91 123 126 123 c 0
 154 123 173 101 173 73 c 0
 173 58 168 42 155 26 c 0
 137 4 115 -3 96 -3 c 0
 74 -3 55 6 48 17 c 0
 37 33 30 59 30 87 c 0
 30 126 42 170 68 208 c 0
 95 245 126 272 175 272 c 0
 206 272 225 255 234 229 c 1
 256 258 284 272 316 272 c 0
 355 272 373 242 373 202 c 0
 373 187 371 171 366 154 c 0
 349 91 311 47 308 44 c 1
 320 53 361 64 394 134 c 0
 428 203 420 248 450 318 c 0
 470 367 495 385 502 393 c 1
 549 393 l 1
104 33 m 0
 124 34 137 52 137 67 c 0
 137 79 130 89 115 89 c 0
 114 89 l 0
 93 88 81 70 81 55 c 0
 81 43 88 33 103 33 c 0
 104 33 l 0
EndSplineSet
EndChar
StartChar: uni0E58
Encoding: 248 3672 213
OldEncoding: 3672
Width: 399
Flags: HW
HStem: -1 20 149 41
VStem: 397 47
Fore
504 398 m 1
 504 398 l 0
 503 397 502 313 463 267 c 0
 434 233 397 225 355 225 c 0
 316 225 274 232 232 232 c 0
 176 232 133 201 116 152 c 0
 110 135 108 122 108 111 c 0
 108 81 125 73 125 72 c 0
 125 72 l 0
 126 75 140 126 178 130 c 0
 179 130 181 130 182 130 c 0
 232 130 260 37 314 37 c 0
 316 37 319 38 321 38 c 0
 336 40 338 54 339 55 c 1
 337 55 334 54 330 54 c 0
 317 54 294 58 282 76 c 0
 277 83 275 92 275 101 c 0
 275 135 304 176 352 178 c 0
 353 178 354 178 356 178 c 0
 394 178 409 153 409 123 c 0
 409 115 408 106 406 98 c 0
 395 48 362 2 314 -1 c 0
 308 -1 l 0
 238 -1 200 84 179 84 c 0
 178 84 178 84 177 84 c 0
 163 80 160 56 158 38 c 0
 158 37 158 35 158 34 c 0
 158 20 162 4 164 -1 c 1
 107 3 69 39 65 93 c 0
 65 97 65 100 65 104 c 0
 65 179 124 257 218 268 c 0
 229 269 239 270 250 270 c 0
 288 270 324 264 355 264 c 0
 376 264 395 266 412 276 c 0
 457 302 458 396 459 398 c 1
 504 398 l 1
337 89 m 0
 358 89 370 107 370 122 c 0
 370 133 363 143 348 143 c 0
 327 143 314 125 314 110 c 0
 314 99 321 89 337 89 c 0
EndSplineSet
MinimumDistance: x4,-1 
EndChar
StartChar: uni0E59
Encoding: 249 3673 214
OldEncoding: 3673
Width: 399
Flags: HW
HStem: -2 41 242 41
VStem: 63 47 368 47
Fore
452 315 m 0
 452 315 l 0
 442 269 426 208 386 201 c 0
 383 200 379 200 377 200 c 0
 347 200 336 224 325 224 c 0
 324 224 323 223 322 223 c 0
 315 221 313 215 313 206 c 0
 313 189 323 161 335 130 c 0
 357 75 378 21 378 20 c 1
 337 0 l 1
 337 2 316 48 291 115 c 0
 270 175 250 233 203 233 c 0
 200 233 l 0
 154 230 122 167 115 118 c 0
 114 111 113 103 113 95 c 0
 113 64 124 35 156 34 c 0
 157 34 159 34 160 34 c 0
 185 34 196 53 198 55 c 1
 198 55 190 52 180 52 c 0
 170 52 160 54 152 64 c 0
 145 72 142 83 142 94 c 0
 142 118 155 146 175 160 c 0
 185 167 198 171 210 171 c 0
 231 171 250 161 254 141 c 0
 255 135 256 128 256 122 c 0
 256 67 213 -0 152 -2 c 0
 149 -2 l 0
 91 -2 68 41 68 92 c 0
 68 108 70 123 74 139 c 0
 87 204 137 271 208 272 c 0
 209 272 209 272 210 272 c 0
 253 272 274 244 280 228 c 1
 285 247 296 269 315 272 c 0
 317 272 318 272 320 272 c 0
 342 272 357 245 377 245 c 0
 378 245 379 245 381 245 c 0
 396 249 403 292 409 323 c 0
 414 355 415 402 416 403 c 1
 463 403 l 1
 462 401 459 347 452 315 c 0
192 84 m 0
 193 84 l 0
 210 84 220 101 220 116 c 0
 220 127 215 136 203 136 c 0
 202 136 l 0
 186 135 175 117 175 102 c 0
 175 93 180 84 192 84 c 0
EndSplineSet
MinimumDistance: x28,-1 
EndChar
StartChar: uni0E5A
Encoding: 250 3674 215
OldEncoding: 3674
Width: 408
Flags: HW
HStem: -2 20 191 37<129.5 142.5> 275 31<92.5 101> 370 30<91 96 96 96>
VStem: 24 45 132 31 232 47 352 47
Fore
175 370 m 0
 175 370 l 0
 165 370 158 367 150 360 c 0
 144 355 140 347 137 338 c 0
 136 335 136 333 136 330 c 0
 136 325 138 320 141 315 c 0
 145 310 151 306 161 306 c 0
 171 306 180 309 187 315 c 0
 193 322 198 329 200 338 c 0
 201 341 201 343 201 345 c 0
 201 351 199 356 197 360 c 0
 192 367 185 370 175 370 c 0
349 377 m 0
 349 377 l 0
 363 385 378 398 398 398 c 0
 444 398 449 371 449 359 c 0
 449 355 449 353 449 352 c 0
 449 349 447 333 447 333 c 1
 396 93 l 2
 390 64 368 21 316 4 c 0
 298 -2 293 -2 293 -2 c 1
 280 33 l 1
 280 33 296 35 310 43 c 0
 324 52 339 61 344 75 c 1
 357 136 398 331 398 331 c 0
 398 331 l 0
 398 331 398 331 398 330 c 1
 398 330 399 333 399 337 c 0
 399 345 396 355 377 355 c 0
 365 354 354 350 347 340 c 1
 296 98 l 2
 289 64 275 40 251 24 c 0
 229 8 208 0 189 -1 c 1
 176 34 l 1
 191 34 208 41 226 56 c 0
 237 65 245 79 249 99 c 2
 282 252 l 1
 266 231 251 216 237 206 c 0
 223 196 204 191 177 191 c 0
 139 191 111 204 98 229 c 0
 89 245 84 264 84 285 c 0
 84 297 86 311 89 326 c 1
 96 348 110 365 127 379 c 0
 145 393 163 400 182 400 c 0
 191 400 199 399 205 396 c 0
 217 393 225 386 229 375 c 0
 232 369 233 363 233 357 c 0
 233 352 232 346 231 340 c 0
 227 319 216 302 200 290 c 0
 187 280 172 275 156 275 c 0
 145 275 137 277 128 282 c 1
 128 279 128 275 128 270 c 0
 129 265 129 260 131 254 c 0
 133 249 136 243 141 239 c 0
 146 235 153 232 163 230 c 0
 168 229 173 228 182 228 c 0
 199 228 212 233 223 242 c 0
 238 253 249 265 265 287 c 0
 288 317 293 338 303 381 c 1
 308 395 319 399 328 399 c 0
 335 399 340 397 343 395 c 0
 346 393 349 379 349 377 c 0
302 320 m 1
 301 320 l 0
 301 320 302 320 302 319 c 1
 302 320 l 1
EndSplineSet
MinimumDistance: x52,-1 
EndChar
StartChar: uni0E5B
Encoding: 251 3675 216
OldEncoding: 3675
Width: 721
Flags: HW
HStem: 4 41 68 36 325 41
VStem: 38 44
Fore
724 186 m 0
 724 186 l 0
 743 186 750 186 751 186 c 1
 751 186 l 0
 750 186 746 165 745 159 c 1
 745 159 738 159 705 158 c 0
 659 157 668 157 661 157 c 0
 652 157 643 156 619 156 c 0
 616 156 613 156 609 156 c 0
 603 156 595 157 585 164 c 0
 580 168 576 174 576 174 c 1
 573 182 l 1
 568 191 l 1
 511 84 l 1
 503 191 l 1
 438 59 l 1
 430 195 l 1
 378 65 l 1
 361 65 l 1
 357 227 l 1
 339 188 300 110 270 80 c 0
 237 48 201 31 160 31 c 0
 88 31 56 88 56 152 c 0
 56 167 58 182 61 196 c 0
 70 240 89 278 119 309 c 0
 147 340 180 357 214 357 c 0
 271 357 297 320 297 271 c 0
 297 260 296 249 293 237 c 0
 283 186 244 118 182 118 c 0
 162 118 146 128 137 145 c 1
 132 157 129 170 129 181 c 0
 129 186 130 191 131 196 c 0
 137 224 162 248 185 248 c 0
 195 248 204 244 212 233 c 0
 216 226 218 218 218 209 c 0
 218 205 218 201 217 196 c 0
 213 180 202 162 187 152 c 1
 190 152 l 2
 202 152 216 159 230 176 c 0
 244 193 254 214 260 238 c 0
 262 247 263 255 263 263 c 0
 263 297 246 322 206 322 c 0
 187 322 164 311 141 285 c 0
 116 260 102 230 94 195 c 0
 92 182 90 171 90 160 c 0
 90 138 95 119 105 103 c 0
 121 78 141 66 167 66 c 0
 214 66 246 94 271 134 c 0
 302 184 351 289 372 330 c 1
 388 330 l 1
 391 178 l 1
 442 302 l 1
 459 302 l 1
 464 179 l 1
 524 301 l 1
 534 189 l 1
 577 272 l 1
 584 248 603 186 620 186 c 0
 639 186 649 185 660 185 c 0
 690 186 710 186 724 186 c 0
184 211 m 0
 184 215 182 217 178 217 c 0
 171 217 164 200 161 195 c 1
 161 192 160 189 160 187 c 0
 160 177 164 175 169 175 c 0
 171 175 173 175 177 180 c 0
 181 185 183 190 185 196 c 0
 185 198 186 201 186 203 c 0
 186 205 185 208 184 211 c 0
EndSplineSet
MinimumDistance: x19,-1 
EndChar
StartChar: uni0E38.low
Encoding: 252 63256 217
OldEncoding: 63256
Width: 0
Flags: HW
Fore
-158 -395 m 1
 -195 -395 l 1
 -176 -307 l 1
 -176 -307 -185 -310 -197 -310 c 0
 -204 -310 -213 -309 -220 -305 c 0
 -233 -299 -241 -286 -241 -270 c 0
 -241 -263 -240 -255 -237 -247 c 0
 -227 -220 -201 -203 -173 -203 c 0
 -139 -203 -127 -222 -127 -244 c 0
 -127 -250 -128 -255 -129 -260 c 2
 -158 -395 l 1
-190 -283 m 0
 -170 -283 -158 -266 -158 -251 c 0
 -158 -240 -165 -231 -179 -231 c 0
 -199 -231 -211 -248 -211 -263 c 0
 -211 -274 -205 -283 -190 -283 c 0
EndSplineSet
MinimumDistance: x6,-1 
EndChar
StartChar: uni0E39.low
Encoding: 253 63257 218
OldEncoding: 63257
Width: 0
Flags: HW
HStem: -539 35
VStem: -240 40 -151 40
Fore
-209 -330 m 1
 -209 -330 l 1
 -209 -330 -207 -330 -200 -330 c 0
 -189 -330 -188 -325 -186 -314 c 0
 -185 -312 -160 -194 -160 -194 c 1
 -118 -194 l 1
 -118 -194 -145 -318 -145 -321 c 0
 -150 -342 -157 -361 -177 -361 c 0
 -192 -361 -219 -361 -219 -361 c 1
 -277 -361 l 1
 -262 -294 l 1
 -262 -294 -271 -297 -282 -297 c 0
 -288 -297 -295 -296 -302 -293 c 0
 -316 -287 -324 -274 -324 -257 c 0
 -324 -250 -323 -243 -320 -235 c 0
 -310 -208 -284 -191 -257 -191 c 0
 -224 -191 -210 -209 -210 -231 c 0
 -210 -236 -211 -242 -212 -247 c 1
 -230 -330 l 1
 -209 -330 l 1
-275 -266 m 0
 -258 -266 -247 -251 -247 -239 c 0
 -247 -230 -252 -222 -265 -222 c 0
 -282 -222 -292 -237 -292 -249 c 0
 -292 -258 -287 -266 -275 -266 c 0
EndSplineSet
MinimumDistance: x21,-1 
EndChar
StartChar: uni0E3A.low
Encoding: 254 63258 219
OldEncoding: 63258
Width: 0
Flags: HW
Fore
-123 -251 m 0
 -140 -251 -148 -240 -148 -227 c 0
 -148 -209 -134 -188 -110 -188 c 0
 -92 -188 -84 -199 -84 -212 c 0
 -84 -230 -99 -251 -123 -251 c 0
EndSplineSet
EndChar
StartChar: DEL
Encoding: 255 63259 220
OldEncoding: 63259
Width: 0
VWidth: 2048
Flags: HW
HStem: 0 10G<-300 0>
VStem: -300 300<0 500>
Fore
-194 500 m 1
 106 500 l 1
 0 0 l 1
 -300 0 l 1
 -194 500 l 1
EndSplineSet
EndChar
StartChar: exclamdown
Encoding: 256 161 221
OldEncoding: 161
Width: 217
VWidth: 2048
Flags: HW
HStem: 273 65<76 142>
VStem: 73 71<-129 -25>
Fore
214 338 m 1
 200 273 l 1
 134 273 l 1
 148 338 l 1
 214 338 l 1
174 222 m 1
 140 -25 l 1
 118 -129 l 1
 46 -129 l 1
 68 -25 l 1
 137 222 l 1
 174 222 l 1
EndSplineSet
MinimumDistance: x5,-1 
EndChar
StartChar: cent
Encoding: 257 162 222
OldEncoding: 162
Width: 362
VWidth: 2048
Flags: HW
HStem: -9 47<182 191>
VStem: 34 59<158 183>
DStem: 240 14 315 -9 165 -246 238 -267 416 614 486 584 271 116 341 84 516 957 588 936 443 704 515 683
Fore
298 285 m 1
 176 41 l 1
 181 39 188 38 194 38 c 0
 243 38 278 67 298 124 c 1
 355 118 l 1
 340 80 318 50 288 27 c 0
 257 3 222 -9 185 -9 c 0
 172 -9 163 -7 153 -4 c 1
 88 -130 l 1
 55 -120 l 1
 118 7 l 1
 81 28 63 64 63 113 c 0
 63 130 65 148 69 167 c 0
 81 219 101 260 132 292 c 0
 167 328 209 346 258 346 c 0
 268 346 277 345 289 344 c 1
 351 467 l 1
 384 457 l 1
 322 333 l 1
 358 318 374 288 374 243 c 0
 374 242 374 240 374 239 c 1
 317 230 l 1
 316 254 310 272 298 285 c 1
267 300 m 1
 252 300 l 2
 251 300 249 300 248 300 c 0
 187 300 148 257 129 170 c 0
 125 150 123 133 123 117 c 0
 123 90 130 69 144 57 c 1
 267 300 l 1
EndSplineSet
MinimumDistance: x17,-1 
EndChar
StartChar: sterling
Encoding: 258 163 223
OldEncoding: 163
Width: 362
VWidth: 2048
Flags: HW
HStem: -8 55<258 269> 21 47<125 137> 210 47<14 63 136 227> 428 47<180 200>
VStem: 47 61<341 354>
Fore
181 258 m 1
 282 258 l 1
 272 210 l 1
 181 210 l 1
 182 206 182 202 182 197 c 0
 182 192 182 188 181 183 c 0
 172 142 144 101 98 61 c 1
 117 66 132 68 145 68 c 0
 164 68 183 65 204 60 c 0
 238 51 262 47 275 47 c 0
 291 47 312 53 340 64 c 1
 348 12 l 1
 313 -1 285 -8 266 -8 c 0
 253 -8 245 -7 239 -5 c 2
 200 6 l 1
 161 18 l 1
 149 20 139 21 131 21 c 0
 97 21 63 11 29 -9 c 1
 19 46 l 1
 74 74 107 116 118 171 c 0
 121 182 121 195 122 210 c 1
 59 210 l 1
 69 258 l 1
 118 258 l 1
 116 273 116 286 116 298 c 0
 116 315 117 330 120 342 c 0
 128 383 149 416 183 440 c 0
 214 463 251 475 292 475 c 0
 370 475 408 439 408 365 c 0
 408 362 408 358 408 354 c 1
 350 346 l 1
 350 348 350 351 350 353 c 0
 350 403 328 428 281 428 c 0
 259 428 238 421 218 406 c 0
 199 391 187 373 182 350 c 0
 180 338 178 322 178 305 c 0
 178 291 179 275 181 258 c 1
EndSplineSet
MinimumDistance: x34,-1 
EndChar
StartChar: currency
Encoding: 259 164 224
OldEncoding: 164
Width: 362
VWidth: 2048
Flags: HW
HStem: 96 52<171 188> 314 52<171 188>
VStem: 45 52<223 239> 262 53<223 239>
DStem: 48 716 123 794 139 627 214 703 139 320 214 245 48 231 123 153 523 245 599 320 614 153 690 231 614 794 690 716 523 703 599 627
Fore
133 306 m 1
 97 350 l 1
 142 388 l 1
 177 343 l 1
 203 359 231 366 258 366 c 0
 286 366 309 359 328 343 c 1
 382 388 l 1
 411 350 l 1
 357 306 l 1
 364 291 367 276 367 260 c 0
 367 251 366 241 364 231 c 0
 358 204 346 179 325 156 c 1
 361 113 l 1
 316 75 l 1
 281 120 l 1
 255 104 228 96 200 96 c 0
 172 96 149 104 130 120 c 1
 76 75 l 1
 47 113 l 1
 101 156 l 1
 94 171 91 187 91 204 c 0
 91 213 92 222 94 231 c 0
 100 258 113 283 133 306 c 1
146 231 m 0
 145 225 144 218 144 213 c 0
 144 197 149 184 158 172 c 0
 170 156 187 148 211 148 c 0
 234 148 256 156 276 172 c 0
 294 188 306 208 311 231 c 0
 312 238 313 244 313 250 c 0
 313 265 309 279 300 290 c 0
 287 306 269 314 247 314 c 0
 224 314 202 306 183 290 c 0
 163 274 151 255 146 231 c 0
EndSplineSet
MinimumDistance: x7,-1 
EndChar
StartChar: yen
Encoding: 260 165 225
OldEncoding: 165
Width: 362
VWidth: 2048
Flags: HW
HStem: 0 10G<152 209> 104 44<20 152 209 341> 193 47<20 128 232 341> 458 10G<-1 63 293 361>
VStem: 152 58<0 104 148 193>
DStem: -2 957 129 957 263 493 318 620
Fore
152 0 m 1
 174 104 l 1
 42 104 l 1
 51 148 l 1
 183 148 l 1
 193 193 l 1
 61 193 l 1
 71 241 l 1
 179 241 l 1
 98 467 l 1
 162 467 l 1
 219 303 l 2
 224 288 229 272 233 254 c 1
 242 268 255 285 271 306 c 2
 392 467 l 1
 460 467 l 1
 283 241 l 1
 392 241 l 1
 382 193 l 1
 250 193 l 1
 240 148 l 1
 372 148 l 1
 363 104 l 1
 231 104 l 1
 209 0 l 1
 152 0 l 1
EndSplineSet
MinimumDistance: x17,-1 y1,24 y1,0 x20,22 x20,21 x19,17 x19,18 x5,7 x5,6 x1,3 x1,2 
EndChar
StartChar: brokenbar
Encoding: 261 166 226
OldEncoding: 166
Width: 169
VWidth: 2048
Flags: HW
HStem: -137 10G<60 110> 465 10G<60 110>
VStem: 60 50<-137 115 224 475>
Fore
211 475 m 1
 158 224 l 1
 108 224 l 1
 161 475 l 1
 211 475 l 1
134 115 m 1
 81 -137 l 1
 31 -137 l 1
 84 115 l 1
 134 115 l 1
EndSplineSet
MinimumDistance: x0,-1 
EndChar
StartChar: section
Encoding: 262 167 227
OldEncoding: 167
Width: 362
VWidth: 2048
Flags: HW
HStem: -137 48<174 191> 428 47<172 187>
VStem: 26 52<205 215> 57 56<374 378> 254 58<-36 -32> 279 54<137 148>
Fore
40 -22 m 1
 100 -14 l 1
 100 -17 l 0
 100 -65 122 -89 166 -89 c 0
 184 -89 200 -84 215 -75 c 0
 232 -65 243 -51 247 -34 c 0
 247 -32 248 -29 248 -27 c 0
 248 -10 235 9 211 30 c 0
 206 35 185 49 150 75 c 0
 120 96 100 113 89 127 c 0
 75 145 68 164 68 185 c 0
 68 191 69 198 70 205 c 0
 79 251 110 281 161 295 c 1
 143 315 135 335 135 356 c 0
 135 363 136 369 137 375 c 0
 143 405 160 430 188 449 c 0
 214 466 242 475 274 475 c 0
 348 475 384 442 384 378 c 0
 384 374 384 369 384 365 c 1
 323 358 l 1
 323 360 323 363 323 365 c 0
 323 407 305 428 269 428 c 0
 253 428 237 424 222 416 c 0
 206 405 196 393 192 377 c 0
 192 375 191 373 191 371 c 0
 191 355 202 337 224 318 c 0
 228 314 247 300 281 277 c 0
 312 254 333 237 344 226 c 0
 359 208 366 189 366 168 c 0
 366 162 365 155 364 148 c 0
 356 108 325 77 273 57 c 1
 296 36 307 13 307 -13 c 0
 307 -19 306 -26 305 -33 c 0
 298 -66 278 -92 248 -111 c 0
 221 -129 190 -137 156 -137 c 0
 78 -137 40 -102 40 -30 c 0
 40 -28 40 -25 40 -22 c 1
249 78 m 1
 283 94 303 114 308 137 c 0
 309 140 309 142 309 145 c 0
 309 169 285 198 239 229 c 0
 216 245 197 260 183 273 c 1
 148 256 128 235 123 211 c 0
 122 208 122 206 122 203 c 0
 122 180 142 154 185 125 c 0
 214 105 236 89 249 78 c 1
EndSplineSet
MinimumDistance: x29,-1 
EndChar
StartChar: dieresis
Encoding: 263 168 228
OldEncoding: 168
Width: 217
VWidth: 2048
Flags: HW
HStem: 405 65<20 80 138 198>
VStem: 20 60<405 470> 138 60<405 470>
Fore
106 405 m 1
 120 470 l 1
 180 470 l 1
 166 405 l 1
 106 405 l 1
224 405 m 1
 238 470 l 1
 298 470 l 1
 284 405 l 1
 224 405 l 1
EndSplineSet
MinimumDistance: x6,-1 
EndChar
StartChar: copyright
Encoding: 264 169 229
OldEncoding: 169
Width: 480
VWidth: 2048
Flags: HW
HStem: -6 40<227 251> 97 38<235 246> 334 36<235 251> 436 40<227 251>
VStem: 1 40<220 245> 116 43<220 245> 442 40<220 245>
Fore
343 475 m 0
 410 475 462 452 499 406 c 0
 525 372 538 333 538 289 c 0
 538 271 536 253 532 234 c 0
 518 168 483 111 426 64 c 0
 369 17 307 -6 241 -6 c 0
 174 -6 122 17 85 64 c 0
 58 98 45 136 45 180 c 0
 45 197 47 215 51 234 c 0
 65 302 101 360 156 406 c 0
 213 452 275 475 343 475 c 0
335 436 m 0
 279 436 226 416 179 377 c 0
 132 338 103 290 91 234 c 0
 88 218 86 203 86 188 c 0
 86 152 97 120 119 92 c 0
 149 53 192 34 249 34 c 0
 305 34 356 53 404 92 c 0
 451 131 480 178 492 234 c 0
 495 249 497 264 497 278 c 0
 497 315 485 348 463 376 c 0
 432 416 390 436 335 436 c 0
361 196 m 1
 397 184 l 1
 369 126 325 97 263 97 c 0
 223 97 193 110 177 136 c 0
 166 151 161 170 161 192 c 0
 161 205 163 219 166 234 c 0
 174 275 192 308 221 333 c 0
 248 357 283 370 324 370 c 0
 380 370 410 345 415 294 c 1
 376 285 l 1
 369 318 348 334 314 334 c 0
 286 334 263 324 243 303 c 0
 227 285 215 262 209 233 c 0
 206 219 204 206 204 195 c 0
 204 154 226 134 268 134 c 0
 309 134 341 155 361 196 c 1
EndSplineSet
EndChar
StartChar: ordfeminine
Encoding: 265 170 230
OldEncoding: 170
Width: 241
VWidth: 2048
Flags: HW
HStem: 238 38<93 104> 438 37<116 125>
VStem: 15 47<301 309> 170 46<302 352 389 398>
Fore
233 272 m 1
 202 249 173 238 144 238 c 0
 100 238 78 254 78 288 c 0
 78 294 78 301 80 308 c 0
 87 338 106 358 139 369 c 1
 173 376 l 1
 221 383 l 1
 253 389 l 1
 254 395 255 400 255 405 c 0
 255 427 241 438 213 438 c 0
 182 438 161 425 152 398 c 1
 110 409 l 1
 127 453 165 475 222 475 c 0
 276 475 303 456 303 418 c 0
 303 412 302 405 301 398 c 1
 280 302 l 1
 277 289 275 278 275 268 c 0
 275 258 277 249 281 244 c 1
 234 244 l 1
 232 249 232 254 232 259 c 0
 232 263 232 268 233 272 c 1
245 352 m 1
 223 348 201 345 178 341 c 1
 148 334 131 323 127 308 c 0
 126 305 126 303 126 300 c 0
 126 284 138 276 163 276 c 0
 207 276 234 301 245 352 c 1
EndSplineSet
MinimumDistance: x15,-1 
EndChar
StartChar: guillemotleft
Encoding: 266 171 231
OldEncoding: 171
Width: 362
VWidth: 2048
Flags: HW
Fore
144 168 m 1
 196 23 l 1
 150 23 l 1
 78 168 l 1
 212 313 l 1
 258 313 l 1
 144 168 l 1
268 168 m 1
 321 23 l 1
 273 23 l 1
 203 168 l 1
 335 313 l 1
 383 313 l 1
 268 168 l 1
EndSplineSet
EndChar
StartChar: logicalnot
Encoding: 267 172 232
OldEncoding: 172
Width: 381
VWidth: 2048
Flags: HW
HStem: 275 53<36 291>
VStem: 291 54<135 275>
Fore
374 135 m 1
 320 135 l 1
 349 275 l 1
 94 275 l 1
 106 328 l 1
 415 328 l 1
 374 135 l 1
EndSplineSet
MinimumDistance: x0,-1 y2,0 y2,1 x2,4 x2,3 
EndChar
StartChar: minus
Encoding: 268 173 233
OldEncoding: 173
Width: 217
VWidth: 2048
Flags: HW
HStem: 140 58<21 197>
Fore
51 140 m 1
 63 198 l 1
 239 198 l 1
 227 140 l 1
 51 140 l 1
EndSplineSet
EndChar
StartChar: registered
Encoding: 269 174 234
OldEncoding: 174
Width: 480
VWidth: 2048
Flags: HW
HStem: -6 40<227 251> 325 35<178 236> 436 40<227 251>
VStem: 1 40<220 248> 136 42<102 211 247 325> 292 44<283 292> 442 40<220 248>
DStem: 572 292 659 312 619 208 724 208
Fore
343 475 m 0
 410 475 462 452 499 406 c 0
 525 372 538 333 538 289 c 0
 538 271 536 253 532 234 c 0
 518 168 483 111 426 64 c 0
 369 17 307 -6 241 -6 c 0
 174 -6 122 17 85 64 c 0
 58 98 45 136 45 180 c 0
 45 197 47 215 51 234 c 0
 65 302 101 360 156 406 c 0
 213 452 275 475 343 475 c 0
335 436 m 0
 279 436 226 416 179 377 c 0
 132 338 103 290 91 234 c 0
 88 218 86 203 86 188 c 0
 86 152 97 120 119 92 c 0
 149 53 192 34 249 34 c 0
 305 34 356 53 404 92 c 0
 451 131 480 178 492 234 c 0
 495 249 497 264 497 278 c 0
 497 315 485 348 463 376 c 0
 432 416 390 436 335 436 c 0
158 102 m 1
 213 360 l 1
 302 360 l 2
 367 360 399 342 399 307 c 0
 399 302 398 297 397 291 c 0
 392 270 382 253 364 239 c 0
 348 227 330 219 308 217 c 1
 323 212 339 191 354 152 c 2
 376 102 l 1
 324 102 l 1
 309 143 l 2
 301 167 295 183 290 189 c 0
 280 204 266 211 247 211 c 2
 223 211 l 1
 200 102 l 1
 158 102 l 1
231 247 m 1
 282 247 l 2
 324 247 347 260 353 287 c 0
 354 290 354 292 354 294 c 0
 354 314 334 325 294 325 c 2
 247 325 l 1
 231 247 l 1
EndSplineSet
EndChar
StartChar: macron
Encoding: 270 175 235
OldEncoding: 175
Width: 360
VWidth: 2048
Flags: HW
HStem: 499 41<-10 370>
Fore
96 499 m 1
 105 540 l 1
 485 540 l 1
 476 499 l 1
 96 499 l 1
EndSplineSet
EndChar
StartChar: degree
Encoding: 271 176 236
OldEncoding: 176
Width: 261
VWidth: 2048
Flags: HW
HStem: 298 35<126 135> 441 34<126 135>
VStem: 41 35<384 393> 183 35<384 393>
Fore
123 387 m 0
 128 411 142 432 162 449 c 0
 183 467 205 475 230 475 c 0
 255 475 274 467 287 449 c 0
 297 437 302 422 302 406 c 0
 302 400 301 394 300 387 c 0
 295 362 281 341 261 324 c 0
 239 307 216 298 192 298 c 0
 167 298 149 307 136 324 c 0
 126 336 121 351 121 367 c 0
 121 374 122 380 123 387 c 0
158 387 m 0
 157 383 157 378 157 374 c 0
 157 365 159 356 165 349 c 0
 174 338 185 333 200 333 c 0
 215 333 229 338 241 349 c 0
 255 360 262 372 265 387 c 0
 266 391 266 395 266 399 c 0
 266 408 263 417 257 425 c 0
 250 436 238 441 223 441 c 0
 208 441 195 436 181 425 c 0
 169 414 161 402 158 387 c 0
EndSplineSet
MinimumDistance: x5,-1 
EndChar
StartChar: plusminus
Encoding: 272 177 237
OldEncoding: 177
Width: 358
VWidth: 2048
Flags: HW
HStem: 0 54<25 333> 211 53<25 152 206 333>
VStem: 152 54<83 211 265 391>
Fore
170 83 m 1
 197 211 l 1
 70 211 l 1
 81 265 l 1
 208 265 l 1
 235 392 l 1
 289 392 l 1
 262 265 l 1
 389 265 l 1
 378 211 l 1
 251 211 l 1
 224 83 l 1
 170 83 l 1
333 0 m 1
 25 0 l 1
 36 54 l 1
 344 54 l 1
 333 0 l 1
EndSplineSet
MinimumDistance: x8,-1 y4,6 y4,5 y1,11 y1,0 x7,9 x7,8 x1,3 x1,2 
EndChar
StartChar: twosuperior
Encoding: 273 178 238
OldEncoding: 178
Width: 217
VWidth: 2048
Flags: HW
HStem: 233 39<83 206> 436 38<103 121>
Fore
58 233 m 1
 65 260 99 292 158 330 c 0
 188 349 204 359 206 360 c 0
 226 375 238 389 240 400 c 0
 241 404 241 407 241 410 c 0
 241 427 229 436 204 436 c 0
 178 436 159 423 148 399 c 1
 101 404 l 1
 122 450 160 473 213 473 c 0
 267 473 294 456 294 424 c 0
 294 419 293 414 292 408 c 0
 287 387 273 366 250 347 c 0
 240 338 219 324 185 303 c 0
 167 292 152 281 141 272 c 1
 265 272 l 1
 257 233 l 1
 58 233 l 1
EndSplineSet
EndChar
StartChar: threesuperior
Encoding: 274 179 239
OldEncoding: 179
Width: 217
VWidth: 2048
Flags: HW
HStem: 228 37<97 113> 342 10G<88 95> 438 36<104 113>
VStem: 145 50<407 415> 156 50<300 309>
Fore
74 296 m 1
 121 301 l 1
 123 277 137 265 162 265 c 0
 195 265 215 279 221 308 c 0
 222 311 222 314 222 316 c 0
 222 334 208 343 178 343 c 1
 168 342 l 1
 161 342 l 1
 175 376 l 1
 208 376 227 387 232 409 c 0
 233 412 233 414 233 416 c 0
 233 430 222 438 200 438 c 0
 177 438 160 427 148 405 c 1
 104 413 l 1
 126 453 162 473 208 473 c 0
 260 473 284 458 284 428 c 0
 284 423 284 419 283 414 c 0
 278 389 259 371 228 362 c 1
 257 354 272 339 272 316 c 0
 272 311 271 306 270 301 c 0
 265 277 250 258 226 245 c 0
 206 234 182 228 157 228 c 0
 101 228 74 250 74 294 c 0
 74 294 74 295 74 296 c 1
EndSplineSet
MinimumDistance: x19,-1 
EndChar
StartChar: acute
Encoding: 275 180 240
OldEncoding: 180
Width: 217
VWidth: 2048
Flags: HW
HStem: 460 10G<113 188>
Fore
152 380 m 1
 213 470 l 1
 288 470 l 1
 199 380 l 1
 152 380 l 1
EndSplineSet
EndChar
StartChar: mu
Encoding: 276 181 241
OldEncoding: 181
Width: 375
VWidth: 2048
Flags: HW
HStem: -130 10G<51 108> -8 52<183 192> 0 10G<273 324> 329 10G<51 108 268 324>
VStem: 51 57<-130 34 167 338> 268 56<167 338>
Fore
396 338 m 1
 324 0 l 1
 273 0 l 1
 282 40 l 1
 256 8 224 -8 186 -8 c 0
 154 -8 130 6 115 34 c 1
 80 -130 l 1
 23 -130 l 1
 123 338 l 1
 180 338 l 1
 149 195 l 2
 141 156 136 126 136 107 c 0
 136 103 137 100 137 97 c 0
 140 62 159 44 195 44 c 0
 231 44 260 61 278 96 c 0
 289 115 299 148 309 194 c 2
 340 338 l 1
 396 338 l 1
EndSplineSet
MinimumDistance: x0,-1 
EndChar
StartChar: paragraph
Encoding: 277 182 242
OldEncoding: 182
Width: 350
VWidth: 2048
Flags: HW
HStem: -130 10G<129 182 253 307> 412 55<182 253 307 353>
VStem: 129 53<-130 203> 253 54<-130 412>
Fore
101 -130 m 1
 172 203 l 1
 134 203 107 215 88 240 c 0
 74 257 68 278 68 302 c 0
 68 312 69 322 71 333 c 0
 80 377 102 411 135 435 c 0
 166 456 204 467 250 467 c 2
 452 467 l 1
 441 412 l 1
 395 412 l 1
 279 -130 l 1
 225 -130 l 1
 341 412 l 1
 270 412 l 1
 154 -130 l 1
 101 -130 l 1
EndSplineSet
MinimumDistance: y13,0 y13,14 y9,11 y9,10 x9,7 x9,8 
EndChar
StartChar: periodcentered
Encoding: 278 183 243
OldEncoding: 183
Width: 181
VWidth: 2048
Flags: HW
HStem: 197 65<59 125>
VStem: 59 65<197 263>
Fore
101 197 m 1
 115 263 l 1
 181 263 l 1
 167 197 l 1
 101 197 l 1
EndSplineSet
MinimumDistance: x2,-1 
EndChar
StartChar: cedilla
Encoding: 279 184 244
OldEncoding: 184
Width: 217
VWidth: 2048
Flags: HW
VStem: 119 53<-75 -69>
Fore
59 -49 m 1
 86 7 l 1
 129 7 l 1
 112 -27 l 1
 142 -30 157 -42 157 -63 c 0
 157 -66 157 -70 156 -74 c 0
 152 -95 137 -111 114 -122 c 0
 95 -130 75 -134 52 -134 c 0
 35 -134 20 -133 6 -130 c 1
 18 -93 l 1
 47 -94 l 2
 53 -94 l 0
 84 -94 101 -86 104 -70 c 0
 104 -67 l 0
 104 -55 89 -49 59 -49 c 1
EndSplineSet
MinimumDistance: x5,-1 
EndChar
StartChar: onesuperior
Encoding: 280 185 245
OldEncoding: 185
Width: 217
VWidth: 2048
Flags: HW
HStem: 463 10G<117 152>
VStem: 105 46<233 410>
Fore
155 233 m 1
 192 410 l 1
 169 394 142 382 113 374 c 1
 122 414 l 1
 156 425 188 444 218 473 c 1
 253 473 l 1
 202 233 l 1
 155 233 l 1
EndSplineSet
MinimumDistance: x5,-1 
EndChar
StartChar: ordmasculine
Encoding: 281 186 246
OldEncoding: 186
Width: 238
VWidth: 2048
Flags: HW
HStem: 236 42<115 124> 433 42<115 124>
VStem: 14 47<345 361> 176 47<345 369>
Fore
220 475 m 0
 254 475 277 463 292 440 c 0
 299 426 303 410 303 392 c 0
 303 380 302 368 299 355 c 0
 292 321 277 293 256 271 c 0
 232 248 203 236 169 236 c 0
 136 236 113 247 99 271 c 0
 90 285 85 302 85 321 c 0
 85 331 87 342 89 354 c 0
 97 389 112 417 133 439 c 0
 157 463 186 475 220 475 c 0
211 433 m 0
 173 433 149 407 137 355 c 0
 135 344 134 334 134 326 c 0
 134 294 148 278 178 278 c 0
 216 278 241 304 252 357 c 0
 254 368 256 378 256 387 c 0
 256 417 241 433 211 433 c 0
EndSplineSet
MinimumDistance: x3,-1 
EndChar
StartChar: guillemotright
Encoding: 282 187 247
OldEncoding: 187
Width: 362
VWidth: 2048
Flags: HW
Fore
288 168 m 1
 236 313 l 1
 283 313 l 1
 354 168 l 1
 221 23 l 1
 174 23 l 1
 288 168 l 1
165 168 m 1
 111 313 l 1
 160 313 l 1
 229 168 l 1
 98 23 l 1
 49 23 l 1
 165 168 l 1
EndSplineSet
EndChar
StartChar: onequarter
Encoding: 283 188 248
OldEncoding: 188
Width: 544
VWidth: 2048
Flags: HW
HStem: 39 35<382 456 501 535> 463 10G<117 152> 465 10G<432 481>
VStem: 105 46<233 410> 456 46<-10 39 74 157>
DStem: 884 973 986 973 164 -37 267 -37 948 470 933 322 683 161 783 151
Fore
76 -18 m 1
 533 475 l 1
 582 475 l 1
 126 -18 l 1
 76 -18 l 1
155 233 m 1
 192 410 l 1
 169 394 142 382 113 374 c 1
 122 414 l 1
 156 425 188 444 218 473 c 1
 253 473 l 1
 202 233 l 1
 155 233 l 1
454 -10 m 1
 464 39 l 1
 341 39 l 1
 350 79 l 1
 512 229 l 1
 550 229 l 1
 517 74 l 1
 551 74 l 1
 543 39 l 1
 509 39 l 1
 499 -10 l 1
 454 -10 l 1
472 74 m 1
 489 157 l 1
 398 74 l 1
 472 74 l 1
EndSplineSet
MinimumDistance: x18,-1 x15,17 y17,15 y17,16 y12,21 y12,11 x17,19 x17,18 y14,12 x12,14 x12,13 
EndChar
StartChar: onehalf
Encoding: 284 189 249
OldEncoding: 189
Width: 544
VWidth: 2048
Flags: HW
HStem: -10 39<410 533> 191 38<432 448> 463 10G<117 152> 465 10G<423 474>
VStem: 105 46<233 410> 334 198<-10 -4>
DStem: 867 973 970 973 149 -37 251 -37
Fore
69 -18 m 1
 524 475 l 1
 575 475 l 1
 119 -18 l 1
 69 -18 l 1
155 233 m 1
 192 410 l 1
 169 394 142 382 113 374 c 1
 122 414 l 1
 156 425 188 444 218 473 c 1
 253 473 l 1
 202 233 l 1
 155 233 l 1
332 -10 m 1
 337 16 371 48 433 87 c 0
 484 119 511 142 514 157 c 0
 515 161 515 164 515 167 c 0
 515 183 504 191 479 191 c 0
 454 191 435 180 422 156 c 1
 375 160 l 1
 397 206 434 229 487 229 c 0
 542 229 569 213 569 180 c 0
 569 176 568 171 567 165 c 0
 563 144 548 123 525 103 c 0
 514 94 492 79 461 59 c 0
 441 46 426 36 416 29 c 1
 539 29 l 1
 531 -10 l 1
 332 -10 l 1
EndSplineSet
MinimumDistance: x24,-1 
EndChar
StartChar: threequarters
Encoding: 285 190 250
OldEncoding: 190
Width: 544
VWidth: 2048
Flags: HW
HStem: 39 35<382 456 501 535> 228 37<97 113> 438 36<104 113> 465 10G<431 481>
VStem: 145 50<408 415> 156 50<300 309> 456 46<-10 39 74 157>
DStem: 883 973 986 973 164 -37 267 -37 947 470 933 322 683 161 783 151
Fore
76 -18 m 1
 532 475 l 1
 582 475 l 1
 126 -18 l 1
 76 -18 l 1
74 296 m 1
 121 301 l 1
 123 277 137 265 162 265 c 0
 195 265 215 279 221 308 c 0
 222 312 222 315 222 318 c 0
 222 335 209 343 183 343 c 0
 182 343 180 343 179 343 c 2
 161 342 l 1
 175 376 l 1
 208 376 227 387 232 409 c 0
 233 412 233 414 233 416 c 0
 233 430 222 438 200 438 c 0
 177 438 160 427 148 405 c 1
 104 413 l 1
 126 453 162 473 208 473 c 0
 260 473 284 458 284 428 c 0
 284 423 284 419 283 414 c 0
 278 389 259 371 228 362 c 1
 257 354 272 339 272 316 c 0
 272 311 271 306 270 301 c 0
 265 277 250 258 226 245 c 0
 206 234 182 228 157 228 c 0
 101 228 74 250 74 294 c 0
 74 294 74 295 74 296 c 1
454 -10 m 1
 464 39 l 1
 341 39 l 1
 350 79 l 1
 511 229 l 1
 550 229 l 1
 517 74 l 1
 551 74 l 1
 543 39 l 1
 509 39 l 1
 499 -10 l 1
 454 -10 l 1
472 74 m 1
 489 157 l 1
 398 74 l 1
 472 74 l 1
EndSplineSet
MinimumDistance: x34,-1 x31,33 y33,31 y33,32 y28,37 y28,27 x33,35 x33,34 y30,28 x28,30 x28,29 
EndChar
StartChar: questiondown
Encoding: 286 191 251
OldEncoding: 191
Width: 398
VWidth: 2048
Flags: HW
HStem: -137 47<190 207> 329 10G<168 233>
VStem: 50 59<-12 -1> 168 65<273 338> 175 55<206 223>
Fore
305 338 m 1
 291 273 l 1
 226 273 l 1
 240 338 l 1
 305 338 l 1
278 224 m 1
 274 207 l 2
 267 175 256 150 239 129 c 0
 227 114 204 95 172 71 c 0
 134 43 113 18 108 -5 c 0
 107 -11 106 -17 106 -22 c 0
 106 -39 112 -53 122 -65 c 0
 138 -81 157 -89 181 -89 c 0
 233 -89 271 -58 294 5 c 1
 352 -2 l 1
 319 -92 260 -137 172 -137 c 0
 131 -137 98 -126 75 -104 c 0
 55 -86 45 -64 45 -36 c 0
 45 -27 46 -18 48 -9 c 0
 56 29 89 69 144 110 c 0
 172 130 189 147 199 159 c 0
 208 173 216 194 223 224 c 1
 278 224 l 1
EndSplineSet
MinimumDistance: x4,-1 
EndChar
StartChar: AE
Encoding: 293 198 258
OldEncoding: 198
Width: 652
VWidth: 2048
Flags: HW
HStem: 0 55<374 617> 135 55<157 312> 213 55<374 592> 412 55<265 312 374 608>
VStem: 312 62<55 135 189 213 268 412>
DStem: 461 957 543 844 1 0 322 388 461 957 268 276 1 0 138 0
Fore
0 0 m 1
 324 467 l 1
 707 467 l 1
 696 412 l 1
 462 412 l 1
 431 269 l 1
 649 269 l 1
 637 213 l 1
 419 213 l 1
 386 55 l 1
 629 55 l 1
 617 0 l 1
 312 0 l 1
 341 135 l 1
 160 135 l 1
 67 0 l 1
 0 0 l 1
197 189 m 1
 352 189 l 1
 400 412 l 1
 353 412 l 1
 197 189 l 1
EndSplineSet
MinimumDistance: x10,-1 x11,13 y13,11 y13,12 x9,11 x9,10 x5,7 x5,6 x4,2 x4,3 
EndChar
StartChar: Eth
Encoding: 303 208 268
OldEncoding: 208
Width: 471
VWidth: 2048
Flags: HW
HStem: 0 55<112 226> 212 42<-1 50 112 241> 412 55<112 226>
VStem: 50 62<55 212 255 412> 373 63<218 256>
Fore
50 0 m 1
 95 212 l 1
 44 212 l 1
 53 255 l 1
 104 255 l 1
 149 467 l 1
 310 467 l 2
 359 467 395 462 420 451 c 0
 450 437 472 412 485 375 c 0
 492 356 495 334 495 309 c 0
 495 287 493 263 487 236 c 0
 454 79 364 0 219 0 c 2
 50 0 l 1
124 55 m 1
 224 55 l 2
 260 55 289 60 310 68 c 0
 337 79 360 99 380 128 c 0
 399 157 414 193 423 237 c 0
 428 262 431 284 431 304 c 0
 431 349 417 380 388 396 c 0
 370 407 339 412 298 412 c 2
 200 412 l 1
 166 255 l 1
 295 255 l 1
 286 212 l 1
 157 212 l 1
 124 55 l 1
EndSplineSet
MinimumDistance: x10,-1 x6,4 y4,6 y4,5 x11,1 y1,11 y1,0 x21,23 x21,22 x1,3 x1,2 
EndChar
StartChar: multiply
Encoding: 310 215 275
OldEncoding: 215
Width: 381
VWidth: 2048
Flags: HW
DStem: 106 677 185 757 311 473 390 552 311 473 390 394 105 267 184 188 390 394 469 473 595 189 674 268 595 756 673 677 390 552 469 473
Fore
79 130 m 1
 201 231 l 1
 122 331 l 1
 169 370 l 1
 247 270 l 1
 369 369 l 1
 399 331 l 1
 278 231 l 1
 357 131 l 1
 311 92 l 1
 231 192 l 1
 110 92 l 1
 79 130 l 1
EndSplineSet
MinimumDistance: x6,-1 
EndChar
StartChar: Oslash
Encoding: 311 216 276
OldEncoding: 216
Width: 507
VWidth: 2048
Flags: HW
HStem: -8 53<245 261> 422 53<245 261>
VStem: 30 64<223 247> 414 63<215 247>
DStem: 169 145 228 84 54 16 119 -39 738 781 791 714 251 236 306 171 926 992 990 937 816 869 875 808
Fore
488 424 m 1
 555 484 l 1
 580 458 l 1
 511 395 l 1
 526 364 533 330 533 294 c 0
 533 275 531 254 527 233 c 0
 512 163 481 106 432 62 c 0
 382 15 322 -8 253 -8 c 0
 203 -8 159 8 120 41 c 1
 54 -19 l 1
 28 8 l 1
 98 71 l 1
 82 106 73 142 73 179 c 0
 73 196 75 214 79 232 c 0
 94 303 127 360 175 405 c 0
 226 452 287 475 356 475 c 0
 409 475 452 458 488 424 c 1
441 381 m 1
 414 409 382 422 345 422 c 0
 291 422 247 404 210 366 c 0
 178 333 155 288 144 233 c 0
 140 214 138 196 138 178 c 0
 138 156 141 135 147 115 c 1
 441 381 l 1
460 349 m 1
 167 83 l 1
 193 58 225 45 263 45 c 0
 315 45 359 64 395 101 c 0
 429 135 452 179 463 232 c 0
 467 251 469 270 469 288 c 0
 469 309 466 330 460 349 c 1
EndSplineSet
MinimumDistance: x2,-1 
EndChar
StartChar: Thorn
Encoding: 317 222 282
OldEncoding: 222
Width: 435
VWidth: 2048
Flags: HW
HStem: 0 10G<50 112> 95 55<112 246> 317 55<112 246> 458 10G<50 112>
VStem: 50 62<0 95 150 317 372 467> 343 63<226 243>
Fore
50 0 m 1
 149 467 l 1
 211 467 l 1
 191 372 l 1
 306 372 l 2
 362 372 402 364 427 347 c 0
 450 332 461 307 461 275 c 0
 461 263 460 251 457 237 c 0
 437 142 368 95 252 95 c 2
 132 95 l 1
 112 0 l 1
 50 0 l 1
144 150 m 1
 265 150 l 2
 338 150 381 178 393 235 c 0
 395 244 396 251 396 259 c 0
 396 278 389 293 374 302 c 0
 359 312 334 317 299 317 c 2
 179 317 l 1
 144 150 l 1
EndSplineSet
MinimumDistance: x7,-1 y3,1 y3,2 y9,0 y9,10 
EndChar
StartChar: germandbls
Encoding: 318 223 283
OldEncoding: 223
Width: 398
VWidth: 2048
Flags: HW
HStem: -8 47<254 268> 0 10G<49 106> 428 47<173 190>
VStem: 49 57<0 329> 196 59<245 254> 247 56<377 385> 320 59<91 101>
Fore
49 0 m 1
 117 318 l 2
 139 423 195 475 286 475 c 0
 316 475 341 468 360 453 c 0
 378 440 387 423 387 402 c 0
 387 396 386 390 385 384 c 0
 381 367 366 341 342 307 c 2
 316 271 l 2
 313 267 310 261 309 254 c 0
 309 253 309 252 309 250 c 0
 309 239 320 223 342 203 c 0
 373 175 391 159 394 153 c 0
 399 144 402 134 402 123 c 0
 402 116 401 108 399 100 c 0
 392 68 376 42 347 21 c 0
 321 2 292 -8 260 -8 c 0
 207 -8 175 18 161 69 c 1
 216 92 l 1
 225 57 243 39 269 39 c 0
 285 39 300 44 314 55 c 0
 328 66 337 79 340 95 c 0
 341 97 341 100 341 102 c 0
 341 118 330 135 307 153 c 0
 284 171 270 183 265 191 c 0
 252 205 247 219 247 233 c 0
 247 237 247 241 248 245 c 0
 251 260 264 282 287 312 c 0
 312 342 324 364 327 378 c 0
 328 382 328 385 328 388 c 0
 328 399 323 408 314 416 c 0
 304 424 291 428 275 428 c 0
 243 428 220 417 203 394 c 0
 190 377 181 351 173 316 c 2
 106 0 l 1
 49 0 l 1
EndSplineSet
MinimumDistance: x13,-1 
EndChar
StartChar: ae
Encoding: 325 230 290
OldEncoding: 230
Width: 580
VWidth: 2048
Flags: HW
HStem: -8 45<136 149> -8 47<396 413> 155 47<309 495> 299 47<169 186 396 413>
VStem: 21 61<85 96>
Fore
575 104 m 1
 535 29 477 -8 401 -8 c 0
 349 -8 312 13 289 56 c 1
 238 13 187 -8 135 -8 c 0
 103 -8 78 0 60 16 c 0
 45 29 37 46 37 67 c 0
 37 74 38 81 40 89 c 0
 53 149 110 185 213 198 c 0
 245 202 273 207 297 213 c 1
 300 226 l 2
 302 236 303 246 303 254 c 0
 303 266 301 276 295 283 c 0
 285 293 268 299 241 299 c 0
 187 299 152 277 137 233 c 1
 82 240 l 1
 111 311 168 346 252 346 c 0
 312 346 347 331 359 300 c 1
 392 331 432 346 477 346 c 0
 525 346 558 330 577 297 c 0
 590 275 597 250 597 222 c 0
 597 207 595 191 591 174 c 1
 586 155 l 1
 342 155 l 1
 339 140 337 126 337 114 c 0
 337 64 363 40 415 40 c 0
 461 40 494 63 517 111 c 1
 575 104 l 1
352 202 m 1
 538 202 l 1
 539 210 540 218 540 225 c 0
 540 274 516 299 467 299 c 0
 440 299 415 290 393 271 c 0
 371 253 358 230 352 202 c 1
289 170 m 1
 251 162 215 155 177 147 c 1
 133 136 108 118 102 91 c 0
 101 86 100 81 100 77 c 0
 100 51 118 38 156 38 c 0
 177 38 197 42 218 52 c 0
 240 63 256 77 266 95 c 0
 274 109 281 133 289 170 c 1
EndSplineSet
MinimumDistance: x33,-1 
EndChar
StartChar: eth
Encoding: 335 240 300
OldEncoding: 240
Width: 362
VWidth: 2048
Flags: HW
HStem: -8 47<168 189> 294 44<167 178> 458 10G<98 167>
VStem: 23 59<148 172> 277 60<156 180>
DStem: 336 849 388 794 180 778 209 711
Fore
197 467 m 1
 266 467 l 1
 281 455 291 444 299 435 c 1
 374 467 l 1
 382 435 l 1
 322 408 l 1
 360 350 379 291 379 230 c 0
 379 209 377 187 372 166 c 0
 362 116 340 75 306 43 c 0
 270 9 227 -8 178 -8 c 0
 127 -8 92 8 71 41 c 0
 58 61 52 85 52 113 c 0
 52 129 54 146 58 165 c 0
 68 213 89 254 119 285 c 0
 152 321 193 338 239 338 c 0
 261 338 283 332 303 320 c 1
 295 345 285 368 271 388 c 1
 176 347 l 1
 169 380 l 1
 252 415 l 1
 236 434 218 451 197 467 c 1
313 168 m 0
 316 183 317 196 317 208 c 0
 317 225 314 241 308 254 c 0
 296 281 272 294 240 294 c 0
 206 294 179 280 157 252 c 0
 138 229 124 199 117 163 c 0
 114 148 112 134 112 121 c 0
 112 105 115 90 121 78 c 0
 132 52 154 39 187 39 c 0
 220 39 249 53 272 81 c 0
 292 104 305 133 313 168 c 0
EndSplineSet
MinimumDistance: x7,-1 
EndChar
StartChar: divide
Encoding: 342 247 307
OldEncoding: 247
Width: 358
VWidth: 2048
Flags: HW
HStem: 204 54<25 333>
VStem: 146 65<102 167 294 359>
Fore
208 294 m 1
 222 359 l 1
 287 359 l 1
 273 294 l 1
 208 294 l 1
376 204 m 1
 68 204 l 1
 80 257 l 1
 388 257 l 1
 376 204 l 1
168 102 m 1
 181 167 l 1
 246 167 l 1
 233 102 l 1
 168 102 l 1
EndSplineSet
MinimumDistance: x2,-1 
EndChar
